NotoSansMyanmarUI-CondensedBold.ufo
<glyph name="question" format="2">
  <advance width="402"/>
  <unicode hex="003F"/>
  <outline>
    <contour>
      <point x="107" y="408" type="line"/>
      <point x="243" y="408" type="line"/>
      <point x="244" y="415" type="line" smooth="yes"/>
      <point x="245" y="422"/>
      <point x="244" y="435"/>
      <point x="295" y="475" type="curve" smooth="yes"/>
      <point x="354" y="522"/>
      <point x="388" y="563"/>
      <point x="388" y="640" type="curve" smooth="yes"/>
      <point x="388" y="739"/>
      <point x="319" y="801"/>
      <point x="189" y="801" type="curve" smooth="yes"/>
      <point x="126" y="801"/>
      <point x="63" y="780"/>
      <point x="0" y="739" type="curve"/>
      <point x="52" y="624" type="line"/>
      <point x="98" y="655"/>
      <point x="138" y="671"/>
      <point x="173" y="671" type="curve" smooth="yes"/>
      <point x="212" y="671"/>
      <point x="230" y="656"/>
      <point x="230" y="628" type="curve" smooth="yes"/>
      <point x="230" y="594"/>
      <point x="215" y="577"/>
      <point x="175" y="545" type="curve" smooth="yes"/>
      <point x="126" y="505"/>
      <point x="107" y="472"/>
      <point x="107" y="414" type="curve" smooth="yes"/>
    </contour>
    <contour>
      <point x="178" y="141" type="curve" smooth="yes"/>
      <point x="246" y="141"/>
      <point x="293" y="180"/>
      <point x="293" y="251" type="curve" smooth="yes"/>
      <point x="293" y="313"/>
      <point x="247" y="358"/>
      <point x="178" y="358" type="curve" smooth="yes"/>
      <point x="110" y="358"/>
      <point x="66" y="317"/>
      <point x="66" y="250" type="curve" smooth="yes"/>
      <point x="66" y="181"/>
      <point x="111" y="141"/>
    </contour>
    <contour>
      <point x="180" y="213" type="curve" smooth="yes"/>
      <point x="163" y="213"/>
      <point x="155" y="228"/>
      <point x="155" y="250" type="curve" smooth="yes"/>
      <point x="155" y="275"/>
      <point x="166" y="287"/>
      <point x="180" y="287" type="curve" smooth="yes"/>
      <point x="194" y="287"/>
      <point x="205" y="275"/>
      <point x="205" y="250" type="curve" smooth="yes"/>
      <point x="205" y="228"/>
      <point x="194" y="213"/>
    </contour>
  </outline>
</glyph>
<glyph name="ka" format="2">
  <advance width="870"/>
  <unicode hex="1000"/>
  <note>
ka
</note>
  <outline>
    <contour>
      <point x="159" y="140" type="curve"/>
      <point x="235" y="262" type="line"/>
      <point x="201" y="307"/>
      <point x="199" y="347"/>
      <point x="199" y="397" type="curve" smooth="yes"/>
      <point x="199" y="476"/>
      <point x="230" y="530"/>
      <point x="282" y="530" type="curve" smooth="yes"/>
      <point x="338" y="530"/>
      <point x="362" y="469"/>
      <point x="362" y="397" type="curve" smooth="yes"/>
      <point x="362" y="349"/>
      <point x="355" y="301"/>
      <point x="306" y="262" type="curve"/>
      <point x="381" y="140" type="line"/>
      <point x="467" y="189"/>
      <point x="503" y="279"/>
      <point x="503" y="397" type="curve" smooth="yes"/>
      <point x="503" y="554"/>
      <point x="425" y="651"/>
      <point x="272" y="651" type="curve" smooth="yes"/>
      <point x="124" y="651"/>
      <point x="35" y="548"/>
      <point x="35" y="397" type="curve" smooth="yes"/>
      <point x="35" y="271"/>
      <point x="86" y="184"/>
    </contour>
    <contour>
      <point x="625" y="140" type="curve" smooth="yes"/>
      <point x="739" y="140"/>
      <point x="835" y="248"/>
      <point x="835" y="396" type="curve" smooth="yes"/>
      <point x="835" y="546"/>
      <point x="730" y="651"/>
      <point x="590" y="651" type="curve" smooth="yes"/>
      <point x="527" y="651"/>
      <point x="463" y="625"/>
      <point x="422" y="568" type="curve"/>
      <point x="487" y="460" type="line"/>
      <point x="499" y="487"/>
      <point x="525" y="530"/>
      <point x="578" y="530" type="curve" smooth="yes"/>
      <point x="628" y="530"/>
      <point x="671" y="479"/>
      <point x="671" y="396" type="curve" smooth="yes"/>
      <point x="671" y="319"/>
      <point x="650" y="269"/>
      <point x="613" y="269" type="curve" smooth="yes"/>
      <point x="594" y="269"/>
      <point x="585" y="273"/>
      <point x="565" y="282" type="curve"/>
      <point x="513" y="170" type="line"/>
      <point x="538" y="148"/>
      <point x="597" y="140"/>
    </contour>
  </outline>
</glyph>
<glyph name="kha" format="2">
  <advance width="573"/>
  <unicode hex="1001"/>
  <note>
kha
</note>
  <outline>
    <contour>
      <point x="279" y="140" type="curve" smooth="yes"/>
      <point x="406" y="140"/>
      <point x="538" y="217"/>
      <point x="538" y="394" type="curve" smooth="yes"/>
      <point x="538" y="555"/>
      <point x="422" y="651"/>
      <point x="267" y="651" type="curve" smooth="yes"/>
      <point x="179" y="651"/>
      <point x="127" y="637"/>
      <point x="53" y="599" type="curve"/>
      <point x="100" y="485" type="line"/>
      <point x="167" y="520"/>
      <point x="199" y="530"/>
      <point x="250" y="530" type="curve" smooth="yes"/>
      <point x="324" y="530"/>
      <point x="376" y="485"/>
      <point x="376" y="394" type="curve" smooth="yes"/>
      <point x="376" y="307"/>
      <point x="323" y="262"/>
      <point x="267" y="262" type="curve" smooth="yes"/>
      <point x="233" y="262"/>
      <point x="211" y="278"/>
      <point x="199" y="298" type="curve"/>
      <point x="220" y="316"/>
      <point x="243" y="325"/>
      <point x="278" y="325" type="curve" smooth="yes"/>
      <point x="315" y="325"/>
      <point x="347" y="312"/>
      <point x="382" y="291" type="curve"/>
      <point x="397" y="385" type="line"/>
      <point x="346" y="407"/>
      <point x="314" y="418"/>
      <point x="258" y="418" type="curve" smooth="yes"/>
      <point x="175" y="418"/>
      <point x="112" y="395"/>
      <point x="35" y="350" type="curve"/>
      <point x="42" y="220"/>
      <point x="114" y="140"/>
    </contour>
  </outline>
</glyph>
<glyph name="ga" format="2">
  <advance width="566"/>
  <unicode hex="1002"/>
  <note>
ga
</note>
  <outline>
    <contour>
      <point x="161" y="140" type="curve"/>
      <point x="236" y="256" type="line"/>
      <point x="199" y="302"/>
      <point x="197" y="344"/>
      <point x="197" y="397" type="curve" smooth="yes"/>
      <point x="197" y="475"/>
      <point x="221" y="530"/>
      <point x="285" y="530" type="curve" smooth="yes"/>
      <point x="341" y="530"/>
      <point x="370" y="478"/>
      <point x="370" y="397" type="curve" smooth="yes"/>
      <point x="370" y="347"/>
      <point x="367" y="302"/>
      <point x="330" y="256" type="curve"/>
      <point x="405" y="140" type="line"/>
      <point x="479" y="184"/>
      <point x="531" y="270"/>
      <point x="531" y="397" type="curve" smooth="yes"/>
      <point x="531" y="550"/>
      <point x="438" y="651"/>
      <point x="283" y="651" type="curve" smooth="yes"/>
      <point x="127" y="651"/>
      <point x="35" y="550"/>
      <point x="35" y="397" type="curve" smooth="yes"/>
      <point x="35" y="271"/>
      <point x="86" y="184"/>
    </contour>
  </outline>
</glyph>
<glyph name="gha" format="2">
  <advance width="869"/>
  <unicode hex="1003"/>
  <note>
gha
</note>
  <outline>
    <contour>
      <point x="256" y="140" type="curve" smooth="yes"/>
      <point x="428" y="140"/>
      <point x="506" y="244"/>
      <point x="506" y="397" type="curve" smooth="yes"/>
      <point x="506" y="523"/>
      <point x="458" y="605"/>
      <point x="387" y="651" type="curve"/>
      <point x="311" y="535" type="line"/>
      <point x="363" y="489"/>
      <point x="364" y="444"/>
      <point x="364" y="394" type="curve" smooth="yes"/>
      <point x="364" y="314"/>
      <point x="333" y="262"/>
      <point x="279" y="262" type="curve" smooth="yes"/>
      <point x="227" y="262"/>
      <point x="201" y="292"/>
      <point x="201" y="334" type="curve" smooth="yes"/>
      <point x="201" y="364"/>
      <point x="212" y="387"/>
      <point x="233" y="414" type="curve" smooth="yes"/>
      <point x="258" y="447"/>
      <point x="287" y="482"/>
      <point x="287" y="534" type="curve" smooth="yes"/>
      <point x="287" y="604"/>
      <point x="244" y="652"/>
      <point x="164" y="652" type="curve" smooth="yes"/>
      <point x="94" y="652"/>
      <point x="42" y="620"/>
      <point x="18" y="573" type="curve"/>
      <point x="89" y="503" type="line"/>
      <point x="99" y="517"/>
      <point x="116" y="531"/>
      <point x="133" y="531" type="curve" smooth="yes"/>
      <point x="145" y="531"/>
      <point x="154" y="525"/>
      <point x="154" y="514" type="curve" smooth="yes"/>
      <point x="154" y="496"/>
      <point x="130" y="486"/>
      <point x="96" y="454" type="curve" smooth="yes"/>
      <point x="59" y="420"/>
      <point x="39" y="379"/>
      <point x="39" y="325" type="curve" smooth="yes"/>
      <point x="39" y="218"/>
      <point x="115" y="140"/>
    </contour>
    <contour>
      <point x="598" y="140" type="curve" smooth="yes"/>
      <point x="754" y="140"/>
      <point x="834" y="247"/>
      <point x="834" y="396" type="curve" smooth="yes"/>
      <point x="834" y="531"/>
      <point x="772" y="651"/>
      <point x="624" y="651" type="curve" smooth="yes"/>
      <point x="597" y="651"/>
      <point x="542" y="642"/>
      <point x="516" y="622" type="curve"/>
      <point x="570" y="511" type="line"/>
      <point x="583" y="518"/>
      <point x="593" y="523"/>
      <point x="608" y="523" type="curve" smooth="yes"/>
      <point x="658" y="523"/>
      <point x="672" y="468"/>
      <point x="672" y="396" type="curve" smooth="yes"/>
      <point x="672" y="312"/>
      <point x="641" y="262"/>
      <point x="583" y="262" type="curve" smooth="yes"/>
      <point x="540" y="262"/>
      <point x="499" y="286"/>
      <point x="493" y="346" type="curve"/>
      <point x="432" y="223" type="line"/>
      <point x="469" y="176"/>
      <point x="523" y="140"/>
    </contour>
  </outline>
</glyph>
<glyph name="ca" format="2">
  <advance width="575"/>
  <unicode hex="1005"/>
  <note>
ca
</note>
  <outline>
    <contour>
      <point x="291" y="140" type="curve" smooth="yes"/>
      <point x="437" y="140"/>
      <point x="540" y="244"/>
      <point x="540" y="396" type="curve" smooth="yes"/>
      <point x="540" y="541"/>
      <point x="441" y="651"/>
      <point x="289" y="651" type="curve" smooth="yes"/>
      <point x="143" y="651"/>
      <point x="35" y="549"/>
      <point x="35" y="396" type="curve" smooth="yes"/>
      <point x="35" y="243"/>
      <point x="144" y="140"/>
    </contour>
    <contour>
      <point x="280" y="240" type="line"/>
      <point x="303" y="293"/>
      <point x="307" y="340"/>
      <point x="307" y="395" type="curve" smooth="yes"/>
      <point x="307" y="457"/>
      <point x="296" y="505"/>
      <point x="286" y="548" type="curve"/>
      <point x="202" y="515" type="line"/>
      <point x="207" y="484"/>
      <point x="219" y="450"/>
      <point x="219" y="399" type="curve" smooth="yes"/>
      <point x="219" y="344"/>
      <point x="210" y="313"/>
      <point x="196" y="274" type="curve"/>
    </contour>
    <contour>
      <point x="266" y="262" type="curve" smooth="yes"/>
      <point x="204" y="262"/>
      <point x="152" y="317"/>
      <point x="152" y="396" type="curve" smooth="yes"/>
      <point x="152" y="467"/>
      <point x="196" y="530"/>
      <point x="270" y="530" type="curve" smooth="yes"/>
      <point x="334" y="530"/>
      <point x="376" y="478"/>
      <point x="376" y="396" type="curve" smooth="yes"/>
      <point x="376" y="309"/>
      <point x="335" y="262"/>
    </contour>
  </outline>
</glyph>
<glyph name="cha" format="2">
  <advance width="872"/>
  <unicode hex="1006"/>
  <note>
cha
</note>
  <outline>
    <contour>
      <point x="256" y="140" type="curve" smooth="yes"/>
      <point x="389" y="140"/>
      <point x="481" y="230"/>
      <point x="481" y="397" type="curve" smooth="yes"/>
      <point x="481" y="556"/>
      <point x="401" y="651"/>
      <point x="263" y="651" type="curve" smooth="yes"/>
      <point x="185" y="651"/>
      <point x="113" y="634"/>
      <point x="53" y="599" type="curve"/>
      <point x="100" y="485" type="line"/>
      <point x="159" y="516"/>
      <point x="199" y="530"/>
      <point x="235" y="530" type="curve" smooth="yes"/>
      <point x="299" y="530"/>
      <point x="334" y="485"/>
      <point x="334" y="396" type="curve" smooth="yes"/>
      <point x="334" y="309"/>
      <point x="301" y="262"/>
      <point x="248" y="262" type="curve" smooth="yes"/>
      <point x="216" y="262"/>
      <point x="192" y="278"/>
      <point x="181" y="296" type="curve"/>
      <point x="202" y="313"/>
      <point x="225" y="325"/>
      <point x="250" y="325" type="curve" smooth="yes"/>
      <point x="294" y="325"/>
      <point x="345" y="296"/>
      <point x="366" y="271" type="curve"/>
      <point x="389" y="366" type="line"/>
      <point x="339" y="404"/>
      <point x="291" y="418"/>
      <point x="245" y="418" type="curve" smooth="yes"/>
      <point x="182" y="418"/>
      <point x="136" y="405"/>
      <point x="35" y="350" type="curve"/>
      <point x="44" y="215"/>
      <point x="120" y="140"/>
    </contour>
    <contour>
      <point x="593" y="140" type="curve" smooth="yes"/>
      <point x="740" y="140"/>
      <point x="837" y="244"/>
      <point x="837" y="396" type="curve" smooth="yes"/>
      <point x="837" y="541"/>
      <point x="744" y="651"/>
      <point x="589" y="651" type="curve" smooth="yes"/>
      <point x="508" y="651"/>
      <point x="430" y="610"/>
      <point x="405" y="563" type="curve"/>
      <point x="467" y="437" type="line"/>
      <point x="483" y="487"/>
      <point x="514" y="530"/>
      <point x="576" y="530" type="curve" smooth="yes"/>
      <point x="634" y="530"/>
      <point x="676" y="478"/>
      <point x="676" y="396" type="curve" smooth="yes"/>
      <point x="676" y="316"/>
      <point x="638" y="262"/>
      <point x="585" y="262" type="curve" smooth="yes"/>
      <point x="517" y="262"/>
      <point x="498" y="300"/>
      <point x="464" y="339" type="curve"/>
      <point x="408" y="213" type="line"/>
      <point x="452" y="163"/>
      <point x="523" y="140"/>
    </contour>
  </outline>
</glyph>
<glyph name="ja" format="2">
  <advance width="560"/>
  <unicode hex="1007"/>
  <note>
ja
</note>
  <outline>
    <contour>
      <point x="295" y="140" type="curve" smooth="yes"/>
      <point x="345" y="140"/>
      <point x="392" y="149"/>
      <point x="441" y="180" type="curve"/>
      <point x="365" y="277" type="line"/>
      <point x="344" y="266"/>
      <point x="323" y="262"/>
      <point x="299" y="262" type="curve" smooth="yes"/>
      <point x="239" y="262"/>
      <point x="197" y="314"/>
      <point x="197" y="394" type="curve" smooth="yes"/>
      <point x="197" y="473"/>
      <point x="240" y="529"/>
      <point x="304" y="529" type="curve" smooth="yes"/>
      <point x="317" y="529"/>
      <point x="328" y="529"/>
      <point x="340" y="528" type="curve"/>
      <point x="334" y="550" type="line"/>
      <point x="303" y="530"/>
      <point x="286" y="502"/>
      <point x="286" y="466" type="curve" smooth="yes"/>
      <point x="286" y="406"/>
      <point x="332" y="370"/>
      <point x="392" y="370" type="curve" smooth="yes"/>
      <point x="403" y="370"/>
      <point x="416" y="371"/>
      <point x="423" y="381" type="curve"/>
      <point x="408" y="384" type="line"/>
      <point x="416" y="326"/>
      <point x="448" y="298"/>
      <point x="517" y="298" type="curve" smooth="yes"/>
      <point x="543" y="298" type="line"/>
      <point x="543" y="420" type="line"/>
      <point x="518" y="420"/>
      <point x="500" y="430"/>
      <point x="500" y="455" type="curve" smooth="yes"/>
      <point x="500" y="469"/>
      <point x="502" y="476"/>
      <point x="502" y="496" type="curve" smooth="yes"/>
      <point x="502" y="572"/>
      <point x="452" y="651"/>
      <point x="308" y="651" type="curve" smooth="yes"/>
      <point x="133" y="651"/>
      <point x="35" y="545"/>
      <point x="35" y="396" type="curve" smooth="yes"/>
      <point x="35" y="235"/>
      <point x="129" y="140"/>
    </contour>
    <contour>
      <point x="394" y="442" type="curve" smooth="yes"/>
      <point x="372" y="442"/>
      <point x="363" y="456"/>
      <point x="363" y="478" type="curve" smooth="yes"/>
      <point x="363" y="502"/>
      <point x="375" y="514"/>
      <point x="394" y="514" type="curve" smooth="yes"/>
      <point x="412" y="514"/>
      <point x="424" y="502"/>
      <point x="424" y="478" type="curve" smooth="yes"/>
      <point x="424" y="456"/>
      <point x="412" y="442"/>
    </contour>
  </outline>
</glyph>
<glyph name="jha" format="2">
  <advance width="787"/>
  <unicode hex="1008"/>
  <note>
jha
</note>
  <outline>
    <contour>
      <point x="526" y="-270" type="curve" smooth="yes"/>
      <point x="655" y="-270"/>
      <point x="742" y="-177"/>
      <point x="742" y="-34" type="curve" smooth="yes"/>
      <point x="742" y="643" type="line"/>
      <point x="581" y="643" type="line"/>
      <point x="581" y="-5" type="line" smooth="yes"/>
      <point x="581" y="-107"/>
      <point x="566" y="-149"/>
      <point x="529" y="-149" type="curve" smooth="yes"/>
      <point x="493" y="-149"/>
      <point x="478" y="-108"/>
      <point x="478" y="-7" type="curve" smooth="yes"/>
      <point x="478" y="263" type="line"/>
      <point x="316" y="155" type="line"/>
      <point x="316" y="-32" type="line" smooth="yes"/>
      <point x="316" y="-180"/>
      <point x="401" y="-270"/>
    </contour>
    <contour>
      <point x="291" y="140" type="curve" smooth="yes"/>
      <point x="437" y="140"/>
      <point x="540" y="244"/>
      <point x="540" y="396" type="curve" smooth="yes"/>
      <point x="540" y="541"/>
      <point x="441" y="651"/>
      <point x="289" y="651" type="curve" smooth="yes"/>
      <point x="143" y="651"/>
      <point x="35" y="549"/>
      <point x="35" y="396" type="curve" smooth="yes"/>
      <point x="35" y="243"/>
      <point x="144" y="140"/>
    </contour>
    <contour>
      <point x="266" y="262" type="curve" smooth="yes"/>
      <point x="204" y="262"/>
      <point x="152" y="317"/>
      <point x="152" y="396" type="curve" smooth="yes"/>
      <point x="152" y="467"/>
      <point x="196" y="530"/>
      <point x="270" y="530" type="curve" smooth="yes"/>
      <point x="334" y="530"/>
      <point x="376" y="478"/>
      <point x="376" y="396" type="curve" smooth="yes"/>
      <point x="376" y="309"/>
      <point x="335" y="262"/>
    </contour>
    <contour>
      <point x="280" y="240" type="line"/>
      <point x="303" y="293"/>
      <point x="307" y="340"/>
      <point x="307" y="395" type="curve" smooth="yes"/>
      <point x="307" y="457"/>
      <point x="296" y="505"/>
      <point x="286" y="548" type="curve"/>
      <point x="202" y="515" type="line"/>
      <point x="207" y="484"/>
      <point x="219" y="450"/>
      <point x="219" y="399" type="curve" smooth="yes"/>
      <point x="219" y="344"/>
      <point x="210" y="313"/>
      <point x="196" y="274" type="curve"/>
    </contour>
  </outline>
</glyph>
<glyph name="nya" format="2">
  <advance width="550"/>
  <unicode hex="1009"/>
  <note>
nya
</note>
  <outline>
    <contour>
      <point x="249" y="-270" type="curve" smooth="yes"/>
      <point x="607" y="-270" type="line" smooth="yes"/>
      <point x="752" y="-270"/>
      <point x="811" y="-205"/>
      <point x="811" y="-72" type="curve" smooth="yes"/>
      <point x="811" y="-45" type="line"/>
      <point x="650" y="-45" type="line"/>
      <point x="650" y="-85" type="line" smooth="yes"/>
      <point x="650" y="-129"/>
      <point x="645" y="-150"/>
      <point x="607" y="-150" type="curve" smooth="yes"/>
      <point x="249" y="-150" type="line" smooth="yes"/>
      <point x="212" y="-150"/>
      <point x="204" y="-129"/>
      <point x="204" y="-85" type="curve" smooth="yes"/>
      <point x="204" y="189" type="line"/>
      <point x="45" y="264" type="line"/>
      <point x="45" y="-72" type="line" smooth="yes"/>
      <point x="45" y="-205"/>
      <point x="104" y="-270"/>
    </contour>
    <contour>
      <point x="279" y="141" type="curve" smooth="yes"/>
      <point x="419" y="141"/>
      <point x="515" y="253"/>
      <point x="515" y="396" type="curve" smooth="yes"/>
      <point x="515" y="542"/>
      <point x="424" y="651"/>
      <point x="265" y="651" type="curve" smooth="yes"/>
      <point x="164" y="651"/>
      <point x="97" y="600"/>
      <point x="64" y="537" type="curve"/>
      <point x="169" y="475" type="line"/>
      <point x="192" y="514"/>
      <point x="222" y="530"/>
      <point x="259" y="530" type="curve" smooth="yes"/>
      <point x="315" y="530"/>
      <point x="353" y="475"/>
      <point x="353" y="396" type="curve" smooth="yes"/>
      <point x="353" y="313"/>
      <point x="314" y="262"/>
      <point x="250" y="262" type="curve" smooth="yes"/>
      <point x="210" y="262"/>
      <point x="187" y="285"/>
      <point x="165" y="323" type="curve"/>
      <point x="45" y="264" type="line"/>
      <point x="84" y="193"/>
      <point x="195" y="141"/>
    </contour>
  </outline>
</glyph>
<glyph name="tta" format="2">
  <advance width="550"/>
  <unicode hex="100B"/>
  <note>
tta
</note>
  <outline>
    <contour>
      <point x="344" y="-269" type="line"/>
      <point x="559" y="-269" type="line"/>
      <point x="559" y="-148" type="line"/>
      <point x="505" y="-148" type="line"/>
      <point x="505" y="-11" type="line"/>
      <point x="442" y="-38"/>
      <point x="373" y="-58"/>
      <point x="297" y="-58" type="curve" smooth="yes"/>
      <point x="254" y="-58"/>
      <point x="231" y="-56"/>
      <point x="213" y="-52" type="curve"/>
      <point x="213" y="2" type="line"/>
      <point x="240" y="-2"/>
      <point x="262" y="-4"/>
      <point x="297" y="-4" type="curve" smooth="yes"/>
      <point x="377" y="-4"/>
      <point x="445" y="16"/>
      <point x="505" y="45" type="curve"/>
      <point x="505" y="264" type="line"/>
      <point x="344" y="190" type="line"/>
      <point x="344" y="105" type="line"/>
      <point x="333" y="101"/>
      <point x="310" y="97"/>
      <point x="271" y="97" type="curve" smooth="yes"/>
      <point x="193" y="97"/>
      <point x="108" y="120"/>
      <point x="45" y="160" type="curve"/>
      <point x="45" y="-117" type="line"/>
      <point x="121" y="-146"/>
      <point x="185" y="-159"/>
      <point x="266" y="-159" type="curve" smooth="yes"/>
      <point x="286" y="-159"/>
      <point x="321" y="-157"/>
      <point x="344" y="-153" type="curve"/>
    </contour>
    <contour>
      <point x="271" y="141" type="curve" smooth="yes"/>
      <point x="355" y="141"/>
      <point x="466" y="193"/>
      <point x="505" y="264" type="curve"/>
      <point x="385" y="323" type="line"/>
      <point x="363" y="285"/>
      <point x="340" y="262"/>
      <point x="300" y="262" type="curve" smooth="yes"/>
      <point x="236" y="262"/>
      <point x="197" y="313"/>
      <point x="197" y="396" type="curve" smooth="yes"/>
      <point x="197" y="475"/>
      <point x="235" y="530"/>
      <point x="291" y="530" type="curve" smooth="yes"/>
      <point x="328" y="530"/>
      <point x="358" y="514"/>
      <point x="381" y="475" type="curve"/>
      <point x="486" y="537" type="line"/>
      <point x="453" y="600"/>
      <point x="386" y="651"/>
      <point x="285" y="651" type="curve" smooth="yes"/>
      <point x="126" y="651"/>
      <point x="35" y="542"/>
      <point x="35" y="396" type="curve" smooth="yes"/>
      <point x="35" y="253"/>
      <point x="131" y="141"/>
    </contour>
  </outline>
</glyph>
<glyph name="ttha" format="2">
  <advance width="550"/>
  <unicode hex="100C"/>
  <note>
ttha
</note>
  <outline>
    <contour>
      <point x="225" y="-270" type="curve" smooth="yes"/>
      <point x="327" y="-270" type="line" smooth="yes"/>
      <point x="448" y="-270"/>
      <point x="505" y="-206"/>
      <point x="505" y="-76" type="curve" smooth="yes"/>
      <point x="505" y="264" type="line"/>
      <point x="341" y="157" type="line"/>
      <point x="341" y="-85" type="line" smooth="yes"/>
      <point x="341" y="-126"/>
      <point x="331" y="-150"/>
      <point x="297" y="-150" type="curve" smooth="yes"/>
      <point x="249" y="-150" type="line" smooth="yes"/>
      <point x="217" y="-150"/>
      <point x="202" y="-137"/>
      <point x="202" y="-117" type="curve" smooth="yes"/>
      <point x="202" y="-104"/>
      <point x="214" y="-90"/>
      <point x="233" y="-90" type="curve" smooth="yes"/>
      <point x="246" y="-90"/>
      <point x="255" y="-94"/>
      <point x="270" y="-105" type="curve"/>
      <point x="323" y="-13" type="line"/>
      <point x="293" y="9"/>
      <point x="256" y="24"/>
      <point x="194" y="24" type="curve" smooth="yes"/>
      <point x="118" y="24"/>
      <point x="38" y="-21"/>
      <point x="38" y="-120" type="curve" smooth="yes"/>
      <point x="38" y="-218"/>
      <point x="116" y="-270"/>
    </contour>
    <contour>
      <point x="271" y="141" type="curve" smooth="yes"/>
      <point x="355" y="141"/>
      <point x="466" y="193"/>
      <point x="505" y="264" type="curve"/>
      <point x="385" y="323" type="line"/>
      <point x="363" y="285"/>
      <point x="340" y="262"/>
      <point x="300" y="262" type="curve" smooth="yes"/>
      <point x="236" y="262"/>
      <point x="197" y="313"/>
      <point x="197" y="396" type="curve" smooth="yes"/>
      <point x="197" y="475"/>
      <point x="235" y="530"/>
      <point x="291" y="530" type="curve" smooth="yes"/>
      <point x="328" y="530"/>
      <point x="358" y="514"/>
      <point x="381" y="475" type="curve"/>
      <point x="486" y="537" type="line"/>
      <point x="453" y="600"/>
      <point x="386" y="651"/>
      <point x="285" y="651" type="curve" smooth="yes"/>
      <point x="126" y="651"/>
      <point x="35" y="542"/>
      <point x="35" y="396" type="curve" smooth="yes"/>
      <point x="35" y="253"/>
      <point x="131" y="141"/>
    </contour>
  </outline>
</glyph>
<glyph name="dda" format="2">
  <advance width="550"/>
  <unicode hex="100D"/>
  <note>
dda
</note>
  <outline>
    <contour>
      <point x="337" y="-269" type="line"/>
      <point x="559" y="-269" type="line"/>
      <point x="559" y="-147" type="line"/>
      <point x="505" y="-147" type="line"/>
      <point x="505" y="151" type="line"/>
      <point x="442" y="111"/>
      <point x="357" y="88"/>
      <point x="279" y="88" type="curve" smooth="yes"/>
      <point x="240" y="88"/>
      <point x="217" y="92"/>
      <point x="206" y="96" type="curve"/>
      <point x="206" y="190" type="line"/>
      <point x="45" y="264" type="line"/>
      <point x="45" y="16" type="line"/>
      <point x="105" y="-14"/>
      <point x="173" y="-34"/>
      <point x="253" y="-34" type="curve" smooth="yes"/>
      <point x="288" y="-34"/>
      <point x="310" y="-32"/>
      <point x="337" y="-27" type="curve"/>
    </contour>
    <contour>
      <point x="279" y="141" type="curve" smooth="yes"/>
      <point x="419" y="141"/>
      <point x="515" y="253"/>
      <point x="515" y="396" type="curve" smooth="yes"/>
      <point x="515" y="542"/>
      <point x="424" y="651"/>
      <point x="265" y="651" type="curve" smooth="yes"/>
      <point x="164" y="651"/>
      <point x="97" y="600"/>
      <point x="64" y="537" type="curve"/>
      <point x="169" y="475" type="line"/>
      <point x="192" y="514"/>
      <point x="222" y="530"/>
      <point x="259" y="530" type="curve" smooth="yes"/>
      <point x="315" y="530"/>
      <point x="353" y="475"/>
      <point x="353" y="396" type="curve" smooth="yes"/>
      <point x="353" y="313"/>
      <point x="314" y="262"/>
      <point x="250" y="262" type="curve" smooth="yes"/>
      <point x="210" y="262"/>
      <point x="187" y="285"/>
      <point x="165" y="323" type="curve"/>
      <point x="45" y="264" type="line"/>
      <point x="84" y="193"/>
      <point x="195" y="141"/>
    </contour>
  </outline>
</glyph>
<glyph name="ddha" format="2">
  <advance width="570"/>
  <unicode hex="100E"/>
  <note>
ddha
</note>
  <outline>
    <contour>
      <point x="275" y="140" type="curve" smooth="yes"/>
      <point x="447" y="140"/>
      <point x="535" y="243"/>
      <point x="535" y="394" type="curve" smooth="yes"/>
      <point x="535" y="522"/>
      <point x="482" y="607"/>
      <point x="411" y="651" type="curve"/>
      <point x="335" y="535" type="line"/>
      <point x="372" y="489"/>
      <point x="373" y="444"/>
      <point x="373" y="394" type="curve" smooth="yes"/>
      <point x="373" y="314"/>
      <point x="338" y="262"/>
      <point x="278" y="262" type="curve" smooth="yes"/>
      <point x="226" y="262"/>
      <point x="200" y="292"/>
      <point x="200" y="334" type="curve" smooth="yes"/>
      <point x="200" y="364"/>
      <point x="211" y="387"/>
      <point x="231" y="410" type="curve" smooth="yes"/>
      <point x="262" y="447"/>
      <point x="296" y="482"/>
      <point x="296" y="534" type="curve" smooth="yes"/>
      <point x="296" y="604"/>
      <point x="249" y="652"/>
      <point x="163" y="652" type="curve" smooth="yes"/>
      <point x="93" y="652"/>
      <point x="41" y="620"/>
      <point x="17" y="573" type="curve"/>
      <point x="88" y="503" type="line"/>
      <point x="98" y="517"/>
      <point x="115" y="531"/>
      <point x="132" y="531" type="curve" smooth="yes"/>
      <point x="144" y="531"/>
      <point x="153" y="525"/>
      <point x="153" y="514" type="curve" smooth="yes"/>
      <point x="153" y="496"/>
      <point x="129" y="486"/>
      <point x="95" y="454" type="curve" smooth="yes"/>
      <point x="58" y="420"/>
      <point x="38" y="379"/>
      <point x="38" y="325" type="curve" smooth="yes"/>
      <point x="38" y="218"/>
      <point x="114" y="140"/>
    </contour>
  </outline>
</glyph>
<glyph name="nna" format="2">
  <advance width="1140"/>
  <unicode hex="100F"/>
  <note>
nna
</note>
  <outline>
    <contour>
      <point x="570" y="142" type="curve" smooth="yes"/>
      <point x="670" y="142"/>
      <point x="733" y="196"/>
      <point x="733" y="290" type="curve" smooth="yes"/>
      <point x="733" y="322"/>
      <point x="729" y="352"/>
      <point x="729" y="387" type="curve" smooth="yes"/>
      <point x="729" y="474"/>
      <point x="769" y="530"/>
      <point x="835" y="530" type="curve" smooth="yes"/>
      <point x="898" y="530"/>
      <point x="943" y="480"/>
      <point x="943" y="396" type="curve" smooth="yes"/>
      <point x="943" y="308"/>
      <point x="912" y="263"/>
      <point x="865" y="263" type="curve" smooth="yes"/>
      <point x="851" y="263"/>
      <point x="834" y="264"/>
      <point x="816" y="273" type="curve"/>
      <point x="778" y="158" type="line"/>
      <point x="812" y="144"/>
      <point x="841" y="141"/>
      <point x="887" y="141" type="curve" smooth="yes"/>
      <point x="1015" y="141"/>
      <point x="1105" y="252"/>
      <point x="1105" y="396" type="curve" smooth="yes"/>
      <point x="1105" y="547"/>
      <point x="993" y="651"/>
      <point x="843" y="651" type="curve" smooth="yes"/>
      <point x="700" y="651"/>
      <point x="603" y="566"/>
      <point x="603" y="410" type="curve" smooth="yes"/>
      <point x="603" y="367"/>
      <point x="606" y="349"/>
      <point x="606" y="308" type="curve" smooth="yes"/>
      <point x="606" y="278"/>
      <point x="592" y="261"/>
      <point x="571" y="261" type="curve" smooth="yes"/>
      <point x="548" y="261"/>
      <point x="535" y="279"/>
      <point x="535" y="308" type="curve" smooth="yes"/>
      <point x="535" y="351"/>
      <point x="536" y="361"/>
      <point x="536" y="410" type="curve" smooth="yes"/>
      <point x="536" y="569"/>
      <point x="438" y="651"/>
      <point x="296" y="651" type="curve" smooth="yes"/>
      <point x="148" y="651"/>
      <point x="35" y="547"/>
      <point x="35" y="396" type="curve" smooth="yes"/>
      <point x="35" y="252"/>
      <point x="125" y="141"/>
      <point x="253" y="141" type="curve" smooth="yes"/>
      <point x="300" y="141"/>
      <point x="330" y="144"/>
      <point x="362" y="157" type="curve"/>
      <point x="324" y="273" type="line"/>
      <point x="305" y="264"/>
      <point x="289" y="263"/>
      <point x="275" y="263" type="curve" smooth="yes"/>
      <point x="226" y="263"/>
      <point x="197" y="311"/>
      <point x="197" y="396" type="curve" smooth="yes"/>
      <point x="197" y="478"/>
      <point x="240" y="530"/>
      <point x="304" y="530" type="curve" smooth="yes"/>
      <point x="369" y="530"/>
      <point x="411" y="476"/>
      <point x="411" y="391" type="curve" smooth="yes"/>
      <point x="411" y="356"/>
      <point x="408" y="326"/>
      <point x="408" y="289" type="curve" smooth="yes"/>
      <point x="408" y="191"/>
      <point x="472" y="142"/>
    </contour>
    <contour>
      <point x="517" y="499" type="line"/>
      <point x="528" y="520"/>
      <point x="547" y="531"/>
      <point x="570" y="531" type="curve" smooth="yes"/>
      <point x="590" y="531"/>
      <point x="613" y="521"/>
      <point x="623" y="499" type="curve"/>
      <point x="706" y="594" type="line"/>
      <point x="676" y="624"/>
      <point x="643" y="651"/>
      <point x="571" y="651" type="curve" smooth="yes"/>
      <point x="505" y="651"/>
      <point x="464" y="628"/>
      <point x="434" y="594" type="curve"/>
    </contour>
  </outline>
</glyph>
<glyph name="tha" format="2">
  <advance width="868"/>
  <unicode hex="1011"/>
  <note>
tha
</note>
  <outline>
    <contour>
      <point x="272" y="140" type="curve" smooth="yes"/>
      <point x="432" y="140"/>
      <point x="498" y="244"/>
      <point x="498" y="397" type="curve" smooth="yes"/>
      <point x="498" y="541"/>
      <point x="432" y="651"/>
      <point x="277" y="651" type="curve" smooth="yes"/>
      <point x="133" y="651"/>
      <point x="35" y="549"/>
      <point x="35" y="396" type="curve" smooth="yes"/>
      <point x="35" y="243"/>
      <point x="134" y="140"/>
    </contour>
    <contour>
      <point x="279" y="262" type="curve" smooth="yes"/>
      <point x="225" y="262"/>
      <point x="197" y="311"/>
      <point x="197" y="396" type="curve" smooth="yes"/>
      <point x="197" y="476"/>
      <point x="223" y="530"/>
      <point x="278" y="530" type="curve" smooth="yes"/>
      <point x="337" y="530"/>
      <point x="359" y="479"/>
      <point x="359" y="396" type="curve" smooth="yes"/>
      <point x="359" y="327"/>
      <point x="339" y="262"/>
    </contour>
    <contour>
      <point x="608" y="140" type="curve" smooth="yes"/>
      <point x="753" y="140"/>
      <point x="833" y="248"/>
      <point x="833" y="397" type="curve" smooth="yes"/>
      <point x="833" y="556"/>
      <point x="748" y="651"/>
      <point x="601" y="651" type="curve" smooth="yes"/>
      <point x="512" y="651"/>
      <point x="454" y="612"/>
      <point x="418" y="571" type="curve"/>
      <point x="485" y="452" type="line"/>
      <point x="504" y="492"/>
      <point x="533" y="530"/>
      <point x="584" y="530" type="curve" smooth="yes"/>
      <point x="648" y="530"/>
      <point x="671" y="468"/>
      <point x="671" y="397" type="curve" smooth="yes"/>
      <point x="671" y="312"/>
      <point x="642" y="262"/>
      <point x="582" y="262" type="curve" smooth="yes"/>
      <point x="525" y="262"/>
      <point x="493" y="317"/>
      <point x="477" y="352" type="curve"/>
      <point x="415" y="224" type="line"/>
      <point x="458" y="176"/>
      <point x="512" y="140"/>
    </contour>
  </outline>
</glyph>
<glyph name="da" format="2">
  <advance width="546"/>
  <unicode hex="1012"/>
  <note>
da
</note>
  <outline>
    <contour>
      <point x="283" y="140" type="curve" smooth="yes"/>
      <point x="455" y="140"/>
      <point x="511" y="220"/>
      <point x="511" y="291" type="curve" smooth="yes"/>
      <point x="511" y="365"/>
      <point x="453" y="398"/>
      <point x="377" y="410" type="curve"/>
      <point x="377" y="415" type="line"/>
      <point x="441" y="432"/>
      <point x="476" y="463"/>
      <point x="476" y="523" type="curve" smooth="yes"/>
      <point x="476" y="603"/>
      <point x="403" y="651"/>
      <point x="264" y="651" type="curve" smooth="yes"/>
      <point x="124" y="651"/>
      <point x="46" y="595"/>
      <point x="46" y="508" type="curve" smooth="yes"/>
      <point x="46" y="476"/>
      <point x="58" y="442"/>
      <point x="90" y="421" type="curve"/>
      <point x="193" y="476" type="line"/>
      <point x="181" y="488"/>
      <point x="178" y="493"/>
      <point x="178" y="502" type="curve" smooth="yes"/>
      <point x="178" y="528"/>
      <point x="220" y="538"/>
      <point x="261" y="538" type="curve" smooth="yes"/>
      <point x="295" y="538"/>
      <point x="335" y="532"/>
      <point x="335" y="500" type="curve" smooth="yes"/>
      <point x="335" y="470"/>
      <point x="295" y="458"/>
      <point x="252" y="458" type="curve" smooth="yes"/>
      <point x="230" y="458" type="line"/>
      <point x="230" y="357" type="line"/>
      <point x="259" y="357" type="line" smooth="yes"/>
      <point x="320" y="357"/>
      <point x="351" y="344"/>
      <point x="351" y="312" type="curve" smooth="yes"/>
      <point x="351" y="280"/>
      <point x="329" y="262"/>
      <point x="271" y="262" type="curve" smooth="yes"/>
      <point x="207" y="262"/>
      <point x="163" y="291"/>
      <point x="130" y="345" type="curve"/>
      <point x="14" y="287" type="line"/>
      <point x="58" y="192"/>
      <point x="154" y="140"/>
    </contour>
  </outline>
</glyph>
<glyph name="dha" format="2">
  <advance width="575"/>
  <unicode hex="1013"/>
  <note>
dha
</note>
  <outline>
    <contour>
      <point x="192" y="297" type="line"/>
      <point x="216" y="313"/>
      <point x="240" y="325"/>
      <point x="288" y="325" type="curve" smooth="yes"/>
      <point x="334" y="325"/>
      <point x="359" y="317"/>
      <point x="390" y="297" type="curve"/>
      <point x="413" y="387" type="line"/>
      <point x="377" y="404"/>
      <point x="342" y="417"/>
      <point x="291" y="417" type="curve" smooth="yes"/>
      <point x="245" y="417"/>
      <point x="207" y="406"/>
      <point x="169" y="387" type="curve"/>
    </contour>
    <contour>
      <point x="291" y="140" type="curve" smooth="yes"/>
      <point x="447" y="140"/>
      <point x="540" y="244"/>
      <point x="540" y="396" type="curve" smooth="yes"/>
      <point x="540" y="542"/>
      <point x="450" y="651"/>
      <point x="289" y="651" type="curve" smooth="yes"/>
      <point x="128" y="651"/>
      <point x="35" y="549"/>
      <point x="35" y="396" type="curve" smooth="yes"/>
      <point x="35" y="243"/>
      <point x="135" y="140"/>
    </contour>
    <contour>
      <point x="287" y="249" type="curve" smooth="yes"/>
      <point x="213" y="249"/>
      <point x="185" y="310"/>
      <point x="185" y="396" type="curve" smooth="yes"/>
      <point x="185" y="479"/>
      <point x="219" y="536"/>
      <point x="287" y="536" type="curve" smooth="yes"/>
      <point x="356" y="536"/>
      <point x="391" y="483"/>
      <point x="391" y="396" type="curve" smooth="yes"/>
      <point x="391" y="308"/>
      <point x="364" y="249"/>
    </contour>
  </outline>
</glyph>
<glyph name="na" format="2">
  <advance width="493"/>
  <unicode hex="1014"/>
  <note>
na
</note>
  <outline>
    <contour>
      <point x="158" y="-270" type="line"/>
      <point x="282" y="-270" type="line"/>
      <point x="282" y="116" type="line" smooth="yes"/>
      <point x="282" y="243"/>
      <point x="238" y="367"/>
      <point x="120" y="367" type="curve" smooth="yes"/>
      <point x="64" y="367"/>
      <point x="15" y="326"/>
      <point x="15" y="269" type="curve" smooth="yes"/>
      <point x="15" y="198"/>
      <point x="88" y="142"/>
      <point x="226" y="142" type="curve" smooth="yes"/>
      <point x="242" y="142" type="line" smooth="yes"/>
      <point x="386" y="142"/>
      <point x="458" y="208"/>
      <point x="458" y="298" type="curve" smooth="yes"/>
      <point x="458" y="381"/>
      <point x="409" y="420"/>
      <point x="328" y="463" type="curve" smooth="yes"/>
      <point x="292" y="482"/>
      <point x="267" y="493"/>
      <point x="267" y="514" type="curve" smooth="yes"/>
      <point x="267" y="526"/>
      <point x="277" y="537"/>
      <point x="294" y="537" type="curve" smooth="yes"/>
      <point x="314" y="537"/>
      <point x="337" y="524"/>
      <point x="355" y="505" type="curve"/>
      <point x="430" y="584" type="line"/>
      <point x="400" y="619"/>
      <point x="347" y="652"/>
      <point x="272" y="652" type="curve" smooth="yes"/>
      <point x="172" y="652"/>
      <point x="122" y="591"/>
      <point x="122" y="522" type="curve" smooth="yes"/>
      <point x="122" y="458"/>
      <point x="149" y="422"/>
      <point x="224" y="383" type="curve" smooth="yes"/>
      <point x="271" y="359"/>
      <point x="312" y="335"/>
      <point x="312" y="295" type="curve" smooth="yes"/>
      <point x="312" y="240"/>
      <point x="237" y="232"/>
      <point x="190" y="232" type="curve" smooth="yes"/>
      <point x="183" y="232" type="line" smooth="yes"/>
      <point x="121" y="232"/>
      <point x="95" y="253"/>
      <point x="95" y="276" type="curve" smooth="yes"/>
      <point x="95" y="290"/>
      <point x="111" y="301"/>
      <point x="125" y="301" type="curve" smooth="yes"/>
      <point x="155" y="301"/>
      <point x="158" y="281"/>
      <point x="158" y="231" type="curve" smooth="yes"/>
    </contour>
  </outline>
</glyph>
<glyph name="pa" format="2">
  <advance width="566"/>
  <unicode hex="1015"/>
  <note>
pa
</note>
  <outline>
    <contour>
      <point x="283" y="140" type="curve" smooth="yes"/>
      <point x="442" y="140"/>
      <point x="531" y="233"/>
      <point x="531" y="391" type="curve" smooth="yes"/>
      <point x="531" y="522"/>
      <point x="479" y="607"/>
      <point x="405" y="651" type="curve"/>
      <point x="330" y="535" type="line"/>
      <point x="367" y="489"/>
      <point x="370" y="444"/>
      <point x="370" y="394" type="curve" smooth="yes"/>
      <point x="370" y="314"/>
      <point x="341" y="262"/>
      <point x="285" y="262" type="curve" smooth="yes"/>
      <point x="221" y="262"/>
      <point x="197" y="316"/>
      <point x="197" y="394" type="curve" smooth="yes"/>
      <point x="197" y="447"/>
      <point x="199" y="489"/>
      <point x="236" y="535" type="curve"/>
      <point x="161" y="651" type="line"/>
      <point x="86" y="607"/>
      <point x="35" y="521"/>
      <point x="35" y="394" type="curve" smooth="yes"/>
      <point x="35" y="241"/>
      <point x="127" y="140"/>
    </contour>
  </outline>
</glyph>
<glyph name="pha" format="2">
  <advance width="573"/>
  <unicode hex="1016"/>
  <note>
pha
</note>
  <outline>
    <contour>
      <point x="295" y="140" type="curve" smooth="yes"/>
      <point x="463" y="140"/>
      <point x="538" y="252"/>
      <point x="538" y="394" type="curve" smooth="yes"/>
      <point x="538" y="512"/>
      <point x="468" y="609"/>
      <point x="359" y="651" type="curve"/>
      <point x="317" y="580"/>
      <point x="279" y="508"/>
      <point x="279" y="398" type="curve" smooth="yes"/>
      <point x="279" y="342"/>
      <point x="287" y="285"/>
      <point x="301" y="243" type="curve"/>
      <point x="379" y="282" type="line"/>
      <point x="361" y="324"/>
      <point x="357" y="365"/>
      <point x="357" y="405" type="curve" smooth="yes"/>
      <point x="357" y="455"/>
      <point x="366" y="485"/>
      <point x="380" y="514" type="curve"/>
      <point x="407" y="484"/>
      <point x="414" y="445"/>
      <point x="414" y="398" type="curve" smooth="yes"/>
      <point x="414" y="319"/>
      <point x="384" y="262"/>
      <point x="304" y="262" type="curve" smooth="yes"/>
      <point x="241" y="262"/>
      <point x="197" y="309"/>
      <point x="197" y="394" type="curve" smooth="yes"/>
      <point x="197" y="443"/>
      <point x="204" y="486"/>
      <point x="239" y="535" type="curve"/>
      <point x="164" y="651" type="line"/>
      <point x="92" y="608"/>
      <point x="35" y="522"/>
      <point x="35" y="394" type="curve" smooth="yes"/>
      <point x="35" y="243"/>
      <point x="125" y="140"/>
    </contour>
  </outline>
</glyph>
<glyph name="ba" format="2">
  <advance width="570"/>
  <unicode hex="1017"/>
  <note>
ba
</note>
  <outline>
    <contour>
      <point x="286" y="140" type="curve" smooth="yes"/>
      <point x="454" y="140"/>
      <point x="535" y="243"/>
      <point x="535" y="394" type="curve" smooth="yes"/>
      <point x="535" y="522"/>
      <point x="501" y="594"/>
      <point x="464" y="651" type="curve"/>
      <point x="335" y="535" type="line"/>
      <point x="372" y="489"/>
      <point x="373" y="444"/>
      <point x="373" y="394" type="curve" smooth="yes"/>
      <point x="373" y="314"/>
      <point x="346" y="262"/>
      <point x="286" y="262" type="curve" smooth="yes"/>
      <point x="222" y="262"/>
      <point x="197" y="316"/>
      <point x="197" y="394" type="curve" smooth="yes"/>
      <point x="197" y="447"/>
      <point x="200" y="489"/>
      <point x="238" y="535" type="curve"/>
      <point x="106" y="651" type="line"/>
      <point x="71" y="597"/>
      <point x="35" y="521"/>
      <point x="35" y="394" type="curve" smooth="yes"/>
      <point x="35" y="242"/>
      <point x="118" y="140"/>
    </contour>
    <contour>
      <point x="290" y="399" type="curve" smooth="yes"/>
      <point x="385" y="399"/>
      <point x="468" y="487"/>
      <point x="468" y="586" type="curve" smooth="yes"/>
      <point x="468" y="609"/>
      <point x="468" y="631"/>
      <point x="464" y="651" type="curve"/>
      <point x="340" y="595" type="line"/>
      <point x="342" y="588"/>
      <point x="342" y="584"/>
      <point x="342" y="577" type="curve" smooth="yes"/>
      <point x="342" y="541"/>
      <point x="320" y="515"/>
      <point x="285" y="515" type="curve" smooth="yes"/>
      <point x="250" y="515"/>
      <point x="228" y="541"/>
      <point x="228" y="577" type="curve" smooth="yes"/>
      <point x="228" y="583"/>
      <point x="228" y="588"/>
      <point x="230" y="595" type="curve"/>
      <point x="106" y="651" type="line"/>
      <point x="103" y="632"/>
      <point x="102" y="612"/>
      <point x="102" y="591" type="curve" smooth="yes"/>
      <point x="102" y="485"/>
      <point x="185" y="399"/>
    </contour>
  </outline>
</glyph>
<glyph name="bha" format="2">
  <advance width="869"/>
  <unicode hex="1018"/>
  <note>
bha
</note>
  <outline>
    <contour>
      <point x="250" y="141" type="curve" smooth="yes"/>
      <point x="400" y="141"/>
      <point x="492" y="244"/>
      <point x="492" y="396" type="curve" smooth="yes"/>
      <point x="492" y="547"/>
      <point x="389" y="651"/>
      <point x="250" y="651" type="curve" smooth="yes"/>
      <point x="148" y="651"/>
      <point x="85" y="596"/>
      <point x="55" y="537" type="curve"/>
      <point x="160" y="475" type="line"/>
      <point x="182" y="509"/>
      <point x="210" y="530"/>
      <point x="249" y="530" type="curve" smooth="yes"/>
      <point x="306" y="530"/>
      <point x="345" y="475"/>
      <point x="345" y="396" type="curve" smooth="yes"/>
      <point x="345" y="321"/>
      <point x="310" y="262"/>
      <point x="247" y="262" type="curve" smooth="yes"/>
      <point x="202" y="262"/>
      <point x="174" y="291"/>
      <point x="155" y="323" type="curve"/>
      <point x="35" y="264" type="line"/>
      <point x="75" y="193"/>
      <point x="154" y="141"/>
    </contour>
    <contour>
      <point x="624" y="140" type="curve" smooth="yes"/>
      <point x="772" y="140"/>
      <point x="834" y="261"/>
      <point x="834" y="396" type="curve" smooth="yes"/>
      <point x="834" y="544"/>
      <point x="754" y="651"/>
      <point x="598" y="651" type="curve" smooth="yes"/>
      <point x="523" y="651"/>
      <point x="453" y="615"/>
      <point x="416" y="568" type="curve"/>
      <point x="478" y="440" type="line"/>
      <point x="502" y="493"/>
      <point x="542" y="530"/>
      <point x="583" y="530" type="curve" smooth="yes"/>
      <point x="641" y="530"/>
      <point x="672" y="479"/>
      <point x="672" y="396" type="curve" smooth="yes"/>
      <point x="672" y="324"/>
      <point x="658" y="269"/>
      <point x="608" y="269" type="curve" smooth="yes"/>
      <point x="593" y="269"/>
      <point x="583" y="273"/>
      <point x="570" y="280" type="curve"/>
      <point x="516" y="170" type="line"/>
      <point x="542" y="149"/>
      <point x="597" y="140"/>
    </contour>
  </outline>
</glyph>
<glyph name="ma" format="2">
  <advance width="573"/>
  <unicode hex="1019"/>
  <note>
ma
</note>
  <outline>
    <contour>
      <point x="286" y="140" type="curve" smooth="yes"/>
      <point x="446" y="140"/>
      <point x="538" y="243"/>
      <point x="538" y="394" type="curve" smooth="yes"/>
      <point x="538" y="522"/>
      <point x="485" y="607"/>
      <point x="415" y="651" type="curve"/>
      <point x="339" y="535" type="line"/>
      <point x="384" y="488"/>
      <point x="388" y="442"/>
      <point x="388" y="392" type="curve" smooth="yes"/>
      <point x="388" y="292"/>
      <point x="352" y="248"/>
      <point x="288" y="248" type="curve" smooth="yes"/>
      <point x="215" y="248"/>
      <point x="186" y="299"/>
      <point x="186" y="393" type="curve" smooth="yes"/>
      <point x="186" y="446"/>
      <point x="191" y="489"/>
      <point x="238" y="535" type="curve"/>
      <point x="162" y="651" type="line"/>
      <point x="89" y="607"/>
      <point x="35" y="521"/>
      <point x="35" y="394" type="curve" smooth="yes"/>
      <point x="35" y="242"/>
      <point x="127" y="140"/>
    </contour>
    <contour>
      <point x="192" y="297" type="line"/>
      <point x="216" y="313"/>
      <point x="240" y="325"/>
      <point x="288" y="325" type="curve" smooth="yes"/>
      <point x="334" y="325"/>
      <point x="359" y="317"/>
      <point x="390" y="297" type="curve"/>
      <point x="413" y="387" type="line"/>
      <point x="377" y="404"/>
      <point x="342" y="417"/>
      <point x="291" y="417" type="curve" smooth="yes"/>
      <point x="245" y="417"/>
      <point x="207" y="406"/>
      <point x="169" y="387" type="curve"/>
    </contour>
  </outline>
</glyph>
<glyph name="ya" format="2">
  <advance width="868"/>
  <unicode hex="101A"/>
  <note>
ya
</note>
  <outline>
    <contour>
      <point x="282" y="140" type="curve" smooth="yes"/>
      <point x="432" y="140"/>
      <point x="502" y="244"/>
      <point x="502" y="394" type="curve" smooth="yes"/>
      <point x="502" y="522"/>
      <point x="464" y="607"/>
      <point x="378" y="651" type="curve"/>
      <point x="308" y="535" type="line"/>
      <point x="352" y="489"/>
      <point x="361" y="444"/>
      <point x="361" y="394" type="curve" smooth="yes"/>
      <point x="361" y="314"/>
      <point x="338" y="262"/>
      <point x="282" y="262" type="curve" smooth="yes"/>
      <point x="222" y="262"/>
      <point x="197" y="316"/>
      <point x="197" y="394" type="curve" smooth="yes"/>
      <point x="197" y="447"/>
      <point x="200" y="489"/>
      <point x="238" y="535" type="curve"/>
      <point x="162" y="651" type="line"/>
      <point x="89" y="607"/>
      <point x="35" y="521"/>
      <point x="35" y="394" type="curve" smooth="yes"/>
      <point x="35" y="242"/>
      <point x="118" y="140"/>
    </contour>
    <contour>
      <point x="597" y="140" type="curve" smooth="yes"/>
      <point x="753" y="140"/>
      <point x="833" y="247"/>
      <point x="833" y="396" type="curve" smooth="yes"/>
      <point x="833" y="531"/>
      <point x="771" y="651"/>
      <point x="623" y="651" type="curve" smooth="yes"/>
      <point x="596" y="651"/>
      <point x="541" y="642"/>
      <point x="515" y="622" type="curve"/>
      <point x="569" y="511" type="line"/>
      <point x="582" y="518"/>
      <point x="592" y="523"/>
      <point x="607" y="523" type="curve" smooth="yes"/>
      <point x="657" y="523"/>
      <point x="671" y="468"/>
      <point x="671" y="396" type="curve" smooth="yes"/>
      <point x="671" y="312"/>
      <point x="640" y="262"/>
      <point x="582" y="262" type="curve" smooth="yes"/>
      <point x="541" y="262"/>
      <point x="501" y="298"/>
      <point x="477" y="352" type="curve"/>
      <point x="415" y="223" type="line"/>
      <point x="452" y="176"/>
      <point x="522" y="140"/>
    </contour>
  </outline>
</glyph>
<glyph name="ra" format="2">
  <advance width="592"/>
  <unicode hex="101B"/>
  <note>
ra
</note>
  <outline>
    <contour>
      <point x="383" y="-270" type="line"/>
      <point x="619" y="-270" type="line"/>
      <point x="619" y="-149" type="line"/>
      <point x="547" y="-149" type="line"/>
      <point x="547" y="390" type="line" smooth="yes"/>
      <point x="547" y="530"/>
      <point x="470" y="651"/>
      <point x="297" y="651" type="curve" smooth="yes"/>
      <point x="130" y="651"/>
      <point x="35" y="538"/>
      <point x="35" y="396" type="curve" smooth="yes"/>
      <point x="35" y="249"/>
      <point x="111" y="140"/>
      <point x="281" y="140" type="curve" smooth="yes"/>
      <point x="317" y="140"/>
      <point x="338" y="147"/>
      <point x="360" y="154" type="curve"/>
      <point x="356" y="326"/>
      <point x="317" y="425"/>
      <point x="153" y="463" type="curve"/>
      <point x="144" y="379" type="line"/>
      <point x="210" y="370"/>
      <point x="253" y="310"/>
      <point x="257" y="216" type="curve"/>
      <point x="292" y="246" type="line"/>
      <point x="283" y="246"/>
      <point x="272" y="246"/>
      <point x="264" y="246" type="curve" smooth="yes"/>
      <point x="201" y="246"/>
      <point x="157" y="306"/>
      <point x="157" y="388" type="curve" smooth="yes"/>
      <point x="157" y="461"/>
      <point x="192" y="530"/>
      <point x="271" y="530" type="curve" smooth="yes"/>
      <point x="353" y="530"/>
      <point x="383" y="461"/>
      <point x="383" y="388" type="curve" smooth="yes"/>
    </contour>
  </outline>
</glyph>
<glyph name="la" format="2">
  <advance width="869"/>
  <unicode hex="101C"/>
  <note>
la
</note>
  <outline>
    <contour>
      <point x="257" y="140" type="curve" smooth="yes"/>
      <point x="289" y="140"/>
      <point x="349" y="148"/>
      <point x="378" y="170" type="curve"/>
      <point x="325" y="276" type="line"/>
      <point x="305" y="266"/>
      <point x="295" y="262"/>
      <point x="271" y="262" type="curve" smooth="yes"/>
      <point x="226" y="262"/>
      <point x="197" y="314"/>
      <point x="197" y="396" type="curve" smooth="yes"/>
      <point x="197" y="472"/>
      <point x="212" y="528"/>
      <point x="261" y="528" type="curve" smooth="yes"/>
      <point x="304" y="528"/>
      <point x="326" y="490"/>
      <point x="371" y="351" type="curve" smooth="yes"/>
      <point x="415" y="213"/>
      <point x="492" y="141"/>
      <point x="613" y="141" type="curve" smooth="yes"/>
      <point x="754" y="141"/>
      <point x="834" y="253"/>
      <point x="834" y="396" type="curve" smooth="yes"/>
      <point x="834" y="559"/>
      <point x="760" y="651"/>
      <point x="611" y="651" type="curve" smooth="yes"/>
      <point x="581" y="651"/>
      <point x="521" y="642"/>
      <point x="490" y="622" type="curve"/>
      <point x="545" y="514" type="line"/>
      <point x="565" y="524"/>
      <point x="578" y="529"/>
      <point x="598" y="529" type="curve" smooth="yes"/>
      <point x="651" y="529"/>
      <point x="673" y="469"/>
      <point x="673" y="396" type="curve" smooth="yes"/>
      <point x="673" y="315"/>
      <point x="663" y="263"/>
      <point x="617" y="263" type="curve" smooth="yes"/>
      <point x="573" y="263"/>
      <point x="545" y="299"/>
      <point x="497" y="442" type="curve" smooth="yes"/>
      <point x="445" y="598"/>
      <point x="374" y="651"/>
      <point x="261" y="651" type="curve" smooth="yes"/>
      <point x="99" y="651"/>
      <point x="35" y="537"/>
      <point x="35" y="396" type="curve" smooth="yes"/>
      <point x="35" y="233"/>
      <point x="110" y="140"/>
    </contour>
  </outline>
</glyph>
<glyph name="wa" format="2">
  <advance width="575"/>
  <unicode hex="101D"/>
  <note>
wa
</note>
  <outline>
    <contour>
      <point x="291" y="140" type="curve" smooth="yes"/>
      <point x="447" y="140"/>
      <point x="540" y="244"/>
      <point x="540" y="396" type="curve" smooth="yes"/>
      <point x="540" y="542"/>
      <point x="450" y="651"/>
      <point x="289" y="651" type="curve" smooth="yes"/>
      <point x="128" y="651"/>
      <point x="35" y="549"/>
      <point x="35" y="396" type="curve" smooth="yes"/>
      <point x="35" y="243"/>
      <point x="135" y="140"/>
    </contour>
    <contour>
      <point x="288" y="262" type="curve" smooth="yes"/>
      <point x="223" y="262"/>
      <point x="199" y="318"/>
      <point x="199" y="396" type="curve" smooth="yes"/>
      <point x="199" y="476"/>
      <point x="228" y="530"/>
      <point x="287" y="530" type="curve" smooth="yes"/>
      <point x="346" y="530"/>
      <point x="376" y="479"/>
      <point x="376" y="396" type="curve" smooth="yes"/>
      <point x="376" y="316"/>
      <point x="353" y="262"/>
    </contour>
  </outline>
</glyph>
<glyph name="sa" format="2">
  <advance width="869"/>
  <unicode hex="101E"/>
  <note>
sa
</note>
  <outline>
    <contour>
      <point x="250" y="141" type="curve" smooth="yes"/>
      <point x="400" y="141"/>
      <point x="492" y="244"/>
      <point x="492" y="396" type="curve" smooth="yes"/>
      <point x="492" y="547"/>
      <point x="389" y="651"/>
      <point x="250" y="651" type="curve" smooth="yes"/>
      <point x="148" y="651"/>
      <point x="85" y="596"/>
      <point x="55" y="537" type="curve"/>
      <point x="160" y="475" type="line"/>
      <point x="182" y="509"/>
      <point x="210" y="530"/>
      <point x="249" y="530" type="curve" smooth="yes"/>
      <point x="306" y="530"/>
      <point x="345" y="475"/>
      <point x="345" y="396" type="curve" smooth="yes"/>
      <point x="345" y="321"/>
      <point x="310" y="262"/>
      <point x="247" y="262" type="curve" smooth="yes"/>
      <point x="202" y="262"/>
      <point x="174" y="291"/>
      <point x="155" y="323" type="curve"/>
      <point x="35" y="264" type="line"/>
      <point x="75" y="193"/>
      <point x="154" y="141"/>
    </contour>
    <contour>
      <point x="598" y="140" type="curve" smooth="yes"/>
      <point x="754" y="140"/>
      <point x="834" y="247"/>
      <point x="834" y="396" type="curve" smooth="yes"/>
      <point x="834" y="531"/>
      <point x="772" y="651"/>
      <point x="624" y="651" type="curve" smooth="yes"/>
      <point x="597" y="651"/>
      <point x="542" y="642"/>
      <point x="516" y="622" type="curve"/>
      <point x="570" y="511" type="line"/>
      <point x="583" y="518"/>
      <point x="593" y="523"/>
      <point x="608" y="523" type="curve" smooth="yes"/>
      <point x="658" y="523"/>
      <point x="672" y="468"/>
      <point x="672" y="396" type="curve" smooth="yes"/>
      <point x="672" y="312"/>
      <point x="641" y="262"/>
      <point x="583" y="262" type="curve" smooth="yes"/>
      <point x="542" y="262"/>
      <point x="502" y="298"/>
      <point x="478" y="352" type="curve"/>
      <point x="416" y="223" type="line"/>
      <point x="453" y="176"/>
      <point x="523" y="140"/>
    </contour>
  </outline>
</glyph>
<glyph name="ha" format="2">
  <advance width="868"/>
  <unicode hex="101F"/>
  <note>
ha
</note>
  <outline>
    <contour>
      <point x="282" y="140" type="curve" smooth="yes"/>
      <point x="432" y="140"/>
      <point x="502" y="244"/>
      <point x="502" y="394" type="curve" smooth="yes"/>
      <point x="502" y="522"/>
      <point x="464" y="607"/>
      <point x="378" y="651" type="curve"/>
      <point x="308" y="535" type="line"/>
      <point x="352" y="489"/>
      <point x="361" y="444"/>
      <point x="361" y="394" type="curve" smooth="yes"/>
      <point x="361" y="314"/>
      <point x="338" y="262"/>
      <point x="282" y="262" type="curve" smooth="yes"/>
      <point x="222" y="262"/>
      <point x="197" y="316"/>
      <point x="197" y="394" type="curve" smooth="yes"/>
      <point x="197" y="447"/>
      <point x="200" y="489"/>
      <point x="238" y="535" type="curve"/>
      <point x="162" y="651" type="line"/>
      <point x="89" y="607"/>
      <point x="35" y="521"/>
      <point x="35" y="394" type="curve" smooth="yes"/>
      <point x="35" y="242"/>
      <point x="118" y="140"/>
    </contour>
    <contour>
      <point x="623" y="140" type="curve" smooth="yes"/>
      <point x="771" y="140"/>
      <point x="833" y="261"/>
      <point x="833" y="396" type="curve" smooth="yes"/>
      <point x="833" y="544"/>
      <point x="753" y="651"/>
      <point x="597" y="651" type="curve" smooth="yes"/>
      <point x="522" y="651"/>
      <point x="452" y="615"/>
      <point x="415" y="568" type="curve"/>
      <point x="477" y="440" type="line"/>
      <point x="501" y="493"/>
      <point x="541" y="530"/>
      <point x="582" y="530" type="curve" smooth="yes"/>
      <point x="640" y="530"/>
      <point x="671" y="479"/>
      <point x="671" y="396" type="curve" smooth="yes"/>
      <point x="671" y="324"/>
      <point x="657" y="269"/>
      <point x="607" y="269" type="curve" smooth="yes"/>
      <point x="592" y="269"/>
      <point x="582" y="273"/>
      <point x="569" y="280" type="curve"/>
      <point x="515" y="170" type="line"/>
      <point x="541" y="149"/>
      <point x="596" y="140"/>
    </contour>
  </outline>
</glyph>
<glyph name="a_m" format="2">
  <advance width="862"/>
  <unicode hex="1021"/>
  <note>
a_m
</note>
  <outline>
    <contour>
      <point x="263" y="140" type="curve" smooth="yes"/>
      <point x="420" y="140"/>
      <point x="471" y="220"/>
      <point x="471" y="291" type="curve" smooth="yes"/>
      <point x="471" y="365"/>
      <point x="417" y="398"/>
      <point x="347" y="410" type="curve"/>
      <point x="347" y="415" type="line"/>
      <point x="411" y="432"/>
      <point x="446" y="463"/>
      <point x="446" y="523" type="curve" smooth="yes"/>
      <point x="446" y="603"/>
      <point x="376" y="651"/>
      <point x="244" y="651" type="curve" smooth="yes"/>
      <point x="110" y="651"/>
      <point x="36" y="595"/>
      <point x="36" y="508" type="curve" smooth="yes"/>
      <point x="36" y="476"/>
      <point x="48" y="442"/>
      <point x="80" y="421" type="curve"/>
      <point x="183" y="476" type="line"/>
      <point x="171" y="488"/>
      <point x="168" y="493"/>
      <point x="168" y="502" type="curve" smooth="yes"/>
      <point x="168" y="528"/>
      <point x="205" y="538"/>
      <point x="241" y="538" type="curve" smooth="yes"/>
      <point x="270" y="538"/>
      <point x="305" y="532"/>
      <point x="305" y="500" type="curve" smooth="yes"/>
      <point x="305" y="470"/>
      <point x="270" y="458"/>
      <point x="232" y="458" type="curve" smooth="yes"/>
      <point x="220" y="458" type="line"/>
      <point x="220" y="357" type="line"/>
      <point x="239" y="357" type="line" smooth="yes"/>
      <point x="293" y="357"/>
      <point x="321" y="344"/>
      <point x="321" y="312" type="curve" smooth="yes"/>
      <point x="321" y="280"/>
      <point x="302" y="262"/>
      <point x="251" y="262" type="curve" smooth="yes"/>
      <point x="192" y="262"/>
      <point x="151" y="291"/>
      <point x="120" y="345" type="curve"/>
      <point x="4" y="287" type="line"/>
      <point x="46" y="192"/>
      <point x="139" y="140"/>
    </contour>
    <contour>
      <point x="586" y="140" type="curve" smooth="yes"/>
      <point x="748" y="140"/>
      <point x="827" y="248"/>
      <point x="827" y="396" type="curve" smooth="yes"/>
      <point x="827" y="547"/>
      <point x="733" y="651"/>
      <point x="587" y="651" type="curve" smooth="yes"/>
      <point x="509" y="651"/>
      <point x="452" y="622"/>
      <point x="415" y="594" type="curve"/>
      <point x="432" y="482" type="line"/>
      <point x="467" y="509"/>
      <point x="519" y="532"/>
      <point x="576" y="532" type="curve" smooth="yes"/>
      <point x="667" y="532"/>
      <point x="705" y="470"/>
      <point x="705" y="391" type="curve" smooth="yes"/>
      <point x="705" y="310"/>
      <point x="659" y="257"/>
      <point x="592" y="257" type="curve" smooth="yes"/>
      <point x="577" y="257"/>
      <point x="562" y="257"/>
      <point x="548" y="257" type="curve"/>
      <point x="605" y="219" type="line"/>
      <point x="610" y="319"/>
      <point x="647" y="379"/>
      <point x="718" y="390" type="curve"/>
      <point x="709" y="474" type="line"/>
      <point x="552" y="439"/>
      <point x="506" y="334"/>
      <point x="502" y="154" type="curve"/>
      <point x="526" y="144"/>
      <point x="564" y="140"/>
    </contour>
  </outline>
</glyph>
<glyph name="a_shn" format="2">
  <advance width="869"/>
  <unicode hex="1022"/>
  <note>
a_shn
</note>
  <outline>
    <contour>
      <point x="164" y="140" type="curve" smooth="yes"/>
      <point x="244" y="140"/>
      <point x="287" y="189"/>
      <point x="287" y="258" type="curve" smooth="yes"/>
      <point x="287" y="310"/>
      <point x="258" y="345"/>
      <point x="233" y="379" type="curve" smooth="yes"/>
      <point x="212" y="406"/>
      <point x="201" y="428"/>
      <point x="201" y="458" type="curve" smooth="yes"/>
      <point x="201" y="500"/>
      <point x="227" y="531"/>
      <point x="279" y="531" type="curve" smooth="yes"/>
      <point x="333" y="531"/>
      <point x="364" y="478"/>
      <point x="364" y="398" type="curve" smooth="yes"/>
      <point x="364" y="348"/>
      <point x="363" y="303"/>
      <point x="311" y="257" type="curve"/>
      <point x="387" y="141" type="line"/>
      <point x="458" y="187"/>
      <point x="506" y="270"/>
      <point x="506" y="396" type="curve" smooth="yes"/>
      <point x="506" y="549"/>
      <point x="428" y="652"/>
      <point x="265" y="652" type="curve" smooth="yes"/>
      <point x="115" y="652"/>
      <point x="39" y="574"/>
      <point x="39" y="468" type="curve" smooth="yes"/>
      <point x="39" y="413"/>
      <point x="59" y="372"/>
      <point x="96" y="338" type="curve" smooth="yes"/>
      <point x="130" y="307"/>
      <point x="154" y="296"/>
      <point x="154" y="279" type="curve" smooth="yes"/>
      <point x="154" y="267"/>
      <point x="145" y="262"/>
      <point x="133" y="262" type="curve" smooth="yes"/>
      <point x="116" y="262"/>
      <point x="99" y="275"/>
      <point x="89" y="289" type="curve"/>
      <point x="18" y="219" type="line"/>
      <point x="42" y="172"/>
      <point x="94" y="140"/>
    </contour>
    <contour>
      <point x="624" y="141" type="curve" smooth="yes"/>
      <point x="772" y="141"/>
      <point x="834" y="262"/>
      <point x="834" y="397" type="curve" smooth="yes"/>
      <point x="834" y="545"/>
      <point x="754" y="652"/>
      <point x="598" y="652" type="curve" smooth="yes"/>
      <point x="523" y="652"/>
      <point x="469" y="616"/>
      <point x="432" y="569" type="curve"/>
      <point x="493" y="446" type="line"/>
      <point x="499" y="506"/>
      <point x="540" y="531"/>
      <point x="583" y="531" type="curve" smooth="yes"/>
      <point x="641" y="531"/>
      <point x="672" y="480"/>
      <point x="672" y="397" type="curve" smooth="yes"/>
      <point x="672" y="325"/>
      <point x="658" y="270"/>
      <point x="608" y="270" type="curve" smooth="yes"/>
      <point x="593" y="270"/>
      <point x="583" y="274"/>
      <point x="570" y="281" type="curve"/>
      <point x="516" y="171" type="line"/>
      <point x="542" y="150"/>
      <point x="597" y="141"/>
    </contour>
  </outline>
</glyph>
<glyph name="i_m" format="2">
  <advance width="854"/>
  <unicode hex="1023"/>
  <note>
i_m
</note>
  <outline>
    <contour>
      <point x="161" y="140" type="curve"/>
      <point x="238" y="256" type="line"/>
      <point x="199" y="303"/>
      <point x="199" y="344"/>
      <point x="199" y="397" type="curve" smooth="yes"/>
      <point x="199" y="476"/>
      <point x="224" y="530"/>
      <point x="270" y="530" type="curve" smooth="yes"/>
      <point x="321" y="530"/>
      <point x="345" y="481"/>
      <point x="345" y="393" type="curve" smooth="yes"/>
      <point x="345" y="258" type="line"/>
      <point x="509" y="258" type="line"/>
      <point x="509" y="393" type="line" smooth="yes"/>
      <point x="509" y="481"/>
      <point x="533" y="530"/>
      <point x="582" y="530" type="curve" smooth="yes"/>
      <point x="629" y="530"/>
      <point x="657" y="476"/>
      <point x="657" y="397" type="curve" smooth="yes"/>
      <point x="657" y="349"/>
      <point x="656" y="303"/>
      <point x="616" y="256" type="curve"/>
      <point x="693" y="140" type="line"/>
      <point x="765" y="184"/>
      <point x="819" y="270"/>
      <point x="819" y="397" type="curve" smooth="yes"/>
      <point x="819" y="547"/>
      <point x="731" y="651"/>
      <point x="588" y="651" type="curve" smooth="yes"/>
      <point x="492" y="651"/>
      <point x="407" y="611"/>
      <point x="380" y="524" type="curve"/>
      <point x="478" y="514" type="line"/>
      <point x="456" y="604"/>
      <point x="371" y="651"/>
      <point x="272" y="651" type="curve" smooth="yes"/>
      <point x="122" y="651"/>
      <point x="35" y="550"/>
      <point x="35" y="397" type="curve" smooth="yes"/>
      <point x="35" y="271"/>
      <point x="87" y="184"/>
    </contour>
    <contour>
      <point x="618" y="-270" type="line"/>
      <point x="760" y="-270" type="line"/>
      <point x="760" y="-177" type="line"/>
      <point x="691" y="-177" type="line"/>
      <point x="704" y="-147"/>
      <point x="711" y="-124"/>
      <point x="711" y="-81" type="curve" smooth="yes"/>
      <point x="711" y="15"/>
      <point x="653" y="107"/>
      <point x="541" y="107" type="curve" smooth="yes"/>
      <point x="474" y="107"/>
      <point x="411" y="72"/>
      <point x="395" y="-8" type="curve"/>
      <point x="456" y="-3" type="line"/>
      <point x="434" y="75"/>
      <point x="375" y="107"/>
      <point x="310" y="107" type="curve" smooth="yes"/>
      <point x="204" y="107"/>
      <point x="139" y="23"/>
      <point x="139" y="-91" type="curve" smooth="yes"/>
      <point x="139" y="-185"/>
      <point x="175" y="-249"/>
      <point x="226" y="-281" type="curve"/>
      <point x="283" y="-189" type="line"/>
      <point x="262" y="-159"/>
      <point x="260" y="-126"/>
      <point x="260" y="-89" type="curve" smooth="yes"/>
      <point x="260" y="-29"/>
      <point x="283" y="10"/>
      <point x="314" y="10" type="curve" smooth="yes"/>
      <point x="350" y="10"/>
      <point x="365" y="-26"/>
      <point x="365" y="-89" type="curve" smooth="yes"/>
      <point x="365" y="-191" type="line"/>
      <point x="485" y="-191" type="line"/>
      <point x="485" y="-88" type="line" smooth="yes"/>
      <point x="485" y="-27"/>
      <point x="501" y="10"/>
      <point x="537" y="10" type="curve" smooth="yes"/>
      <point x="570" y="10"/>
      <point x="591" y="-29"/>
      <point x="591" y="-81" type="curve" smooth="yes"/>
      <point x="591" y="-127"/>
      <point x="587" y="-155"/>
      <point x="568" y="-189" type="curve"/>
    </contour>
  </outline>
</glyph>
<glyph name="ii" format="2">
  <advance width="1124"/>
  <unicode hex="1024"/>
  <note>
ii
</note>
  <outline>
    <contour>
      <point x="229" y="-270" type="curve" smooth="yes"/>
      <point x="639" y="-270" type="line" smooth="yes"/>
      <point x="764" y="-270"/>
      <point x="821" y="-206"/>
      <point x="821" y="-75" type="curve" smooth="yes"/>
      <point x="821" y="409" type="line" smooth="yes"/>
      <point x="821" y="534"/>
      <point x="767" y="651"/>
      <point x="610" y="651" type="curve" smooth="yes"/>
      <point x="540" y="651"/>
      <point x="490" y="625"/>
      <point x="451" y="574" type="curve"/>
      <point x="515" y="475" type="line"/>
      <point x="529" y="516"/>
      <point x="559" y="529"/>
      <point x="590" y="529" type="curve" smooth="yes"/>
      <point x="645" y="529"/>
      <point x="657" y="470"/>
      <point x="657" y="383" type="curve" smooth="yes"/>
      <point x="657" y="-85" type="line" smooth="yes"/>
      <point x="657" y="-126"/>
      <point x="651" y="-149"/>
      <point x="608" y="-149" type="curve" smooth="yes"/>
      <point x="257" y="-149" type="line" smooth="yes"/>
      <point x="220" y="-149"/>
      <point x="200" y="-134"/>
      <point x="200" y="-109" type="curve" smooth="yes"/>
      <point x="200" y="-80"/>
      <point x="227" y="-63"/>
      <point x="334" y="-63" type="curve" smooth="yes"/>
      <point x="411" y="-63"/>
      <point x="475" y="-74"/>
      <point x="541" y="-102" type="curve"/>
      <point x="615" y="-5" type="line"/>
      <point x="524" y="40"/>
      <point x="439" y="60"/>
      <point x="326" y="60" type="curve" smooth="yes"/>
      <point x="118" y="60"/>
      <point x="39" y="-4"/>
      <point x="39" y="-114" type="curve" smooth="yes"/>
      <point x="39" y="-209"/>
      <point x="104" y="-270"/>
    </contour>
    <contour>
      <point x="161" y="140" type="curve"/>
      <point x="236" y="256" type="line"/>
      <point x="199" y="302"/>
      <point x="197" y="344"/>
      <point x="197" y="397" type="curve" smooth="yes"/>
      <point x="197" y="475"/>
      <point x="221" y="530"/>
      <point x="285" y="530" type="curve" smooth="yes"/>
      <point x="341" y="530"/>
      <point x="370" y="478"/>
      <point x="370" y="397" type="curve" smooth="yes"/>
      <point x="370" y="347"/>
      <point x="367" y="302"/>
      <point x="330" y="256" type="curve"/>
      <point x="405" y="140" type="line"/>
      <point x="479" y="184"/>
      <point x="531" y="270"/>
      <point x="531" y="397" type="curve" smooth="yes"/>
      <point x="531" y="550"/>
      <point x="438" y="651"/>
      <point x="283" y="651" type="curve" smooth="yes"/>
      <point x="127" y="651"/>
      <point x="35" y="550"/>
      <point x="35" y="397" type="curve" smooth="yes"/>
      <point x="35" y="271"/>
      <point x="86" y="184"/>
    </contour>
    <contour>
      <point x="915" y="-270" type="line"/>
      <point x="1079" y="-270" type="line"/>
      <point x="1079" y="388" type="line" smooth="yes"/>
      <point x="1079" y="577"/>
      <point x="1036" y="653"/>
      <point x="941" y="777" type="curve" smooth="yes"/>
      <point x="905" y="824"/>
      <point x="887" y="863"/>
      <point x="887" y="893" type="curve" smooth="yes"/>
      <point x="887" y="915"/>
      <point x="896" y="937"/>
      <point x="918" y="937" type="curve" smooth="yes"/>
      <point x="941" y="937"/>
      <point x="952" y="908"/>
      <point x="964" y="865" type="curve"/>
      <point x="1086" y="923" type="line"/>
      <point x="1062" y="1010"/>
      <point x="1003" y="1053"/>
      <point x="903" y="1053" type="curve" smooth="yes"/>
      <point x="799" y="1053"/>
      <point x="730" y="980"/>
      <point x="730" y="887" type="curve" smooth="yes"/>
      <point x="730" y="811"/>
      <point x="765" y="767"/>
      <point x="826" y="678" type="curve" smooth="yes"/>
      <point x="894" y="578"/>
      <point x="915" y="504"/>
      <point x="915" y="388" type="curve" smooth="yes"/>
    </contour>
  </outline>
</glyph>
<glyph name="u_m" format="2">
  <advance width="550"/>
  <unicode hex="1025"/>
  <note>
u_m
</note>
  <outline>
    <contour>
      <point x="223" y="-270" type="curve" smooth="yes"/>
      <point x="325" y="-270" type="line" smooth="yes"/>
      <point x="434" y="-270"/>
      <point x="512" y="-218"/>
      <point x="512" y="-120" type="curve" smooth="yes"/>
      <point x="512" y="-21"/>
      <point x="432" y="24"/>
      <point x="356" y="24" type="curve" smooth="yes"/>
      <point x="294" y="24"/>
      <point x="257" y="9"/>
      <point x="227" y="-13" type="curve"/>
      <point x="280" y="-105" type="line"/>
      <point x="295" y="-94"/>
      <point x="304" y="-90"/>
      <point x="317" y="-90" type="curve" smooth="yes"/>
      <point x="336" y="-90"/>
      <point x="348" y="-104"/>
      <point x="348" y="-117" type="curve" smooth="yes"/>
      <point x="348" y="-137"/>
      <point x="333" y="-150"/>
      <point x="301" y="-150" type="curve" smooth="yes"/>
      <point x="253" y="-150" type="line" smooth="yes"/>
      <point x="219" y="-150"/>
      <point x="209" y="-126"/>
      <point x="209" y="-85" type="curve" smooth="yes"/>
      <point x="209" y="157" type="line"/>
      <point x="45" y="264" type="line"/>
      <point x="45" y="-76" type="line" smooth="yes"/>
      <point x="45" y="-206"/>
      <point x="102" y="-270"/>
    </contour>
    <contour>
      <point x="259" y="141" type="curve" smooth="yes"/>
      <point x="419" y="141"/>
      <point x="515" y="253"/>
      <point x="515" y="396" type="curve" smooth="yes"/>
      <point x="515" y="542"/>
      <point x="424" y="651"/>
      <point x="265" y="651" type="curve" smooth="yes"/>
      <point x="164" y="651"/>
      <point x="97" y="600"/>
      <point x="64" y="537" type="curve"/>
      <point x="169" y="475" type="line"/>
      <point x="192" y="514"/>
      <point x="222" y="530"/>
      <point x="259" y="530" type="curve" smooth="yes"/>
      <point x="315" y="530"/>
      <point x="353" y="475"/>
      <point x="353" y="396" type="curve" smooth="yes"/>
      <point x="353" y="313"/>
      <point x="314" y="262"/>
      <point x="250" y="262" type="curve" smooth="yes"/>
      <point x="210" y="262"/>
      <point x="187" y="285"/>
      <point x="165" y="323" type="curve"/>
      <point x="45" y="264" type="line"/>
      <point x="84" y="193"/>
      <point x="163" y="141"/>
    </contour>
  </outline>
</glyph>
<glyph name="e_m" format="2">
  <advance width="554"/>
  <unicode hex="1027"/>
  <note>
e_m
</note>
  <outline>
    <contour>
      <point x="283" y="140" type="curve" smooth="yes"/>
      <point x="414" y="140"/>
      <point x="519" y="211"/>
      <point x="519" y="325" type="curve"/>
      <point x="454" y="357"/>
      <point x="404" y="377"/>
      <point x="297" y="377" type="curve" smooth="yes"/>
      <point x="248" y="377"/>
      <point x="216" y="368"/>
      <point x="190" y="356" type="curve"/>
      <point x="188" y="369"/>
      <point x="187" y="382"/>
      <point x="187" y="397" type="curve" smooth="yes"/>
      <point x="187" y="409"/>
      <point x="188" y="423"/>
      <point x="190" y="435" type="curve"/>
      <point x="216" y="424"/>
      <point x="248" y="415"/>
      <point x="297" y="415" type="curve" smooth="yes"/>
      <point x="404" y="415"/>
      <point x="454" y="434"/>
      <point x="519" y="467" type="curve"/>
      <point x="519" y="580"/>
      <point x="414" y="651"/>
      <point x="283" y="651" type="curve" smooth="yes"/>
      <point x="138" y="651"/>
      <point x="35" y="552"/>
      <point x="35" y="396" type="curve" smooth="yes"/>
      <point x="35" y="239"/>
      <point x="138" y="140"/>
    </contour>
    <contour>
      <point x="284" y="234" type="curve" smooth="yes"/>
      <point x="242" y="234"/>
      <point x="220" y="254"/>
      <point x="209" y="280" type="curve"/>
      <point x="228" y="292"/>
      <point x="260" y="298"/>
      <point x="279" y="298" type="curve" smooth="yes"/>
      <point x="305" y="298"/>
      <point x="330" y="291"/>
      <point x="351" y="280" type="curve"/>
      <point x="345" y="255"/>
      <point x="320" y="234"/>
    </contour>
    <contour>
      <point x="279" y="494" type="curve" smooth="yes"/>
      <point x="260" y="494"/>
      <point x="228" y="499"/>
      <point x="209" y="512" type="curve"/>
      <point x="220" y="537"/>
      <point x="242" y="558"/>
      <point x="284" y="558" type="curve" smooth="yes"/>
      <point x="320" y="558"/>
      <point x="345" y="536"/>
      <point x="351" y="512" type="curve"/>
      <point x="330" y="500"/>
      <point x="305" y="494"/>
    </contour>
  </outline>
</glyph>
<glyph name="e_mon" format="2">
  <advance width="600"/>
  <unicode hex="1028"/>
  <note>
e_mon
</note>
  <outline>
    <contour>
      <point x="307" y="-270" type="curve" smooth="yes"/>
      <point x="481" y="-270"/>
      <point x="565" y="-177"/>
      <point x="565" y="2" type="curve" smooth="yes"/>
      <point x="565" y="5" type="line"/>
      <point x="401" y="5" type="line"/>
      <point x="401" y="2" type="line" smooth="yes"/>
      <point x="401" y="-104"/>
      <point x="367" y="-149"/>
      <point x="307" y="-149" type="curve" smooth="yes"/>
      <point x="238" y="-149"/>
      <point x="209" y="-100"/>
      <point x="209" y="2" type="curve" smooth="yes"/>
      <point x="209" y="383" type="line" smooth="yes"/>
      <point x="209" y="487"/>
      <point x="243" y="531"/>
      <point x="319" y="531" type="curve" smooth="yes"/>
      <point x="386" y="531"/>
      <point x="424" y="477"/>
      <point x="424" y="380" type="curve" smooth="yes"/>
      <point x="424" y="320"/>
      <point x="406" y="236"/>
      <point x="368" y="236" type="curve" smooth="yes"/>
      <point x="352" y="236"/>
      <point x="346" y="247"/>
      <point x="346" y="261" type="curve" smooth="yes"/>
      <point x="346" y="272"/>
      <point x="352" y="288"/>
      <point x="364" y="304" type="curve" smooth="yes"/>
      <point x="374" y="318"/>
      <point x="400" y="350"/>
      <point x="400" y="387" type="curve" smooth="yes"/>
      <point x="400" y="439"/>
      <point x="365" y="469"/>
      <point x="321" y="469" type="curve" smooth="yes"/>
      <point x="274" y="469"/>
      <point x="243" y="444"/>
      <point x="223" y="423" type="curve"/>
      <point x="267" y="362" type="line"/>
      <point x="278" y="374"/>
      <point x="288" y="379"/>
      <point x="294" y="379" type="curve" smooth="yes"/>
      <point x="300" y="379"/>
      <point x="306" y="376"/>
      <point x="306" y="367" type="curve" smooth="yes"/>
      <point x="306" y="359"/>
      <point x="299" y="351"/>
      <point x="278" y="334" type="curve" smooth="yes"/>
      <point x="250" y="310"/>
      <point x="230" y="283"/>
      <point x="230" y="241" type="curve" smooth="yes"/>
      <point x="230" y="182"/>
      <point x="271" y="140"/>
      <point x="362" y="140" type="curve" smooth="yes"/>
      <point x="478" y="140"/>
      <point x="565" y="232"/>
      <point x="565" y="395" type="curve" smooth="yes"/>
      <point x="565" y="559"/>
      <point x="477" y="652"/>
      <point x="315" y="652" type="curve" smooth="yes"/>
      <point x="137" y="652"/>
      <point x="45" y="559"/>
      <point x="45" y="383" type="curve" smooth="yes"/>
      <point x="45" y="2" type="line" smooth="yes"/>
      <point x="45" y="-173"/>
      <point x="124" y="-270"/>
    </contour>
  </outline>
</glyph>
<glyph name="o_m" format="2">
  <advance width="1123"/>
  <unicode hex="1029"/>
  <note>
o_m
</note>
  <outline>
    <contour>
      <point x="249" y="-270" type="curve" smooth="yes"/>
      <point x="873" y="-270" type="line" smooth="yes"/>
      <point x="1018" y="-270"/>
      <point x="1077" y="-205"/>
      <point x="1077" y="-72" type="curve" smooth="yes"/>
      <point x="1077" y="312" type="line"/>
      <point x="964" y="312" type="line"/>
      <point x="964" y="-84" type="line" smooth="yes"/>
      <point x="964" y="-128"/>
      <point x="959" y="-149"/>
      <point x="921" y="-149" type="curve" smooth="yes"/>
      <point x="254" y="-149" type="line" smooth="yes"/>
      <point x="217" y="-149"/>
      <point x="209" y="-128"/>
      <point x="209" y="-84" type="curve" smooth="yes"/>
      <point x="209" y="865" type="line" smooth="yes"/>
      <point x="209" y="910"/>
      <point x="217" y="931"/>
      <point x="254" y="931" type="curve" smooth="yes"/>
      <point x="921" y="931" type="line" smooth="yes"/>
      <point x="959" y="931"/>
      <point x="964" y="910"/>
      <point x="964" y="865" type="curve" smooth="yes"/>
      <point x="964" y="827" type="line"/>
      <point x="1077" y="827" type="line"/>
      <point x="1077" y="854" type="line" smooth="yes"/>
      <point x="1077" y="987"/>
      <point x="1018" y="1053"/>
      <point x="873" y="1053" type="curve" smooth="yes"/>
      <point x="249" y="1053" type="line" smooth="yes"/>
      <point x="104" y="1053"/>
      <point x="45" y="987"/>
      <point x="45" y="854" type="curve" smooth="yes"/>
      <point x="45" y="-72" type="line" smooth="yes"/>
      <point x="45" y="-205"/>
      <point x="104" y="-270"/>
    </contour>
    <contour>
      <point x="504" y="141" type="curve" smooth="yes"/>
      <point x="654" y="141"/>
      <point x="746" y="244"/>
      <point x="746" y="396" type="curve" smooth="yes"/>
      <point x="746" y="547"/>
      <point x="643" y="651"/>
      <point x="504" y="651" type="curve" smooth="yes"/>
      <point x="402" y="651"/>
      <point x="339" y="596"/>
      <point x="309" y="537" type="curve"/>
      <point x="414" y="475" type="line"/>
      <point x="436" y="509"/>
      <point x="464" y="530"/>
      <point x="503" y="530" type="curve" smooth="yes"/>
      <point x="560" y="530"/>
      <point x="599" y="475"/>
      <point x="599" y="396" type="curve" smooth="yes"/>
      <point x="599" y="321"/>
      <point x="564" y="262"/>
      <point x="501" y="262" type="curve" smooth="yes"/>
      <point x="456" y="262"/>
      <point x="428" y="291"/>
      <point x="409" y="323" type="curve"/>
      <point x="289" y="264" type="line"/>
      <point x="329" y="193"/>
      <point x="408" y="141"/>
    </contour>
    <contour>
      <point x="852" y="140" type="curve" smooth="yes"/>
      <point x="1008" y="140"/>
      <point x="1088" y="247"/>
      <point x="1088" y="396" type="curve" smooth="yes"/>
      <point x="1088" y="531"/>
      <point x="1026" y="651"/>
      <point x="878" y="651" type="curve" smooth="yes"/>
      <point x="851" y="651"/>
      <point x="796" y="642"/>
      <point x="770" y="622" type="curve"/>
      <point x="824" y="511" type="line"/>
      <point x="837" y="518"/>
      <point x="847" y="523"/>
      <point x="862" y="523" type="curve" smooth="yes"/>
      <point x="912" y="523"/>
      <point x="926" y="468"/>
      <point x="926" y="396" type="curve" smooth="yes"/>
      <point x="926" y="312"/>
      <point x="895" y="262"/>
      <point x="837" y="262" type="curve" smooth="yes"/>
      <point x="796" y="262"/>
      <point x="756" y="298"/>
      <point x="732" y="352" type="curve"/>
      <point x="670" y="223" type="line"/>
      <point x="707" y="176"/>
      <point x="777" y="140"/>
    </contour>
  </outline>
</glyph>
<glyph name="_tall_aa" format="2">
  <advance width="254"/>
  <unicode hex="102B"/>
  <note>
_tall_aa
</note>
  <outline>
    <contour>
      <point x="45" y="149" type="line"/>
      <point x="209" y="149" type="line"/>
      <point x="209" y="822" type="line" smooth="yes"/>
      <point x="209" y="964"/>
      <point x="125" y="1053"/>
      <point x="-33" y="1053" type="curve" smooth="yes"/>
      <point x="-191" y="1053"/>
      <point x="-273" y="966"/>
      <point x="-273" y="820" type="curve" smooth="yes"/>
      <point x="-273" y="804" type="line"/>
      <point x="-109" y="804" type="line"/>
      <point x="-109" y="819" type="line" smooth="yes"/>
      <point x="-109" y="904"/>
      <point x="-77" y="931"/>
      <point x="-32" y="931" type="curve" smooth="yes"/>
      <point x="28" y="931"/>
      <point x="45" y="898"/>
      <point x="45" y="823" type="curve" smooth="yes"/>
    </contour>
  </outline>
</glyph>
<glyph name="_aa" format="2">
  <advance width="334"/>
  <unicode hex="102C"/>
  <note>
_aa
</note>
  <outline>
    <contour>
      <point x="100" y="140" type="curve" smooth="yes"/>
      <point x="227" y="140"/>
      <point x="298" y="235"/>
      <point x="298" y="396" type="curve" smooth="yes"/>
      <point x="298" y="551"/>
      <point x="211" y="651"/>
      <point x="66" y="651" type="curve" smooth="yes"/>
      <point x="-14" y="651"/>
      <point x="-74" y="623"/>
      <point x="-125" y="579" type="curve"/>
      <point x="-61" y="478" type="line"/>
      <point x="-30" y="507"/>
      <point x="-1" y="529"/>
      <point x="43" y="529" type="curve" smooth="yes"/>
      <point x="102" y="529"/>
      <point x="137" y="479"/>
      <point x="137" y="389" type="curve" smooth="yes"/>
      <point x="137" y="312"/>
      <point x="116" y="262"/>
      <point x="88" y="262" type="curve" smooth="yes"/>
      <point x="69" y="262"/>
      <point x="59" y="268"/>
      <point x="43" y="275" type="curve"/>
      <point x="-9" y="170" type="line"/>
      <point x="16" y="148"/>
      <point x="73" y="140"/>
    </contour>
  </outline>
</glyph>
<glyph name="_i" format="2">
  <unicode hex="102D"/>
  <note>
_i
</note>
  <outline>
    <contour>
      <point x="-250" y="712" type="curve" smooth="yes"/>
      <point x="-140" y="712"/>
      <point x="-79" y="781"/>
      <point x="-79" y="883" type="curve" smooth="yes"/>
      <point x="-79" y="982"/>
      <point x="-138" y="1053"/>
      <point x="-252" y="1053" type="curve" smooth="yes"/>
      <point x="-366" y="1053"/>
      <point x="-425" y="985"/>
      <point x="-425" y="883" type="curve" smooth="yes"/>
      <point x="-425" y="781"/>
      <point x="-359" y="712"/>
    </contour>
    <contour>
      <point x="-252" y="801" type="curve" smooth="yes"/>
      <point x="-282" y="801"/>
      <point x="-293" y="840"/>
      <point x="-293" y="883" type="curve" smooth="yes"/>
      <point x="-293" y="926"/>
      <point x="-282" y="964"/>
      <point x="-252" y="964" type="curve" smooth="yes"/>
      <point x="-223" y="964"/>
      <point x="-211" y="926"/>
      <point x="-211" y="884" type="curve" smooth="yes"/>
      <point x="-211" y="839"/>
      <point x="-219" y="801"/>
    </contour>
  </outline>
</glyph>
<glyph name="_ii" format="2">
  <unicode hex="102E"/>
  <note>
_ii
</note>
  <outline>
    <contour>
      <point x="-250" y="712" type="curve" smooth="yes"/>
      <point x="-150" y="712"/>
      <point x="-93" y="781"/>
      <point x="-93" y="883" type="curve" smooth="yes"/>
      <point x="-93" y="981"/>
      <point x="-146" y="1053"/>
      <point x="-252" y="1053" type="curve" smooth="yes"/>
      <point x="-358" y="1053"/>
      <point x="-411" y="985"/>
      <point x="-411" y="882" type="curve" smooth="yes"/>
      <point x="-411" y="780"/>
      <point x="-350" y="712"/>
    </contour>
    <contour>
      <point x="-251" y="790" type="curve" smooth="yes"/>
      <point x="-290" y="790"/>
      <point x="-307" y="819"/>
      <point x="-307" y="883" type="curve" smooth="yes"/>
      <point x="-307" y="935"/>
      <point x="-292" y="971"/>
      <point x="-253" y="971" type="curve" smooth="yes"/>
      <point x="-214" y="971"/>
      <point x="-198" y="935"/>
      <point x="-198" y="883" type="curve" smooth="yes"/>
      <point x="-198" y="823"/>
      <point x="-203" y="790"/>
    </contour>
    <contour>
      <point x="-307" y="827" type="line"/>
      <point x="-293" y="839"/>
      <point x="-270" y="847"/>
      <point x="-250" y="847" type="curve" smooth="yes"/>
      <point x="-231" y="847"/>
      <point x="-210" y="839"/>
      <point x="-194" y="828" type="curve"/>
      <point x="-185" y="872" type="line"/>
      <point x="-207" y="888"/>
      <point x="-231" y="894"/>
      <point x="-251" y="894" type="curve" smooth="yes"/>
      <point x="-270" y="894"/>
      <point x="-296" y="888"/>
      <point x="-318" y="872" type="curve"/>
    </contour>
  </outline>
</glyph>
<glyph name="_e" format="2">
  <advance width="573"/>
  <unicode hex="1031"/>
  <note>
_e
</note>
  <outline>
    <contour>
      <point x="294" y="140" type="curve" smooth="yes"/>
      <point x="459" y="140"/>
      <point x="531" y="220"/>
      <point x="538" y="350" type="curve"/>
      <point x="461" y="395"/>
      <point x="398" y="418"/>
      <point x="315" y="418" type="curve" smooth="yes"/>
      <point x="259" y="418"/>
      <point x="227" y="407"/>
      <point x="176" y="385" type="curve"/>
      <point x="191" y="291" type="line"/>
      <point x="226" y="312"/>
      <point x="258" y="325"/>
      <point x="295" y="325" type="curve" smooth="yes"/>
      <point x="330" y="325"/>
      <point x="353" y="316"/>
      <point x="374" y="298" type="curve"/>
      <point x="362" y="278"/>
      <point x="340" y="262"/>
      <point x="306" y="262" type="curve" smooth="yes"/>
      <point x="250" y="262"/>
      <point x="197" y="307"/>
      <point x="197" y="394" type="curve" smooth="yes"/>
      <point x="197" y="485"/>
      <point x="249" y="530"/>
      <point x="323" y="530" type="curve" smooth="yes"/>
      <point x="374" y="530"/>
      <point x="406" y="520"/>
      <point x="473" y="485" type="curve"/>
      <point x="520" y="599" type="line"/>
      <point x="446" y="637"/>
      <point x="394" y="651"/>
      <point x="306" y="651" type="curve" smooth="yes"/>
      <point x="151" y="651"/>
      <point x="35" y="555"/>
      <point x="35" y="394" type="curve" smooth="yes"/>
      <point x="35" y="217"/>
      <point x="167" y="140"/>
    </contour>
  </outline>
</glyph>
<glyph name="_ai" format="2">
  <unicode hex="1032"/>
  <note>
_ai
</note>
  <outline>
    <contour>
      <point x="-194" y="760" type="line"/>
      <point x="-112" y="845" type="line"/>
      <point x="-289" y="1000" type="line"/>
      <point x="-372" y="916" type="line"/>
    </contour>
  </outline>
</glyph>
<glyph name="_ii_mon" format="2">
  <unicode hex="1033"/>
  <note>
_ii_mon
</note>
  <outline>
    <contour>
      <point x="-258" y="711" type="curve" smooth="yes"/>
      <point x="-145" y="711"/>
      <point x="-80" y="783"/>
      <point x="-80" y="881" type="curve" smooth="yes"/>
      <point x="-80" y="978"/>
      <point x="-153" y="1053"/>
      <point x="-258" y="1053" type="curve" smooth="yes"/>
      <point x="-363" y="1053"/>
      <point x="-435" y="981"/>
      <point x="-435" y="881" type="curve" smooth="yes"/>
      <point x="-435" y="782"/>
      <point x="-371" y="711"/>
    </contour>
    <contour>
      <point x="-258" y="766" type="curve" smooth="yes"/>
      <point x="-331" y="766"/>
      <point x="-369" y="814"/>
      <point x="-369" y="881" type="curve" smooth="yes"/>
      <point x="-369" y="951"/>
      <point x="-323" y="997"/>
      <point x="-258" y="997" type="curve" smooth="yes"/>
      <point x="-193" y="997"/>
      <point x="-146" y="951"/>
      <point x="-146" y="881" type="curve" smooth="yes"/>
      <point x="-146" y="817"/>
      <point x="-186" y="766"/>
    </contour>
    <contour>
      <point x="-258" y="801" type="curve" smooth="yes"/>
      <point x="-210" y="801"/>
      <point x="-186" y="832"/>
      <point x="-186" y="881" type="curve" smooth="yes"/>
      <point x="-186" y="926"/>
      <point x="-211" y="962"/>
      <point x="-258" y="962" type="curve" smooth="yes"/>
      <point x="-305" y="962"/>
      <point x="-329" y="928"/>
      <point x="-329" y="881" type="curve" smooth="yes"/>
      <point x="-329" y="835"/>
      <point x="-306" y="801"/>
    </contour>
    <contour>
      <point x="-258" y="846" type="curve" smooth="yes"/>
      <point x="-277" y="846"/>
      <point x="-287" y="862"/>
      <point x="-287" y="881" type="curve" smooth="yes"/>
      <point x="-287" y="903"/>
      <point x="-277" y="917"/>
      <point x="-258" y="917" type="curve" smooth="yes"/>
      <point x="-242" y="917"/>
      <point x="-229" y="903"/>
      <point x="-229" y="881" type="curve" smooth="yes"/>
      <point x="-229" y="862"/>
      <point x="-241" y="846"/>
    </contour>
  </outline>
</glyph>
<glyph name="_o_mon" format="2">
  <unicode hex="1034"/>
  <note>
_o_mon
</note>
  <outline>
    <contour>
      <point x="-329" y="731" type="line"/>
      <point x="-139" y="892" type="line"/>
      <point x="-217" y="981" type="line"/>
      <point x="-407" y="819" type="line"/>
    </contour>
  </outline>
</glyph>
<glyph name="_e_above" format="2">
  <unicode hex="1035"/>
  <note>
_e_above
</note>
  <outline>
    <contour>
      <point x="-225" y="712" type="curve" smooth="yes"/>
      <point x="-153" y="712"/>
      <point x="-93" y="753"/>
      <point x="-73" y="826" type="curve"/>
      <point x="-107" y="864"/>
      <point x="-159" y="894"/>
      <point x="-219" y="894" type="curve" smooth="yes"/>
      <point x="-244" y="894"/>
      <point x="-276" y="883"/>
      <point x="-291" y="871" type="curve"/>
      <point x="-276" y="816" type="line"/>
      <point x="-262" y="834"/>
      <point x="-244" y="844"/>
      <point x="-223" y="844" type="curve" smooth="yes"/>
      <point x="-206" y="844"/>
      <point x="-191" y="837"/>
      <point x="-179" y="825" type="curve"/>
      <point x="-185" y="804"/>
      <point x="-201" y="790"/>
      <point x="-222" y="790" type="curve" smooth="yes"/>
      <point x="-266" y="790"/>
      <point x="-277" y="820"/>
      <point x="-277" y="882" type="curve" smooth="yes"/>
      <point x="-277" y="934"/>
      <point x="-259" y="971"/>
      <point x="-220" y="971" type="curve" smooth="yes"/>
      <point x="-195" y="971"/>
      <point x="-176" y="953"/>
      <point x="-167" y="921" type="curve"/>
      <point x="-83" y="959" type="line"/>
      <point x="-105" y="1015"/>
      <point x="-145" y="1053"/>
      <point x="-225" y="1053" type="curve" smooth="yes"/>
      <point x="-325" y="1053"/>
      <point x="-381" y="976"/>
      <point x="-381" y="882" type="curve" smooth="yes"/>
      <point x="-381" y="783"/>
      <point x="-317" y="712"/>
    </contour>
  </outline>
</glyph>
<glyph name="anusvara" format="2">
  <unicode hex="1036"/>
  <note>
anusvara
</note>
  <outline>
    <contour>
      <point x="-257" y="701" type="curve" smooth="yes"/>
      <point x="-189" y="701"/>
      <point x="-142" y="740"/>
      <point x="-142" y="811" type="curve" smooth="yes"/>
      <point x="-142" y="872"/>
      <point x="-188" y="919"/>
      <point x="-257" y="919" type="curve" smooth="yes"/>
      <point x="-324" y="919"/>
      <point x="-369" y="877"/>
      <point x="-369" y="810" type="curve" smooth="yes"/>
      <point x="-369" y="740"/>
      <point x="-324" y="701"/>
    </contour>
    <contour>
      <point x="-255" y="772" type="curve" smooth="yes"/>
      <point x="-272" y="772"/>
      <point x="-280" y="787"/>
      <point x="-280" y="810" type="curve" smooth="yes"/>
      <point x="-280" y="834"/>
      <point x="-268" y="847"/>
      <point x="-255" y="847" type="curve" smooth="yes"/>
      <point x="-241" y="847"/>
      <point x="-230" y="834"/>
      <point x="-230" y="810" type="curve" smooth="yes"/>
      <point x="-230" y="787"/>
      <point x="-241" y="772"/>
    </contour>
  </outline>
</glyph>
<glyph name="dot_below" format="2">
  <unicode hex="1037"/>
  <note>
dot_below
</note>
  <outline>
    <contour>
      <point x="-272" y="-126" type="curve" smooth="yes"/>
      <point x="-204" y="-126"/>
      <point x="-157" y="-87"/>
      <point x="-157" y="-16" type="curve" smooth="yes"/>
      <point x="-157" y="46"/>
      <point x="-203" y="91"/>
      <point x="-272" y="91" type="curve" smooth="yes"/>
      <point x="-340" y="91"/>
      <point x="-384" y="50"/>
      <point x="-384" y="-17" type="curve" smooth="yes"/>
      <point x="-384" y="-86"/>
      <point x="-339" y="-126"/>
    </contour>
    <contour>
      <point x="-270" y="-54" type="curve" smooth="yes"/>
      <point x="-287" y="-54"/>
      <point x="-295" y="-39"/>
      <point x="-295" y="-17" type="curve" smooth="yes"/>
      <point x="-295" y="8"/>
      <point x="-284" y="20"/>
      <point x="-270" y="20" type="curve" smooth="yes"/>
      <point x="-256" y="20"/>
      <point x="-245" y="8"/>
      <point x="-245" y="-17" type="curve" smooth="yes"/>
      <point x="-245" y="-39"/>
      <point x="-256" y="-54"/>
    </contour>
  </outline>
</glyph>
<glyph name="visarga" format="2">
  <advance width="325"/>
  <unicode hex="1038"/>
  <note>
visarga
</note>
  <outline>
    <contour>
      <point x="161" y="415" type="curve" smooth="yes"/>
      <point x="229" y="415"/>
      <point x="276" y="454"/>
      <point x="276" y="525" type="curve" smooth="yes"/>
      <point x="276" y="587"/>
      <point x="231" y="633"/>
      <point x="161" y="633" type="curve" smooth="yes"/>
      <point x="92" y="633"/>
      <point x="49" y="592"/>
      <point x="49" y="524" type="curve" smooth="yes"/>
      <point x="49" y="455"/>
      <point x="94" y="415"/>
    </contour>
    <contour>
      <point x="161" y="141" type="curve" smooth="yes"/>
      <point x="229" y="141"/>
      <point x="276" y="181"/>
      <point x="276" y="252" type="curve" smooth="yes"/>
      <point x="276" y="313"/>
      <point x="231" y="359"/>
      <point x="161" y="359" type="curve" smooth="yes"/>
      <point x="92" y="359"/>
      <point x="49" y="317"/>
      <point x="49" y="251" type="curve" smooth="yes"/>
      <point x="49" y="181"/>
      <point x="94" y="141"/>
    </contour>
    <contour>
      <point x="163" y="213" type="curve" smooth="yes"/>
      <point x="146" y="213"/>
      <point x="138" y="227"/>
      <point x="138" y="250" type="curve" smooth="yes"/>
      <point x="138" y="274"/>
      <point x="149" y="287"/>
      <point x="163" y="287" type="curve" smooth="yes"/>
      <point x="177" y="287"/>
      <point x="188" y="275"/>
      <point x="188" y="251" type="curve" smooth="yes"/>
      <point x="188" y="227"/>
      <point x="177" y="213"/>
    </contour>
    <contour>
      <point x="163" y="487" type="curve" smooth="yes"/>
      <point x="146" y="487"/>
      <point x="138" y="502"/>
      <point x="138" y="524" type="curve" smooth="yes"/>
      <point x="138" y="549"/>
      <point x="149" y="561"/>
      <point x="163" y="561" type="curve" smooth="yes"/>
      <point x="177" y="561"/>
      <point x="188" y="550"/>
      <point x="188" y="524" type="curve" smooth="yes"/>
      <point x="188" y="503"/>
      <point x="177" y="487"/>
    </contour>
  </outline>
</glyph>
<glyph name="virama" format="2">
  <unicode hex="1039"/>
  <note>
virama
</note>
  <outline>
    <contour>
      <point x="-309" y="-248" type="line"/>
      <point x="-185" y="-248" type="line"/>
      <point x="-185" y="-140" type="line"/>
      <point x="-96" y="-140" type="line"/>
      <point x="-96" y="-46" type="line"/>
      <point x="-185" y="-46" type="line"/>
      <point x="-185" y="61" type="line"/>
      <point x="-309" y="61" type="line"/>
      <point x="-309" y="-46" type="line"/>
      <point x="-398" y="-46" type="line"/>
      <point x="-398" y="-140" type="line"/>
      <point x="-309" y="-140" type="line"/>
    </contour>
  </outline>
</glyph>
<glyph name="asat" format="2">
  <unicode hex="103A"/>
  <note>
asat
</note>
  <outline>
    <contour>
      <point x="-308" y="712" type="curve"/>
      <point x="-226" y="779" type="line"/>
      <point x="-243" y="799"/>
      <point x="-289" y="836"/>
      <point x="-289" y="902" type="curve" smooth="yes"/>
      <point x="-289" y="939"/>
      <point x="-270" y="963"/>
      <point x="-245" y="963" type="curve" smooth="yes"/>
      <point x="-220" y="963"/>
      <point x="-206" y="943"/>
      <point x="-200" y="930" type="curve"/>
      <point x="-114" y="977" type="line"/>
      <point x="-140" y="1024"/>
      <point x="-184" y="1053"/>
      <point x="-256" y="1053" type="curve" smooth="yes"/>
      <point x="-345" y="1053"/>
      <point x="-410" y="996"/>
      <point x="-410" y="902" type="curve" smooth="yes"/>
      <point x="-410" y="821"/>
      <point x="-375" y="769"/>
    </contour>
  </outline>
</glyph>
<glyph name="medial_ya" format="2">
  <advance width="254"/>
  <unicode hex="103B"/>
  <note>
medial_ya
</note>
  <outline>
    <contour>
      <point x="209" y="-270" type="line"/>
      <point x="209" y="642" type="line"/>
      <point x="45" y="642" type="line"/>
      <point x="45" y="-98" type="line"/>
      <point x="-85" y="-59" type="line"/>
      <point x="-85" y="318" type="line"/>
      <point x="-209" y="318" type="line"/>
      <point x="-209" y="-144" type="line"/>
    </contour>
  </outline>
</glyph>
<glyph name="medial_ra" format="2">
  <advance width="254"/>
  <unicode hex="103C"/>
  <note>
medial_ra
</note>
  <outline>
    <contour>
      <point x="249" y="-270" type="curve" smooth="yes"/>
      <point x="571" y="-270" type="line" smooth="yes"/>
      <point x="716" y="-270"/>
      <point x="775" y="-205"/>
      <point x="775" y="-72" type="curve" smooth="yes"/>
      <point x="775" y="312" type="line"/>
      <point x="661" y="312" type="line"/>
      <point x="661" y="-84" type="line" smooth="yes"/>
      <point x="661" y="-128"/>
      <point x="656" y="-149"/>
      <point x="618" y="-149" type="curve" smooth="yes"/>
      <point x="254" y="-149" type="line" smooth="yes"/>
      <point x="217" y="-149"/>
      <point x="209" y="-128"/>
      <point x="209" y="-84" type="curve" smooth="yes"/>
      <point x="209" y="865" type="line" smooth="yes"/>
      <point x="209" y="910"/>
      <point x="217" y="931"/>
      <point x="254" y="931" type="curve" smooth="yes"/>
      <point x="618" y="931" type="line" smooth="yes"/>
      <point x="656" y="931"/>
      <point x="661" y="910"/>
      <point x="661" y="865" type="curve" smooth="yes"/>
      <point x="661" y="827" type="line"/>
      <point x="775" y="827" type="line"/>
      <point x="775" y="854" type="line" smooth="yes"/>
      <point x="775" y="987"/>
      <point x="716" y="1053"/>
      <point x="571" y="1053" type="curve" smooth="yes"/>
      <point x="249" y="1053" type="line" smooth="yes"/>
      <point x="104" y="1053"/>
      <point x="45" y="987"/>
      <point x="45" y="854" type="curve" smooth="yes"/>
      <point x="45" y="-72" type="line" smooth="yes"/>
      <point x="45" y="-205"/>
      <point x="104" y="-270"/>
    </contour>
  </outline>
</glyph>
<glyph name="medial_wa" format="2">
  <unicode hex="103D"/>
  <note>
medial_wa
</note>
  <outline>
    <contour>
      <point x="-256" y="-251" type="curve" smooth="yes"/>
      <point x="-138" y="-251"/>
      <point x="-77" y="-175"/>
      <point x="-77" y="-72" type="curve" smooth="yes"/>
      <point x="-77" y="32"/>
      <point x="-139" y="107"/>
      <point x="-252" y="107" type="curve" smooth="yes"/>
      <point x="-364" y="107"/>
      <point x="-427" y="33"/>
      <point x="-427" y="-72" type="curve" smooth="yes"/>
      <point x="-427" y="-179"/>
      <point x="-360" y="-251"/>
    </contour>
    <contour>
      <point x="-252" y="-161" type="curve" smooth="yes"/>
      <point x="-290" y="-161"/>
      <point x="-306" y="-123"/>
      <point x="-306" y="-72" type="curve" smooth="yes"/>
      <point x="-306" y="-15"/>
      <point x="-288" y="18"/>
      <point x="-251" y="18" type="curve" smooth="yes"/>
      <point x="-216" y="18"/>
      <point x="-197" y="-18"/>
      <point x="-197" y="-71" type="curve" smooth="yes"/>
      <point x="-197" y="-123"/>
      <point x="-214" y="-161"/>
    </contour>
  </outline>
</glyph>
<glyph name="great_sa" format="2">
  <advance width="1196"/>
  <unicode hex="103F"/>
  <note>
great_sa
</note>
  <outline>
    <contour>
      <point x="250" y="141" type="curve" smooth="yes"/>
      <point x="400" y="141"/>
      <point x="492" y="244"/>
      <point x="492" y="396" type="curve" smooth="yes"/>
      <point x="492" y="547"/>
      <point x="389" y="651"/>
      <point x="250" y="651" type="curve" smooth="yes"/>
      <point x="148" y="651"/>
      <point x="85" y="596"/>
      <point x="55" y="537" type="curve"/>
      <point x="160" y="475" type="line"/>
      <point x="182" y="509"/>
      <point x="210" y="530"/>
      <point x="249" y="530" type="curve" smooth="yes"/>
      <point x="306" y="530"/>
      <point x="345" y="475"/>
      <point x="345" y="396" type="curve" smooth="yes"/>
      <point x="345" y="321"/>
      <point x="310" y="262"/>
      <point x="247" y="262" type="curve" smooth="yes"/>
      <point x="202" y="262"/>
      <point x="174" y="291"/>
      <point x="155" y="323" type="curve"/>
      <point x="35" y="264" type="line"/>
      <point x="75" y="193"/>
      <point x="154" y="141"/>
    </contour>
    <contour>
      <point x="598" y="140" type="curve" smooth="yes"/>
      <point x="744" y="140"/>
      <point x="819" y="247"/>
      <point x="819" y="396" type="curve" smooth="yes"/>
      <point x="819" y="531"/>
      <point x="761" y="651"/>
      <point x="624" y="651" type="curve" smooth="yes"/>
      <point x="597" y="651"/>
      <point x="542" y="642"/>
      <point x="516" y="622" type="curve"/>
      <point x="570" y="511" type="line"/>
      <point x="583" y="518"/>
      <point x="593" y="523"/>
      <point x="608" y="523" type="curve" smooth="yes"/>
      <point x="658" y="523"/>
      <point x="672" y="468"/>
      <point x="672" y="396" type="curve" smooth="yes"/>
      <point x="672" y="312"/>
      <point x="641" y="262"/>
      <point x="583" y="262" type="curve" smooth="yes"/>
      <point x="542" y="262"/>
      <point x="502" y="298"/>
      <point x="478" y="352" type="curve"/>
      <point x="416" y="223" type="line"/>
      <point x="453" y="176"/>
      <point x="523" y="140"/>
    </contour>
    <contour>
      <point x="925" y="140" type="curve" smooth="yes"/>
      <point x="1081" y="140"/>
      <point x="1161" y="247"/>
      <point x="1161" y="396" type="curve" smooth="yes"/>
      <point x="1161" y="531"/>
      <point x="1099" y="651"/>
      <point x="951" y="651" type="curve" smooth="yes"/>
      <point x="924" y="651"/>
      <point x="869" y="642"/>
      <point x="843" y="622" type="curve"/>
      <point x="897" y="511" type="line"/>
      <point x="910" y="518"/>
      <point x="920" y="523"/>
      <point x="935" y="523" type="curve" smooth="yes"/>
      <point x="985" y="523"/>
      <point x="999" y="468"/>
      <point x="999" y="396" type="curve" smooth="yes"/>
      <point x="999" y="312"/>
      <point x="968" y="262"/>
      <point x="910" y="262" type="curve" smooth="yes"/>
      <point x="869" y="262"/>
      <point x="829" y="298"/>
      <point x="805" y="352" type="curve"/>
      <point x="743" y="223" type="line"/>
      <point x="780" y="176"/>
      <point x="850" y="140"/>
    </contour>
  </outline>
</glyph>
<glyph name="one_m" format="2">
  <advance width="540"/>
  <unicode hex="1041"/>
  <note>
one_m
</note>
  <outline>
    <contour>
      <point x="249" y="141" type="curve" smooth="yes"/>
      <point x="409" y="141"/>
      <point x="505" y="253"/>
      <point x="505" y="396" type="curve" smooth="yes"/>
      <point x="505" y="542"/>
      <point x="414" y="651"/>
      <point x="255" y="651" type="curve" smooth="yes"/>
      <point x="154" y="651"/>
      <point x="87" y="600"/>
      <point x="54" y="537" type="curve"/>
      <point x="159" y="475" type="line"/>
      <point x="182" y="514"/>
      <point x="212" y="530"/>
      <point x="249" y="530" type="curve" smooth="yes"/>
      <point x="305" y="530"/>
      <point x="343" y="475"/>
      <point x="343" y="396" type="curve" smooth="yes"/>
      <point x="343" y="313"/>
      <point x="304" y="262"/>
      <point x="240" y="262" type="curve" smooth="yes"/>
      <point x="200" y="262"/>
      <point x="177" y="285"/>
      <point x="155" y="323" type="curve"/>
      <point x="35" y="264" type="line"/>
      <point x="74" y="193"/>
      <point x="153" y="141"/>
    </contour>
  </outline>
</glyph>
<glyph name="two_m" format="2">
  <advance width="602"/>
  <unicode hex="1042"/>
  <note>
two_m
</note>
  <outline>
    <contour>
      <point x="295" y="-270" type="curve" smooth="yes"/>
      <point x="478" y="-270"/>
      <point x="557" y="-173"/>
      <point x="557" y="2" type="curve" smooth="yes"/>
      <point x="557" y="642" type="line"/>
      <point x="393" y="642" type="line"/>
      <point x="393" y="2" type="line" smooth="yes"/>
      <point x="393" y="-100"/>
      <point x="364" y="-149"/>
      <point x="295" y="-149" type="curve" smooth="yes"/>
      <point x="235" y="-149"/>
      <point x="201" y="-104"/>
      <point x="201" y="2" type="curve" smooth="yes"/>
      <point x="201" y="5" type="line"/>
      <point x="37" y="5" type="line"/>
      <point x="37" y="2" type="line" smooth="yes"/>
      <point x="37" y="-177"/>
      <point x="121" y="-270"/>
    </contour>
  </outline>
</glyph>
<glyph name="three_m" format="2">
  <advance width="544"/>
  <unicode hex="1043"/>
  <note>
three_m
</note>
  <outline>
    <contour>
      <point x="278" y="-270" type="line"/>
      <point x="439" y="-270" type="line"/>
      <point x="310" y="7" type="line" smooth="yes"/>
      <point x="285" y="60"/>
      <point x="266" y="107"/>
      <point x="228" y="160" type="curve"/>
      <point x="223" y="144" type="line"/>
      <point x="229" y="141"/>
      <point x="242" y="141"/>
      <point x="253" y="141" type="curve" smooth="yes"/>
      <point x="413" y="141"/>
      <point x="509" y="253"/>
      <point x="509" y="396" type="curve" smooth="yes"/>
      <point x="509" y="542"/>
      <point x="418" y="651"/>
      <point x="259" y="651" type="curve" smooth="yes"/>
      <point x="158" y="651"/>
      <point x="91" y="600"/>
      <point x="58" y="537" type="curve"/>
      <point x="163" y="475" type="line"/>
      <point x="186" y="514"/>
      <point x="216" y="530"/>
      <point x="253" y="530" type="curve" smooth="yes"/>
      <point x="309" y="530"/>
      <point x="347" y="475"/>
      <point x="347" y="396" type="curve" smooth="yes"/>
      <point x="347" y="313"/>
      <point x="308" y="262"/>
      <point x="244" y="262" type="curve" smooth="yes"/>
      <point x="204" y="262"/>
      <point x="181" y="285"/>
      <point x="159" y="323" type="curve"/>
      <point x="35" y="262" type="line"/>
    </contour>
  </outline>
</glyph>
<glyph name="four_m" format="2">
  <advance width="544"/>
  <unicode hex="1044"/>
  <note>
four_m
</note>
  <outline>
    <contour>
      <point x="105" y="-270" type="line"/>
      <point x="266" y="-270" type="line"/>
      <point x="509" y="262" type="line"/>
      <point x="385" y="323" type="line"/>
      <point x="363" y="285"/>
      <point x="340" y="262"/>
      <point x="300" y="262" type="curve" smooth="yes"/>
      <point x="236" y="262"/>
      <point x="197" y="313"/>
      <point x="197" y="396" type="curve" smooth="yes"/>
      <point x="197" y="475"/>
      <point x="235" y="530"/>
      <point x="291" y="530" type="curve" smooth="yes"/>
      <point x="328" y="530"/>
      <point x="358" y="514"/>
      <point x="381" y="475" type="curve"/>
      <point x="486" y="537" type="line"/>
      <point x="453" y="600"/>
      <point x="386" y="651"/>
      <point x="285" y="651" type="curve" smooth="yes"/>
      <point x="126" y="651"/>
      <point x="35" y="542"/>
      <point x="35" y="396" type="curve" smooth="yes"/>
      <point x="35" y="253"/>
      <point x="131" y="141"/>
      <point x="291" y="141" type="curve" smooth="yes"/>
      <point x="302" y="141"/>
      <point x="315" y="141"/>
      <point x="321" y="144" type="curve"/>
      <point x="316" y="160" type="line"/>
      <point x="278" y="107"/>
      <point x="259" y="60"/>
      <point x="234" y="7" type="curve" smooth="yes"/>
    </contour>
  </outline>
</glyph>
<glyph name="five_m" format="2">
  <advance width="619"/>
  <unicode hex="1045"/>
  <note>
five_m
</note>
  <outline>
    <contour>
      <point x="302" y="-270" type="curve" smooth="yes"/>
      <point x="492" y="-270"/>
      <point x="574" y="-172"/>
      <point x="574" y="3" type="curve" smooth="yes"/>
      <point x="574" y="381" type="line" smooth="yes"/>
      <point x="574" y="559"/>
      <point x="489" y="652"/>
      <point x="317" y="652" type="curve" smooth="yes"/>
      <point x="152" y="652"/>
      <point x="55" y="558"/>
      <point x="55" y="401" type="curve" smooth="yes"/>
      <point x="55" y="303"/>
      <point x="113" y="237"/>
      <point x="209" y="237" type="curve" smooth="yes"/>
      <point x="299" y="237"/>
      <point x="346" y="300"/>
      <point x="346" y="381" type="curve" smooth="yes"/>
      <point x="346" y="466"/>
      <point x="304" y="506"/>
      <point x="252" y="506" type="curve" smooth="yes"/>
      <point x="243" y="506"/>
      <point x="235" y="505"/>
      <point x="225" y="502" type="curve"/>
      <point x="237" y="523"/>
      <point x="263" y="535"/>
      <point x="302" y="535" type="curve" smooth="yes"/>
      <point x="380" y="535"/>
      <point x="410" y="483"/>
      <point x="410" y="375" type="curve" smooth="yes"/>
      <point x="410" y="2" type="line" smooth="yes"/>
      <point x="410" y="-100"/>
      <point x="378" y="-149"/>
      <point x="302" y="-149" type="curve" smooth="yes"/>
      <point x="236" y="-149"/>
      <point x="199" y="-104"/>
      <point x="199" y="2" type="curve" smooth="yes"/>
      <point x="199" y="5" type="line"/>
      <point x="35" y="5" type="line"/>
      <point x="35" y="2" type="line" smooth="yes"/>
      <point x="35" y="-177"/>
      <point x="122" y="-270"/>
    </contour>
    <contour>
      <point x="209" y="334" type="curve" smooth="yes"/>
      <point x="193" y="334"/>
      <point x="181" y="348"/>
      <point x="181" y="376" type="curve" smooth="yes"/>
      <point x="181" y="400"/>
      <point x="191" y="419"/>
      <point x="209" y="419" type="curve" smooth="yes"/>
      <point x="229" y="419"/>
      <point x="241" y="404"/>
      <point x="241" y="376" type="curve" smooth="yes"/>
      <point x="241" y="352"/>
      <point x="234" y="334"/>
    </contour>
  </outline>
</glyph>
<glyph name="six_m" format="2">
  <advance width="619"/>
  <unicode hex="1046"/>
  <note>
six_m
</note>
  <outline>
    <contour>
      <point x="321" y="139" type="curve" smooth="yes"/>
      <point x="475" y="139"/>
      <point x="580" y="228"/>
      <point x="580" y="370" type="curve" smooth="yes"/>
      <point x="580" y="443"/>
      <point x="540" y="499"/>
      <point x="471" y="499" type="curve" smooth="yes"/>
      <point x="435" y="499"/>
      <point x="418" y="487"/>
      <point x="399" y="487" type="curve" smooth="yes"/>
      <point x="380" y="487"/>
      <point x="372" y="500"/>
      <point x="372" y="520" type="curve" smooth="yes"/>
      <point x="372" y="539"/>
      <point x="380" y="550"/>
      <point x="393" y="550" type="curve" smooth="yes"/>
      <point x="405" y="550"/>
      <point x="411" y="542"/>
      <point x="420" y="530" type="curve"/>
      <point x="494" y="592" type="line"/>
      <point x="466" y="630"/>
      <point x="435" y="652"/>
      <point x="379" y="652" type="curve" smooth="yes"/>
      <point x="296" y="652"/>
      <point x="248" y="599"/>
      <point x="248" y="518" type="curve" smooth="yes"/>
      <point x="248" y="438"/>
      <point x="298" y="388"/>
      <point x="357" y="388" type="curve" smooth="yes"/>
      <point x="394" y="388"/>
      <point x="403" y="397"/>
      <point x="418" y="397" type="curve" smooth="yes"/>
      <point x="429" y="397"/>
      <point x="435" y="385"/>
      <point x="435" y="370" type="curve" smooth="yes"/>
      <point x="435" y="307"/>
      <point x="391" y="256"/>
      <point x="320" y="256" type="curve" smooth="yes"/>
      <point x="239" y="256"/>
      <point x="209" y="308"/>
      <point x="209" y="416" type="curve" smooth="yes"/>
      <point x="209" y="781" type="line" smooth="yes"/>
      <point x="209" y="883"/>
      <point x="241" y="932"/>
      <point x="317" y="932" type="curve" smooth="yes"/>
      <point x="383" y="932"/>
      <point x="420" y="887"/>
      <point x="420" y="781" type="curve" smooth="yes"/>
      <point x="420" y="778" type="line"/>
      <point x="584" y="778" type="line"/>
      <point x="584" y="782" type="line" smooth="yes"/>
      <point x="584" y="960"/>
      <point x="497" y="1053"/>
      <point x="317" y="1053" type="curve" smooth="yes"/>
      <point x="127" y="1053"/>
      <point x="45" y="955"/>
      <point x="45" y="780" type="curve" smooth="yes"/>
      <point x="45" y="410" type="line" smooth="yes"/>
      <point x="45" y="233"/>
      <point x="137" y="139"/>
    </contour>
  </outline>
</glyph>
<glyph name="seven_m" format="2">
  <advance width="524"/>
  <unicode hex="1047"/>
  <note>
seven_m
</note>
  <outline>
    <contour>
      <point x="286" y="-270" type="curve" smooth="yes"/>
      <point x="368" y="-270"/>
      <point x="433" y="-232"/>
      <point x="471" y="-154" type="curve"/>
      <point x="353" y="-83" type="line"/>
      <point x="327" y="-127"/>
      <point x="312" y="-150"/>
      <point x="290" y="-150" type="curve" smooth="yes"/>
      <point x="274" y="-150"/>
      <point x="263" y="-140"/>
      <point x="263" y="-121" type="curve" smooth="yes"/>
      <point x="263" y="-60"/>
      <point x="329" y="8"/>
      <point x="388" y="107" type="curve" smooth="yes"/>
      <point x="474" y="250"/>
      <point x="489" y="331"/>
      <point x="489" y="401" type="curve" smooth="yes"/>
      <point x="489" y="551"/>
      <point x="414" y="651"/>
      <point x="266" y="651" type="curve" smooth="yes"/>
      <point x="112" y="651"/>
      <point x="35" y="525"/>
      <point x="35" y="401" type="curve" smooth="yes"/>
      <point x="35" y="243"/>
      <point x="106" y="176"/>
      <point x="151" y="151" type="curve"/>
      <point x="236" y="259" type="line"/>
      <point x="220" y="274"/>
      <point x="199" y="308"/>
      <point x="199" y="401" type="curve" smooth="yes"/>
      <point x="199" y="479"/>
      <point x="221" y="534"/>
      <point x="266" y="534" type="curve" smooth="yes"/>
      <point x="308" y="534"/>
      <point x="325" y="480"/>
      <point x="325" y="409" type="curve" smooth="yes"/>
      <point x="325" y="343"/>
      <point x="312" y="280"/>
      <point x="250" y="183" type="curve" smooth="yes"/>
      <point x="167" y="52"/>
      <point x="105" y="-8"/>
      <point x="105" y="-114" type="curve" smooth="yes"/>
      <point x="105" y="-209"/>
      <point x="184" y="-270"/>
    </contour>
  </outline>
</glyph>
<glyph name="eight_m" format="2">
  <advance width="566"/>
  <unicode hex="1048"/>
  <note>
eight_m
</note>
  <outline>
    <contour>
      <point x="200" y="140" type="curve"/>
      <point x="255" y="206"/>
      <point x="302" y="279"/>
      <point x="302" y="391" type="curve" smooth="yes"/>
      <point x="302" y="442"/>
      <point x="299" y="482"/>
      <point x="283" y="550" type="curve"/>
      <point x="209" y="511" type="line"/>
      <point x="218" y="472"/>
      <point x="226" y="431"/>
      <point x="226" y="391" type="curve" smooth="yes"/>
      <point x="226" y="336"/>
      <point x="223" y="307"/>
      <point x="212" y="277" type="curve"/>
      <point x="183" y="314"/>
      <point x="176" y="348"/>
      <point x="176" y="391" type="curve" smooth="yes"/>
      <point x="176" y="465"/>
      <point x="231" y="530"/>
      <point x="285" y="530" type="curve" smooth="yes"/>
      <point x="340" y="530"/>
      <point x="370" y="482"/>
      <point x="370" y="397" type="curve" smooth="yes"/>
      <point x="370" y="348"/>
      <point x="369" y="303"/>
      <point x="330" y="256" type="curve"/>
      <point x="405" y="140" type="line"/>
      <point x="477" y="184"/>
      <point x="531" y="270"/>
      <point x="531" y="397" type="curve" smooth="yes"/>
      <point x="531" y="549"/>
      <point x="438" y="651"/>
      <point x="287" y="651" type="curve" smooth="yes"/>
      <point x="126" y="651"/>
      <point x="35" y="550"/>
      <point x="35" y="397" type="curve" smooth="yes"/>
      <point x="35" y="276"/>
      <point x="102" y="181"/>
    </contour>
  </outline>
</glyph>
<glyph name="nine_m" format="2">
  <advance width="619"/>
  <unicode hex="1049"/>
  <note>
nine_m
</note>
  <outline>
    <contour>
      <point x="317" y="-270" type="curve" smooth="yes"/>
      <point x="497" y="-270"/>
      <point x="584" y="-177"/>
      <point x="584" y="2" type="curve" smooth="yes"/>
      <point x="584" y="5" type="line"/>
      <point x="420" y="5" type="line"/>
      <point x="420" y="2" type="line" smooth="yes"/>
      <point x="420" y="-104"/>
      <point x="383" y="-149"/>
      <point x="317" y="-149" type="curve" smooth="yes"/>
      <point x="241" y="-149"/>
      <point x="209" y="-100"/>
      <point x="209" y="2" type="curve" smooth="yes"/>
      <point x="209" y="375" type="line" smooth="yes"/>
      <point x="209" y="483"/>
      <point x="239" y="535"/>
      <point x="320" y="535" type="curve" smooth="yes"/>
      <point x="391" y="535"/>
      <point x="435" y="485"/>
      <point x="435" y="422" type="curve" smooth="yes"/>
      <point x="435" y="406"/>
      <point x="429" y="395"/>
      <point x="418" y="395" type="curve" smooth="yes"/>
      <point x="403" y="395"/>
      <point x="394" y="404"/>
      <point x="357" y="404" type="curve" smooth="yes"/>
      <point x="298" y="404"/>
      <point x="248" y="353"/>
      <point x="248" y="273" type="curve" smooth="yes"/>
      <point x="248" y="192"/>
      <point x="296" y="139"/>
      <point x="379" y="139" type="curve" smooth="yes"/>
      <point x="435" y="139"/>
      <point x="466" y="162"/>
      <point x="494" y="199" type="curve"/>
      <point x="420" y="262" type="line"/>
      <point x="411" y="249"/>
      <point x="405" y="242"/>
      <point x="393" y="242" type="curve" smooth="yes"/>
      <point x="380" y="242"/>
      <point x="372" y="253"/>
      <point x="372" y="271" type="curve" smooth="yes"/>
      <point x="372" y="291"/>
      <point x="380" y="305"/>
      <point x="399" y="305" type="curve" smooth="yes"/>
      <point x="418" y="305"/>
      <point x="435" y="292"/>
      <point x="471" y="292" type="curve" smooth="yes"/>
      <point x="540" y="292"/>
      <point x="580" y="348"/>
      <point x="580" y="421" type="curve" smooth="yes"/>
      <point x="580" y="563"/>
      <point x="475" y="652"/>
      <point x="321" y="652" type="curve" smooth="yes"/>
      <point x="137" y="652"/>
      <point x="45" y="559"/>
      <point x="45" y="381" type="curve" smooth="yes"/>
      <point x="45" y="3" type="line" smooth="yes"/>
      <point x="45" y="-172"/>
      <point x="127" y="-270"/>
    </contour>
  </outline>
</glyph>
<glyph name="little_section" format="2">
  <advance width="266"/>
  <unicode hex="104A"/>
  <note>
little_section
</note>
  <outline>
    <contour>
      <point x="51" y="149" type="line"/>
      <point x="215" y="149" type="line"/>
      <point x="215" y="642" type="line"/>
      <point x="51" y="642" type="line"/>
    </contour>
  </outline>
</glyph>
<glyph name="locative" format="2">
  <advance width="550"/>
  <unicode hex="104C"/>
  <note>
locative
</note>
  <outline>
    <contour>
      <point x="212" y="-270" type="curve" smooth="yes"/>
      <point x="327" y="-270" type="line" smooth="yes"/>
      <point x="448" y="-270"/>
      <point x="505" y="-206"/>
      <point x="505" y="-76" type="curve" smooth="yes"/>
      <point x="505" y="160" type="line"/>
      <point x="442" y="120"/>
      <point x="357" y="97"/>
      <point x="279" y="97" type="curve" smooth="yes"/>
      <point x="240" y="97"/>
      <point x="217" y="101"/>
      <point x="206" y="105" type="curve"/>
      <point x="206" y="190" type="line"/>
      <point x="45" y="264" type="line"/>
      <point x="45" y="43" type="line"/>
      <point x="105" y="13"/>
      <point x="173" y="-4"/>
      <point x="253" y="-4" type="curve" smooth="yes"/>
      <point x="288" y="-4"/>
      <point x="310" y="-2"/>
      <point x="337" y="2" type="curve"/>
      <point x="337" y="-100" type="line" smooth="yes"/>
      <point x="337" y="-142"/>
      <point x="327" y="-165"/>
      <point x="293" y="-165" type="curve" smooth="yes"/>
      <point x="236" y="-165" type="line" smooth="yes"/>
      <point x="204" y="-165"/>
      <point x="189" y="-155"/>
      <point x="189" y="-140" type="curve" smooth="yes"/>
      <point x="189" y="-125"/>
      <point x="201" y="-115"/>
      <point x="220" y="-115" type="curve" smooth="yes"/>
      <point x="233" y="-115"/>
      <point x="242" y="-118"/>
      <point x="257" y="-129" type="curve"/>
      <point x="310" y="-58" type="line"/>
      <point x="280" y="-36"/>
      <point x="243" y="-21"/>
      <point x="181" y="-21" type="curve" smooth="yes"/>
      <point x="105" y="-21"/>
      <point x="25" y="-50"/>
      <point x="25" y="-142" type="curve" smooth="yes"/>
      <point x="25" y="-234"/>
      <point x="103" y="-270"/>
    </contour>
    <contour>
      <point x="279" y="141" type="curve" smooth="yes"/>
      <point x="419" y="141"/>
      <point x="515" y="253"/>
      <point x="515" y="396" type="curve" smooth="yes"/>
      <point x="515" y="542"/>
      <point x="424" y="651"/>
      <point x="265" y="651" type="curve" smooth="yes"/>
      <point x="164" y="651"/>
      <point x="97" y="600"/>
      <point x="64" y="537" type="curve"/>
      <point x="169" y="475" type="line"/>
      <point x="192" y="514"/>
      <point x="222" y="530"/>
      <point x="259" y="530" type="curve" smooth="yes"/>
      <point x="315" y="530"/>
      <point x="353" y="475"/>
      <point x="353" y="396" type="curve" smooth="yes"/>
      <point x="353" y="313"/>
      <point x="314" y="262"/>
      <point x="250" y="262" type="curve" smooth="yes"/>
      <point x="210" y="262"/>
      <point x="187" y="285"/>
      <point x="165" y="323" type="curve"/>
      <point x="45" y="264" type="line"/>
      <point x="84" y="193"/>
      <point x="195" y="141"/>
    </contour>
    <component base="asat" xOffset="548"/>
  </outline>
</glyph>
<glyph name="completed" format="2">
  <advance width="850"/>
  <unicode hex="104D"/>
  <note>
completed
</note>
  <outline>
    <contour>
      <point x="222" y="-270" type="curve" smooth="yes"/>
      <point x="627" y="-270" type="line" smooth="yes"/>
      <point x="748" y="-270"/>
      <point x="805" y="-206"/>
      <point x="805" y="-76" type="curve" smooth="yes"/>
      <point x="805" y="388" type="line" smooth="yes"/>
      <point x="805" y="577"/>
      <point x="762" y="653"/>
      <point x="667" y="777" type="curve" smooth="yes"/>
      <point x="631" y="824"/>
      <point x="613" y="863"/>
      <point x="613" y="893" type="curve" smooth="yes"/>
      <point x="613" y="915"/>
      <point x="622" y="937"/>
      <point x="644" y="937" type="curve" smooth="yes"/>
      <point x="667" y="937"/>
      <point x="678" y="908"/>
      <point x="690" y="865" type="curve"/>
      <point x="812" y="923" type="line"/>
      <point x="788" y="1010"/>
      <point x="729" y="1053"/>
      <point x="629" y="1053" type="curve" smooth="yes"/>
      <point x="525" y="1053"/>
      <point x="456" y="980"/>
      <point x="456" y="887" type="curve" smooth="yes"/>
      <point x="456" y="811"/>
      <point x="491" y="767"/>
      <point x="552" y="678" type="curve" smooth="yes"/>
      <point x="620" y="578"/>
      <point x="641" y="504"/>
      <point x="641" y="388" type="curve" smooth="yes"/>
      <point x="641" y="-85" type="line" smooth="yes"/>
      <point x="641" y="-126"/>
      <point x="631" y="-150"/>
      <point x="597" y="-150" type="curve" smooth="yes"/>
      <point x="246" y="-150" type="line" smooth="yes"/>
      <point x="214" y="-150"/>
      <point x="199" y="-137"/>
      <point x="199" y="-117" type="curve" smooth="yes"/>
      <point x="199" y="-104"/>
      <point x="211" y="-90"/>
      <point x="230" y="-90" type="curve" smooth="yes"/>
      <point x="243" y="-90"/>
      <point x="252" y="-94"/>
      <point x="267" y="-105" type="curve"/>
      <point x="320" y="-13" type="line"/>
      <point x="290" y="9"/>
      <point x="253" y="24"/>
      <point x="191" y="24" type="curve" smooth="yes"/>
      <point x="115" y="24"/>
      <point x="35" y="-21"/>
      <point x="35" y="-120" type="curve" smooth="yes"/>
      <point x="35" y="-218"/>
      <point x="113" y="-270"/>
    </contour>
    <contour>
      <point x="383" y="-5" type="line"/>
      <point x="547" y="-5" type="line"/>
      <point x="547" y="390" type="line" smooth="yes"/>
      <point x="547" y="530"/>
      <point x="470" y="651"/>
      <point x="297" y="651" type="curve" smooth="yes"/>
      <point x="130" y="651"/>
      <point x="35" y="538"/>
      <point x="35" y="396" type="curve" smooth="yes"/>
      <point x="35" y="249"/>
      <point x="111" y="140"/>
      <point x="281" y="140" type="curve" smooth="yes"/>
      <point x="317" y="140"/>
      <point x="338" y="147"/>
      <point x="360" y="154" type="curve"/>
      <point x="356" y="326"/>
      <point x="317" y="425"/>
      <point x="153" y="463" type="curve"/>
      <point x="144" y="379" type="line"/>
      <point x="210" y="370"/>
      <point x="253" y="310"/>
      <point x="257" y="216" type="curve"/>
      <point x="292" y="246" type="line"/>
      <point x="283" y="246"/>
      <point x="272" y="246"/>
      <point x="264" y="246" type="curve" smooth="yes"/>
      <point x="201" y="246"/>
      <point x="157" y="306"/>
      <point x="157" y="388" type="curve" smooth="yes"/>
      <point x="157" y="461"/>
      <point x="192" y="530"/>
      <point x="271" y="530" type="curve" smooth="yes"/>
      <point x="353" y="530"/>
      <point x="383" y="461"/>
      <point x="383" y="388" type="curve" smooth="yes"/>
    </contour>
  </outline>
</glyph>
<glyph name="aforementioned" format="2">
  <advance width="550"/>
  <unicode hex="104E"/>
  <note>
aforementioned
</note>
  <outline>
    <contour>
      <point x="271" y="141" type="curve" smooth="yes"/>
      <point x="355" y="141"/>
      <point x="466" y="193"/>
      <point x="505" y="264" type="curve"/>
      <point x="385" y="323" type="line"/>
      <point x="363" y="285"/>
      <point x="340" y="262"/>
      <point x="300" y="262" type="curve" smooth="yes"/>
      <point x="236" y="262"/>
      <point x="197" y="313"/>
      <point x="197" y="396" type="curve" smooth="yes"/>
      <point x="197" y="475"/>
      <point x="235" y="530"/>
      <point x="291" y="530" type="curve" smooth="yes"/>
      <point x="328" y="530"/>
      <point x="358" y="514"/>
      <point x="381" y="475" type="curve"/>
      <point x="486" y="537" type="line"/>
      <point x="453" y="600"/>
      <point x="386" y="651"/>
      <point x="285" y="651" type="curve" smooth="yes"/>
      <point x="126" y="651"/>
      <point x="35" y="542"/>
      <point x="35" y="396" type="curve" smooth="yes"/>
      <point x="35" y="253"/>
      <point x="131" y="141"/>
    </contour>
    <contour>
      <point x="341" y="-270" type="line"/>
      <point x="505" y="-270" type="line"/>
      <point x="505" y="264" type="line"/>
      <point x="341" y="166" type="line"/>
    </contour>
  </outline>
</glyph>
<glyph name="genitive" format="2">
  <advance width="1096"/>
  <unicode hex="104F"/>
  <note>
genitive
</note>
  <outline>
    <contour>
      <point x="887" y="149" type="line"/>
      <point x="1051" y="149" type="line" smooth="yes"/>
      <point x="1051" y="388" type="line" smooth="yes"/>
      <point x="1051" y="577"/>
      <point x="1008" y="653"/>
      <point x="913" y="777" type="curve" smooth="yes"/>
      <point x="877" y="824"/>
      <point x="859" y="863"/>
      <point x="859" y="893" type="curve" smooth="yes"/>
      <point x="859" y="915"/>
      <point x="868" y="937"/>
      <point x="890" y="937" type="curve" smooth="yes"/>
      <point x="913" y="937"/>
      <point x="924" y="908"/>
      <point x="936" y="865" type="curve"/>
      <point x="1058" y="923" type="line"/>
      <point x="1034" y="1010"/>
      <point x="975" y="1053"/>
      <point x="875" y="1053" type="curve" smooth="yes"/>
      <point x="771" y="1053"/>
      <point x="702" y="980"/>
      <point x="702" y="887" type="curve" smooth="yes"/>
      <point x="702" y="811"/>
      <point x="737" y="767"/>
      <point x="798" y="678" type="curve" smooth="yes"/>
      <point x="866" y="578"/>
      <point x="887" y="504"/>
      <point x="887" y="388" type="curve" smooth="yes"/>
    </contour>
    <contour>
      <point x="629" y="149" type="line"/>
      <point x="793" y="149" type="line"/>
      <point x="793" y="405" type="line" smooth="yes"/>
      <point x="793" y="561"/>
      <point x="732" y="651"/>
      <point x="596" y="651" type="curve" smooth="yes"/>
      <point x="518" y="651"/>
      <point x="465" y="615"/>
      <point x="443" y="577" type="curve"/>
      <point x="519" y="467" type="line"/>
      <point x="520" y="496"/>
      <point x="536" y="530"/>
      <point x="571" y="530" type="curve" smooth="yes"/>
      <point x="617" y="530"/>
      <point x="629" y="480"/>
      <point x="629" y="397" type="curve" smooth="yes"/>
    </contour>
    <component base="e_m"/>
  </outline>
</glyph>
<glyph name="sha_skt" format="2">
  <advance width="566"/>
  <unicode hex="1050"/>
  <note>
sha_skt
</note>
  <outline>
    <contour>
      <point x="283" y="321" type="curve" smooth="yes"/>
      <point x="313" y="321"/>
      <point x="343" y="341"/>
      <point x="343" y="390" type="curve" smooth="yes"/>
      <point x="343" y="440"/>
      <point x="313" y="460"/>
      <point x="283" y="460" type="curve" smooth="yes"/>
      <point x="255" y="460"/>
      <point x="224" y="442"/>
      <point x="224" y="390" type="curve" smooth="yes"/>
      <point x="224" y="341"/>
      <point x="256" y="321"/>
    </contour>
    <component base="ga"/>
  </outline>
</glyph>
<glyph name="ssa_skt" format="2">
  <advance width="566"/>
  <unicode hex="1051"/>
  <note>
ssa_skt
</note>
  <outline>
    <contour>
      <point x="283" y="140" type="curve" smooth="yes"/>
      <point x="443" y="140"/>
      <point x="531" y="232"/>
      <point x="531" y="394" type="curve" smooth="yes"/>
      <point x="531" y="522"/>
      <point x="479" y="607"/>
      <point x="405" y="651" type="curve"/>
      <point x="330" y="535" type="line"/>
      <point x="367" y="489"/>
      <point x="370" y="444"/>
      <point x="370" y="394" type="curve" smooth="yes"/>
      <point x="370" y="314"/>
      <point x="341" y="262"/>
      <point x="285" y="262" type="curve" smooth="yes"/>
      <point x="221" y="262"/>
      <point x="197" y="316"/>
      <point x="197" y="394" type="curve" smooth="yes"/>
      <point x="197" y="447"/>
      <point x="199" y="489"/>
      <point x="236" y="535" type="curve"/>
      <point x="161" y="651" type="line"/>
      <point x="86" y="607"/>
      <point x="35" y="521"/>
      <point x="35" y="394" type="curve" smooth="yes"/>
      <point x="35" y="241"/>
      <point x="127" y="140"/>
    </contour>
    <contour>
      <point x="284" y="331" type="curve" smooth="yes"/>
      <point x="314" y="331"/>
      <point x="340" y="351"/>
      <point x="340" y="401" type="curve" smooth="yes"/>
      <point x="340" y="451"/>
      <point x="313" y="469"/>
      <point x="284" y="469" type="curve" smooth="yes"/>
      <point x="257" y="469"/>
      <point x="228" y="451"/>
      <point x="228" y="401" type="curve" smooth="yes"/>
      <point x="228" y="352"/>
      <point x="257" y="331"/>
    </contour>
  </outline>
</glyph>
<glyph name="vocR_skt" format="2">
  <advance width="571"/>
  <unicode hex="1052"/>
  <note>
vocR_skt
</note>
  <outline>
    <contour>
      <point x="295" y="140" type="curve" smooth="yes"/>
      <point x="456" y="140"/>
      <point x="532" y="218"/>
      <point x="532" y="325" type="curve" smooth="yes"/>
      <point x="532" y="379"/>
      <point x="512" y="420"/>
      <point x="475" y="454" type="curve" smooth="yes"/>
      <point x="441" y="486"/>
      <point x="417" y="496"/>
      <point x="417" y="514" type="curve" smooth="yes"/>
      <point x="417" y="525"/>
      <point x="426" y="531"/>
      <point x="438" y="531" type="curve" smooth="yes"/>
      <point x="455" y="531"/>
      <point x="472" y="517"/>
      <point x="482" y="503" type="curve"/>
      <point x="553" y="573" type="line"/>
      <point x="529" y="620"/>
      <point x="477" y="652"/>
      <point x="407" y="652" type="curve" smooth="yes"/>
      <point x="321" y="652"/>
      <point x="274" y="604"/>
      <point x="274" y="534" type="curve" smooth="yes"/>
      <point x="274" y="482"/>
      <point x="308" y="447"/>
      <point x="339" y="410" type="curve" smooth="yes"/>
      <point x="359" y="387"/>
      <point x="370" y="364"/>
      <point x="370" y="334" type="curve" smooth="yes"/>
      <point x="370" y="292"/>
      <point x="344" y="262"/>
      <point x="292" y="262" type="curve" smooth="yes"/>
      <point x="232" y="262"/>
      <point x="197" y="314"/>
      <point x="197" y="394" type="curve" smooth="yes"/>
      <point x="197" y="444"/>
      <point x="198" y="489"/>
      <point x="235" y="535" type="curve"/>
      <point x="159" y="651" type="line"/>
      <point x="88" y="607"/>
      <point x="35" y="522"/>
      <point x="35" y="394" type="curve" smooth="yes"/>
      <point x="35" y="243"/>
      <point x="123" y="140"/>
    </contour>
  </outline>
</glyph>
<glyph name="vocRR_skt" format="2">
  <advance width="572"/>
  <unicode hex="1053"/>
  <note>
vocRR_skt
</note>
  <outline>
    <contour>
      <point x="286" y="140" type="curve" smooth="yes"/>
      <point x="457" y="140"/>
      <point x="533" y="218"/>
      <point x="533" y="325" type="curve" smooth="yes"/>
      <point x="533" y="379"/>
      <point x="511" y="424"/>
      <point x="476" y="460" type="curve" smooth="yes"/>
      <point x="449" y="487"/>
      <point x="438" y="496"/>
      <point x="438" y="515" type="curve" smooth="yes"/>
      <point x="438" y="525"/>
      <point x="443" y="531"/>
      <point x="452" y="531" type="curve" smooth="yes"/>
      <point x="465" y="531"/>
      <point x="475" y="517"/>
      <point x="483" y="503" type="curve"/>
      <point x="554" y="573" type="line"/>
      <point x="532" y="620"/>
      <point x="483" y="652"/>
      <point x="418" y="652" type="curve" smooth="yes"/>
      <point x="343" y="652"/>
      <point x="302" y="604"/>
      <point x="302" y="534" type="curve" smooth="yes"/>
      <point x="302" y="482"/>
      <point x="325" y="449"/>
      <point x="346" y="415" type="curve" smooth="yes"/>
      <point x="362" y="389"/>
      <point x="371" y="364"/>
      <point x="371" y="334" type="curve" smooth="yes"/>
      <point x="371" y="292"/>
      <point x="345" y="262"/>
      <point x="286" y="262" type="curve" smooth="yes"/>
      <point x="227" y="262"/>
      <point x="201" y="292"/>
      <point x="201" y="334" type="curve" smooth="yes"/>
      <point x="201" y="364"/>
      <point x="210" y="389"/>
      <point x="226" y="415" type="curve" smooth="yes"/>
      <point x="247" y="449"/>
      <point x="270" y="482"/>
      <point x="270" y="534" type="curve" smooth="yes"/>
      <point x="270" y="604"/>
      <point x="229" y="652"/>
      <point x="154" y="652" type="curve" smooth="yes"/>
      <point x="89" y="652"/>
      <point x="40" y="620"/>
      <point x="18" y="573" type="curve"/>
      <point x="89" y="503" type="line"/>
      <point x="97" y="517"/>
      <point x="107" y="531"/>
      <point x="120" y="531" type="curve" smooth="yes"/>
      <point x="129" y="531"/>
      <point x="134" y="525"/>
      <point x="134" y="515" type="curve" smooth="yes"/>
      <point x="134" y="496"/>
      <point x="123" y="487"/>
      <point x="96" y="460" type="curve" smooth="yes"/>
      <point x="61" y="424"/>
      <point x="39" y="379"/>
      <point x="39" y="325" type="curve" smooth="yes"/>
      <point x="39" y="218"/>
      <point x="115" y="140"/>
    </contour>
  </outline>
</glyph>
<glyph name="vocL_skt" format="2">
  <advance width="532"/>
  <unicode hex="1054"/>
  <note>
vocL_skt
</note>
  <outline>
    <contour>
      <point x="284" y="140" type="curve" smooth="yes"/>
      <point x="353" y="140"/>
      <point x="405" y="154"/>
      <point x="479" y="192" type="curve"/>
      <point x="432" y="307" type="line"/>
      <point x="365" y="271"/>
      <point x="333" y="262"/>
      <point x="294" y="262" type="curve" smooth="yes"/>
      <point x="241" y="262"/>
      <point x="197" y="305"/>
      <point x="197" y="396" type="curve" smooth="yes"/>
      <point x="197" y="483"/>
      <point x="233" y="530"/>
      <point x="284" y="530" type="curve" smooth="yes"/>
      <point x="319" y="530"/>
      <point x="336" y="514"/>
      <point x="351" y="496" type="curve"/>
      <point x="324" y="476"/>
      <point x="306" y="466"/>
      <point x="284" y="466" type="curve" smooth="yes"/>
      <point x="252" y="466"/>
      <point x="222" y="478"/>
      <point x="191" y="498" type="curve"/>
      <point x="176" y="405" type="line"/>
      <point x="226" y="383"/>
      <point x="258" y="373"/>
      <point x="292" y="373" type="curve" smooth="yes"/>
      <point x="357" y="373"/>
      <point x="420" y="397"/>
      <point x="497" y="442" type="curve"/>
      <point x="490" y="571"/>
      <point x="418" y="651"/>
      <point x="272" y="651" type="curve" smooth="yes"/>
      <point x="152" y="651"/>
      <point x="35" y="561"/>
      <point x="35" y="396" type="curve" smooth="yes"/>
      <point x="35" y="235"/>
      <point x="135" y="140"/>
    </contour>
  </outline>
</glyph>
<glyph name="vocLL_skt" format="2">
  <advance width="543"/>
  <unicode hex="1055"/>
  <note>
vocLL_skt
</note>
  <outline>
    <contour>
      <point x="204" y="141" type="curve" smooth="yes"/>
      <point x="252" y="141"/>
      <point x="287" y="167"/>
      <point x="301" y="207" type="curve"/>
      <point x="286" y="206" type="line"/>
      <point x="286" y="168"/>
      <point x="323" y="141"/>
      <point x="378" y="141" type="curve" smooth="yes"/>
      <point x="480" y="141"/>
      <point x="508" y="205"/>
      <point x="508" y="301" type="curve"/>
      <point x="389" y="323" type="line"/>
      <point x="388" y="283"/>
      <point x="386" y="264"/>
      <point x="372" y="264" type="curve" smooth="yes"/>
      <point x="357" y="264"/>
      <point x="353" y="272"/>
      <point x="353" y="304" type="curve" smooth="yes"/>
      <point x="353" y="318" type="line"/>
      <point x="240" y="318" type="line"/>
      <point x="240" y="304" type="line" smooth="yes"/>
      <point x="240" y="274"/>
      <point x="231" y="264"/>
      <point x="222" y="264" type="curve" smooth="yes"/>
      <point x="204" y="264"/>
      <point x="197" y="291"/>
      <point x="197" y="388" type="curve" smooth="yes"/>
      <point x="197" y="483"/>
      <point x="233" y="530"/>
      <point x="284" y="530" type="curve" smooth="yes"/>
      <point x="319" y="530"/>
      <point x="336" y="514"/>
      <point x="351" y="496" type="curve"/>
      <point x="324" y="476"/>
      <point x="306" y="466"/>
      <point x="284" y="466" type="curve" smooth="yes"/>
      <point x="252" y="466"/>
      <point x="222" y="478"/>
      <point x="191" y="498" type="curve"/>
      <point x="176" y="405" type="line"/>
      <point x="226" y="383"/>
      <point x="258" y="373"/>
      <point x="292" y="373" type="curve" smooth="yes"/>
      <point x="357" y="373"/>
      <point x="420" y="397"/>
      <point x="497" y="442" type="curve"/>
      <point x="490" y="571"/>
      <point x="418" y="651"/>
      <point x="272" y="651" type="curve" smooth="yes"/>
      <point x="152" y="651"/>
      <point x="35" y="561"/>
      <point x="35" y="396" type="curve" smooth="yes"/>
      <point x="35" y="241"/>
      <point x="97" y="141"/>
    </contour>
  </outline>
</glyph>
<glyph name="_vocR_skt" format="2">
  <advance width="300"/>
  <unicode hex="1056"/>
  <note>
_vocR_skt
</note>
  <outline>
    <contour>
      <point x="84" y="140" type="curve" smooth="yes"/>
      <point x="194" y="140"/>
      <point x="258" y="210"/>
      <point x="258" y="302" type="curve" smooth="yes"/>
      <point x="258" y="378"/>
      <point x="221" y="415"/>
      <point x="168" y="460" type="curve" smooth="yes"/>
      <point x="140" y="484"/>
      <point x="125" y="498"/>
      <point x="125" y="514" type="curve" smooth="yes"/>
      <point x="125" y="525"/>
      <point x="131" y="536"/>
      <point x="144" y="536" type="curve" smooth="yes"/>
      <point x="159" y="536"/>
      <point x="172" y="524"/>
      <point x="191" y="503" type="curve"/>
      <point x="270" y="580" type="line"/>
      <point x="238" y="623"/>
      <point x="187" y="649"/>
      <point x="116" y="649" type="curve" smooth="yes"/>
      <point x="24" y="649"/>
      <point x="-36" y="594"/>
      <point x="-36" y="511" type="curve" smooth="yes"/>
      <point x="-36" y="457"/>
      <point x="-9" y="415"/>
      <point x="34" y="375" type="curve" smooth="yes"/>
      <point x="79" y="334"/>
      <point x="95" y="320"/>
      <point x="95" y="295" type="curve" smooth="yes"/>
      <point x="95" y="276"/>
      <point x="85" y="262"/>
      <point x="64" y="262" type="curve" smooth="yes"/>
      <point x="32" y="262"/>
      <point x="2" y="299"/>
      <point x="-36" y="361" type="curve"/>
      <point x="-150" y="291" type="line"/>
      <point x="-87" y="184"/>
      <point x="-15" y="140"/>
    </contour>
  </outline>
</glyph>
<glyph name="_vocRR_skt" format="2">
  <advance width="348"/>
  <unicode hex="1057"/>
  <note>
_vocRR_skt
</note>
  <outline>
    <contour>
      <point x="-33" y="141" type="curve" smooth="yes"/>
      <point x="22" y="141"/>
      <point x="59" y="168"/>
      <point x="59" y="206" type="curve"/>
      <point x="44" y="207" type="line"/>
      <point x="58" y="167"/>
      <point x="97" y="141"/>
      <point x="157" y="141" type="curve" smooth="yes"/>
      <point x="251" y="141"/>
      <point x="306" y="210"/>
      <point x="306" y="302" type="curve" smooth="yes"/>
      <point x="306" y="378"/>
      <point x="269" y="415"/>
      <point x="216" y="460" type="curve" smooth="yes"/>
      <point x="188" y="484"/>
      <point x="173" y="498"/>
      <point x="173" y="514" type="curve" smooth="yes"/>
      <point x="173" y="525"/>
      <point x="179" y="536"/>
      <point x="192" y="536" type="curve" smooth="yes"/>
      <point x="207" y="536"/>
      <point x="220" y="524"/>
      <point x="239" y="503" type="curve"/>
      <point x="318" y="580" type="line"/>
      <point x="286" y="623"/>
      <point x="235" y="649"/>
      <point x="164" y="649" type="curve" smooth="yes"/>
      <point x="72" y="649"/>
      <point x="12" y="594"/>
      <point x="12" y="511" type="curve" smooth="yes"/>
      <point x="12" y="457"/>
      <point x="39" y="415"/>
      <point x="82" y="375" type="curve" smooth="yes"/>
      <point x="127" y="334"/>
      <point x="143" y="320"/>
      <point x="143" y="295" type="curve" smooth="yes"/>
      <point x="143" y="277"/>
      <point x="139" y="262"/>
      <point x="123" y="262" type="curve" smooth="yes"/>
      <point x="114" y="262"/>
      <point x="105" y="273"/>
      <point x="105" y="304" type="curve" smooth="yes"/>
      <point x="105" y="318" type="line"/>
      <point x="-8" y="318" type="line"/>
      <point x="-8" y="304" type="line" smooth="yes"/>
      <point x="-8" y="271"/>
      <point x="-12" y="262"/>
      <point x="-27" y="262" type="curve" smooth="yes"/>
      <point x="-41" y="262"/>
      <point x="-43" y="282"/>
      <point x="-44" y="323" type="curve"/>
      <point x="-163" y="301" type="line"/>
      <point x="-163" y="205"/>
      <point x="-135" y="141"/>
    </contour>
  </outline>
</glyph>
<glyph name="_vocL_skt" format="2">
  <unicode hex="1058"/>
  <note>
_vocL_skt
</note>
  <outline>
    <contour>
      <point x="-247" y="-270" type="curve" smooth="yes"/>
      <point x="-191" y="-270"/>
      <point x="-150" y="-259"/>
      <point x="-91" y="-233" type="curve"/>
      <point x="-128" y="-149" type="line"/>
      <point x="-182" y="-175"/>
      <point x="-207" y="-182"/>
      <point x="-239" y="-182" type="curve" smooth="yes"/>
      <point x="-281" y="-182"/>
      <point x="-316" y="-151"/>
      <point x="-316" y="-84" type="curve" smooth="yes"/>
      <point x="-316" y="-20"/>
      <point x="-287" y="14"/>
      <point x="-247" y="14" type="curve" smooth="yes"/>
      <point x="-219" y="14"/>
      <point x="-205" y="-1"/>
      <point x="-193" y="-22" type="curve"/>
      <point x="-215" y="-35"/>
      <point x="-229" y="-43"/>
      <point x="-247" y="-43" type="curve" smooth="yes"/>
      <point x="-272" y="-43"/>
      <point x="-296" y="-33"/>
      <point x="-321" y="-20" type="curve"/>
      <point x="-333" y="-78" type="line"/>
      <point x="-293" y="-93"/>
      <point x="-267" y="-101"/>
      <point x="-240" y="-101" type="curve" smooth="yes"/>
      <point x="-188" y="-101"/>
      <point x="-138" y="-84"/>
      <point x="-76" y="-50" type="curve"/>
      <point x="-82" y="44"/>
      <point x="-139" y="102"/>
      <point x="-256" y="102" type="curve" smooth="yes"/>
      <point x="-352" y="102"/>
      <point x="-446" y="37"/>
      <point x="-446" y="-84" type="curve" smooth="yes"/>
      <point x="-446" y="-201"/>
      <point x="-366" y="-270"/>
    </contour>
  </outline>
</glyph>
<glyph name="_vocLL_skt" format="2">
  <unicode hex="1059"/>
  <note>
_vocLL_skt
</note>
  <outline>
    <contour>
      <point x="-317" y="-270" type="curve" smooth="yes"/>
      <point x="-279" y="-270"/>
      <point x="-251" y="-251"/>
      <point x="-240" y="-221" type="curve"/>
      <point x="-252" y="-222" type="line"/>
      <point x="-252" y="-251"/>
      <point x="-222" y="-270"/>
      <point x="-178" y="-270" type="curve" smooth="yes"/>
      <point x="-97" y="-270"/>
      <point x="-74" y="-223"/>
      <point x="-74" y="-152" type="curve"/>
      <point x="-170" y="-136" type="line"/>
      <point x="-170" y="-166"/>
      <point x="-172" y="-181"/>
      <point x="-183" y="-181" type="curve" smooth="yes"/>
      <point x="-195" y="-181"/>
      <point x="-198" y="-175"/>
      <point x="-198" y="-150" type="curve" smooth="yes"/>
      <point x="-198" y="-139" type="line"/>
      <point x="-289" y="-139" type="line"/>
      <point x="-289" y="-150" type="line" smooth="yes"/>
      <point x="-289" y="-172"/>
      <point x="-296" y="-181"/>
      <point x="-303" y="-181" type="curve" smooth="yes"/>
      <point x="-317" y="-181"/>
      <point x="-323" y="-161"/>
      <point x="-323" y="-88" type="curve" smooth="yes"/>
      <point x="-323" y="-17"/>
      <point x="-294" y="17"/>
      <point x="-254" y="17" type="curve" smooth="yes"/>
      <point x="-226" y="17"/>
      <point x="-212" y="0"/>
      <point x="-200" y="-19" type="curve"/>
      <point x="-222" y="-33"/>
      <point x="-236" y="-41"/>
      <point x="-254" y="-41" type="curve" smooth="yes"/>
      <point x="-279" y="-41"/>
      <point x="-303" y="-31"/>
      <point x="-328" y="-16" type="curve"/>
      <point x="-340" y="-76" type="line"/>
      <point x="-300" y="-92"/>
      <point x="-274" y="-99"/>
      <point x="-247" y="-99" type="curve" smooth="yes"/>
      <point x="-195" y="-99"/>
      <point x="-145" y="-82"/>
      <point x="-83" y="-48" type="curve"/>
      <point x="-89" y="47"/>
      <point x="-146" y="107"/>
      <point x="-263" y="107" type="curve" smooth="yes"/>
      <point x="-359" y="107"/>
      <point x="-453" y="40"/>
      <point x="-453" y="-82" type="curve" smooth="yes"/>
      <point x="-453" y="-197"/>
      <point x="-403" y="-270"/>
    </contour>
  </outline>
</glyph>
<glyph name="nga_mon" format="2">
  <advance width="550"/>
  <unicode hex="105A"/>
  <note>
nga_mon
</note>
  <outline>
    <contour>
      <point x="291" y="141" type="curve" smooth="yes"/>
      <point x="387" y="141"/>
      <point x="466" y="193"/>
      <point x="505" y="264" type="curve"/>
      <point x="385" y="323" type="line"/>
      <point x="363" y="285"/>
      <point x="340" y="262"/>
      <point x="300" y="262" type="curve" smooth="yes"/>
      <point x="236" y="262"/>
      <point x="197" y="313"/>
      <point x="197" y="396" type="curve" smooth="yes"/>
      <point x="197" y="475"/>
      <point x="235" y="530"/>
      <point x="291" y="530" type="curve" smooth="yes"/>
      <point x="328" y="530"/>
      <point x="358" y="514"/>
      <point x="381" y="475" type="curve"/>
      <point x="486" y="537" type="line"/>
      <point x="453" y="600"/>
      <point x="386" y="651"/>
      <point x="285" y="651" type="curve" smooth="yes"/>
      <point x="126" y="651"/>
      <point x="35" y="542"/>
      <point x="35" y="396" type="curve" smooth="yes"/>
      <point x="35" y="253"/>
      <point x="131" y="141"/>
    </contour>
    <contour>
      <point x="315" y="-270" type="curve" smooth="yes"/>
      <point x="363" y="-270"/>
      <point x="392" y="-260"/>
      <point x="414" y="-248" type="curve"/>
      <point x="381" y="-177" type="line"/>
      <point x="374" y="-180"/>
      <point x="369" y="-181"/>
      <point x="363" y="-181" type="curve" smooth="yes"/>
      <point x="353" y="-181"/>
      <point x="350" y="-174"/>
      <point x="350" y="-166" type="curve" smooth="yes"/>
      <point x="350" y="-154"/>
      <point x="355" y="-146"/>
      <point x="366" y="-134" type="curve" smooth="yes"/>
      <point x="380" y="-119"/>
      <point x="438" y="-82"/>
      <point x="438" y="-14" type="curve" smooth="yes"/>
      <point x="438" y="58"/>
      <point x="379" y="107"/>
      <point x="287" y="107" type="curve" smooth="yes"/>
      <point x="187" y="107"/>
      <point x="133" y="50"/>
      <point x="124" y="-27" type="curve"/>
      <point x="244" y="-27" type="line"/>
      <point x="247" y="-6"/>
      <point x="258" y="12"/>
      <point x="278" y="12" type="curve" smooth="yes"/>
      <point x="299" y="12"/>
      <point x="307" y="1"/>
      <point x="307" y="-14" type="curve" smooth="yes"/>
      <point x="307" y="-32"/>
      <point x="302" y="-49"/>
      <point x="291" y="-60" type="curve" smooth="yes"/>
      <point x="265" y="-84"/>
      <point x="214" y="-122"/>
      <point x="214" y="-180" type="curve" smooth="yes"/>
      <point x="214" y="-240"/>
      <point x="261" y="-270"/>
    </contour>
  </outline>
</glyph>
<glyph name="bba_mon" format="2">
  <advance width="596"/>
  <unicode hex="105C"/>
  <note>
bba_mon
</note>
  <outline>
    <contour>
      <point x="302" y="140" type="curve" smooth="yes"/>
      <point x="458" y="140"/>
      <point x="561" y="244"/>
      <point x="561" y="395" type="curve" smooth="yes"/>
      <point x="561" y="541"/>
      <point x="459" y="651"/>
      <point x="300" y="651" type="curve" smooth="yes"/>
      <point x="142" y="651"/>
      <point x="35" y="545"/>
      <point x="35" y="396" type="curve" smooth="yes"/>
      <point x="35" y="245"/>
      <point x="144" y="140"/>
    </contour>
    <contour>
      <point x="297" y="253" type="curve" smooth="yes"/>
      <point x="203" y="253"/>
      <point x="157" y="316"/>
      <point x="157" y="397" type="curve" smooth="yes"/>
      <point x="157" y="477"/>
      <point x="210" y="539"/>
      <point x="296" y="539" type="curve" smooth="yes"/>
      <point x="385" y="539"/>
      <point x="440" y="479"/>
      <point x="440" y="397" type="curve" smooth="yes"/>
      <point x="440" y="317"/>
      <point x="392" y="253"/>
    </contour>
    <contour>
      <point x="299" y="289" type="curve" smooth="yes"/>
      <point x="359" y="289"/>
      <point x="402" y="327"/>
      <point x="402" y="396" type="curve" smooth="yes"/>
      <point x="402" y="461"/>
      <point x="356" y="502"/>
      <point x="299" y="502" type="curve" smooth="yes"/>
      <point x="240" y="502"/>
      <point x="199" y="462"/>
      <point x="199" y="395" type="curve" smooth="yes"/>
      <point x="199" y="327"/>
      <point x="240" y="289"/>
    </contour>
    <contour>
      <point x="301" y="358" type="curve" smooth="yes"/>
      <point x="285" y="358"/>
      <point x="277" y="371"/>
      <point x="277" y="395" type="curve" smooth="yes"/>
      <point x="277" y="418"/>
      <point x="288" y="433"/>
      <point x="301" y="433" type="curve" smooth="yes"/>
      <point x="313" y="433"/>
      <point x="323" y="418"/>
      <point x="323" y="395" type="curve" smooth="yes"/>
      <point x="323" y="371"/>
      <point x="313" y="358"/>
    </contour>
  </outline>
</glyph>
<glyph name="bbe_mon" format="2">
  <advance width="569"/>
  <unicode hex="105D"/>
  <note>
bbe_mon
</note>
  <outline>
    <contour>
      <point x="209" y="-270" type="curve" smooth="yes"/>
      <point x="331" y="-270" type="line" smooth="yes"/>
      <point x="452" y="-270"/>
      <point x="509" y="-206"/>
      <point x="509" y="-76" type="curve" smooth="yes"/>
      <point x="509" y="292" type="line"/>
      <point x="350" y="157" type="line"/>
      <point x="350" y="-85" type="line" smooth="yes"/>
      <point x="350" y="-130"/>
      <point x="343" y="-150"/>
      <point x="311" y="-150" type="curve" smooth="yes"/>
      <point x="223" y="-150" type="line" smooth="yes"/>
      <point x="198" y="-150"/>
      <point x="186" y="-137"/>
      <point x="186" y="-120" type="curve" smooth="yes"/>
      <point x="186" y="-102"/>
      <point x="196" y="-91"/>
      <point x="216" y="-91" type="curve" smooth="yes"/>
      <point x="227" y="-91"/>
      <point x="239" y="-98"/>
      <point x="252" y="-108" type="curve"/>
      <point x="307" y="-13" type="line"/>
      <point x="279" y="9"/>
      <point x="241" y="24"/>
      <point x="178" y="24" type="curve" smooth="yes"/>
      <point x="100" y="24"/>
      <point x="33" y="-35"/>
      <point x="33" y="-120" type="curve" smooth="yes"/>
      <point x="33" y="-218"/>
      <point x="100" y="-270"/>
    </contour>
    <contour>
      <point x="190" y="297" type="line"/>
      <point x="214" y="313"/>
      <point x="238" y="325"/>
      <point x="286" y="325" type="curve" smooth="yes"/>
      <point x="332" y="325"/>
      <point x="349" y="316"/>
      <point x="385" y="298" type="curve"/>
      <point x="411" y="376" type="line"/>
      <point x="359" y="404"/>
      <point x="327" y="417"/>
      <point x="289" y="417" type="curve" smooth="yes"/>
      <point x="243" y="417"/>
      <point x="205" y="398"/>
      <point x="167" y="376" type="curve"/>
    </contour>
    <contour>
      <point x="284" y="140" type="curve" smooth="yes"/>
      <point x="444" y="140"/>
      <point x="536" y="243"/>
      <point x="536" y="394" type="curve" smooth="yes"/>
      <point x="536" y="522"/>
      <point x="483" y="607"/>
      <point x="413" y="651" type="curve"/>
      <point x="337" y="535" type="line"/>
      <point x="382" y="488"/>
      <point x="386" y="442"/>
      <point x="386" y="392" type="curve" smooth="yes"/>
      <point x="386" y="292"/>
      <point x="350" y="248"/>
      <point x="286" y="248" type="curve" smooth="yes"/>
      <point x="213" y="248"/>
      <point x="184" y="299"/>
      <point x="184" y="393" type="curve" smooth="yes"/>
      <point x="184" y="446"/>
      <point x="189" y="489"/>
      <point x="236" y="535" type="curve"/>
      <point x="160" y="651" type="line"/>
      <point x="87" y="607"/>
      <point x="33" y="521"/>
      <point x="33" y="394" type="curve" smooth="yes"/>
      <point x="33" y="242"/>
      <point x="125" y="140"/>
    </contour>
  </outline>
</glyph>
<glyph name="_medialNa_mon" format="2">
  <unicode hex="105E"/>
  <note>
_medialNa_mon
</note>
  <outline>
    <contour>
      <point x="-311" y="-270" type="curve" smooth="yes"/>
      <point x="-198" y="-270"/>
      <point x="-161" y="-219"/>
      <point x="-161" y="-124" type="curve" smooth="yes"/>
      <point x="-161" y="106" type="line"/>
      <point x="-290" y="106" type="line"/>
      <point x="-290" y="-130" type="line" smooth="yes"/>
      <point x="-290" y="-156"/>
      <point x="-297" y="-171"/>
      <point x="-314" y="-171" type="curve" smooth="yes"/>
      <point x="-326" y="-171"/>
      <point x="-335" y="-162"/>
      <point x="-335" y="-144" type="curve" smooth="yes"/>
      <point x="-335" y="-116"/>
      <point x="-310" y="-92"/>
      <point x="-255" y="-92" type="curve" smooth="yes"/>
      <point x="-186" y="-92"/>
      <point x="-166" y="-110"/>
      <point x="-104" y="-146" type="curve"/>
      <point x="-42" y="-65" type="line"/>
      <point x="-125" y="-17"/>
      <point x="-170" y="5"/>
      <point x="-256" y="5" type="curve" smooth="yes"/>
      <point x="-382" y="5"/>
      <point x="-461" y="-53"/>
      <point x="-461" y="-140" type="curve" smooth="yes"/>
      <point x="-461" y="-224"/>
      <point x="-407" y="-270"/>
    </contour>
  </outline>
</glyph>
<glyph name="_medialMa_mon" format="2">
  <unicode hex="105F"/>
  <note>
_medialMa_mon
</note>
  <outline>
    <contour>
      <point x="-265" y="-270" type="curve" smooth="yes"/>
      <point x="-197" y="-270"/>
      <point x="-108" y="-243"/>
      <point x="-53" y="-199" type="curve"/>
      <point x="-113" y="-119" type="line"/>
      <point x="-142" y="-138"/>
      <point x="-203" y="-172"/>
      <point x="-260" y="-172" type="curve" smooth="yes"/>
      <point x="-295" y="-172"/>
      <point x="-318" y="-158"/>
      <point x="-318" y="-133" type="curve" smooth="yes"/>
      <point x="-318" y="-111"/>
      <point x="-295" y="-93"/>
      <point x="-255" y="-93" type="curve" smooth="yes"/>
      <point x="-225" y="-93"/>
      <point x="-211" y="-95"/>
      <point x="-185" y="-99" type="curve"/>
      <point x="-185" y="106" type="line"/>
      <point x="-314" y="106" type="line"/>
      <point x="-314" y="5" type="line"/>
      <point x="-399" y="-6"/>
      <point x="-447" y="-58"/>
      <point x="-447" y="-128" type="curve" smooth="yes"/>
      <point x="-447" y="-220"/>
      <point x="-382" y="-270"/>
    </contour>
  </outline>
</glyph>
<glyph name="_medialLa_mon" format="2">
  <unicode hex="1060"/>
  <note>
_medialLa_mon
</note>
  <outline>
    <contour>
      <point x="-465" y="-270" type="line"/>
      <point x="-104" y="-270" type="line"/>
      <point x="-104" y="-130" type="line"/>
      <point x="-192" y="-130" type="line"/>
      <point x="-83" y="107" type="line"/>
      <point x="-280" y="107" type="line"/>
    </contour>
  </outline>
</glyph>
<glyph name="sha_skn" format="2">
  <advance width="631"/>
  <unicode hex="1061"/>
  <note>
sha_skn
</note>
  <outline>
    <contour>
      <point x="422" y="-270" type="line"/>
      <point x="586" y="-270" type="line"/>
      <point x="586" y="391" type="line" smooth="yes"/>
      <point x="586" y="530"/>
      <point x="497" y="651"/>
      <point x="312" y="651" type="curve" smooth="yes"/>
      <point x="130" y="651"/>
      <point x="35" y="538"/>
      <point x="35" y="396" type="curve" smooth="yes"/>
      <point x="35" y="249"/>
      <point x="111" y="140"/>
      <point x="281" y="140" type="curve" smooth="yes"/>
      <point x="317" y="140"/>
      <point x="338" y="147"/>
      <point x="360" y="154" type="curve"/>
      <point x="360" y="326"/>
      <point x="317" y="425"/>
      <point x="153" y="463" type="curve"/>
      <point x="144" y="379" type="line"/>
      <point x="210" y="370"/>
      <point x="253" y="310"/>
      <point x="257" y="216" type="curve"/>
      <point x="292" y="246" type="line"/>
      <point x="283" y="246"/>
      <point x="272" y="246"/>
      <point x="264" y="246" type="curve" smooth="yes"/>
      <point x="201" y="246"/>
      <point x="157" y="306"/>
      <point x="157" y="388" type="curve" smooth="yes"/>
      <point x="157" y="461"/>
      <point x="192" y="530"/>
      <point x="294" y="530" type="curve" smooth="yes"/>
      <point x="382" y="530"/>
      <point x="422" y="461"/>
      <point x="422" y="388" type="curve" smooth="yes"/>
    </contour>
    <contour>
      <point x="124" y="-270" type="line"/>
      <point x="360" y="-270" type="line"/>
      <point x="360" y="155" type="line"/>
      <point x="196" y="155" type="line"/>
      <point x="196" y="-149" type="line"/>
      <point x="124" y="-149" type="line"/>
    </contour>
  </outline>
</glyph>
<glyph name="eu_skn" format="2">
  <advance width="281"/>
  <unicode hex="1062"/>
  <note>
eu_skn
</note>
  <outline>
    <contour>
      <point x="65" y="149" type="line"/>
      <point x="229" y="149" type="line"/>
      <point x="229" y="647" type="line"/>
      <point x="-13" y="647" type="line"/>
      <point x="-13" y="506" type="line"/>
      <point x="65" y="506" type="line"/>
    </contour>
  </outline>
</glyph>
<glyph name="hathi_skn" format="2">
  <advance width="550"/>
  <unicode hex="1063"/>
  <note>
hathi_skn
</note>
  <outline>
    <contour>
      <point x="45" y="-271" type="line"/>
      <point x="209" y="-271" type="line"/>
      <point x="209" y="166" type="line"/>
      <point x="45" y="264" type="line"/>
    </contour>
    <contour>
      <point x="279" y="141" type="curve" smooth="yes"/>
      <point x="419" y="141"/>
      <point x="515" y="253"/>
      <point x="515" y="396" type="curve" smooth="yes"/>
      <point x="515" y="542"/>
      <point x="424" y="651"/>
      <point x="265" y="651" type="curve" smooth="yes"/>
      <point x="164" y="651"/>
      <point x="97" y="600"/>
      <point x="64" y="537" type="curve"/>
      <point x="169" y="475" type="line"/>
      <point x="192" y="514"/>
      <point x="222" y="530"/>
      <point x="259" y="530" type="curve" smooth="yes"/>
      <point x="315" y="530"/>
      <point x="353" y="475"/>
      <point x="353" y="396" type="curve" smooth="yes"/>
      <point x="353" y="313"/>
      <point x="314" y="262"/>
      <point x="250" y="262" type="curve" smooth="yes"/>
      <point x="210" y="262"/>
      <point x="187" y="285"/>
      <point x="165" y="323" type="curve"/>
      <point x="45" y="264" type="line"/>
      <point x="84" y="193"/>
      <point x="195" y="141"/>
    </contour>
  </outline>
</glyph>
<glyph name="kepho_skn" format="2">
  <advance width="352"/>
  <unicode hex="1064"/>
  <note>
kepho_skn
</note>
  <outline>
    <contour>
      <point x="95" y="149" type="line"/>
      <point x="336" y="149" type="line"/>
      <point x="336" y="271" type="line"/>
      <point x="259" y="271" type="line"/>
      <point x="259" y="647" type="line"/>
      <point x="17" y="647" type="line"/>
      <point x="17" y="525" type="line"/>
      <point x="95" y="525" type="line"/>
    </contour>
  </outline>
</glyph>
<glyph name="tha_wpk" format="2">
  <advance width="574"/>
  <unicode hex="1065"/>
  <note>
tha_wpk
</note>
  <outline>
    <contour>
      <point x="279" y="140" type="curve" smooth="yes"/>
      <point x="427" y="140"/>
      <point x="539" y="225"/>
      <point x="539" y="396" type="curve" smooth="yes"/>
      <point x="539" y="559"/>
      <point x="432" y="651"/>
      <point x="279" y="651" type="curve" smooth="yes"/>
      <point x="179" y="651"/>
      <point x="100" y="607"/>
      <point x="64" y="537" type="curve"/>
      <point x="174" y="475" type="line"/>
      <point x="209" y="522"/>
      <point x="239" y="536"/>
      <point x="278" y="536" type="curve" smooth="yes"/>
      <point x="335" y="536"/>
      <point x="377" y="487"/>
      <point x="377" y="396" type="curve" smooth="yes"/>
      <point x="377" y="302"/>
      <point x="339" y="255"/>
      <point x="270" y="255" type="curve" smooth="yes"/>
      <point x="227" y="255"/>
      <point x="197" y="279"/>
      <point x="171" y="322" type="curve"/>
      <point x="45" y="263" type="line"/>
      <point x="82" y="195"/>
      <point x="162" y="140"/>
    </contour>
  </outline>
</glyph>
<glyph name="pwa_wpk" format="2">
  <advance width="566"/>
  <unicode hex="1066"/>
  <note>
pwa_wpk
</note>
  <outline>
    <contour>
      <point x="283" y="140" type="curve" smooth="yes"/>
      <point x="438" y="140"/>
      <point x="531" y="241"/>
      <point x="531" y="394" type="curve" smooth="yes"/>
      <point x="531" y="522"/>
      <point x="479" y="607"/>
      <point x="405" y="651" type="curve"/>
      <point x="330" y="535" type="line"/>
      <point x="367" y="489"/>
      <point x="370" y="444"/>
      <point x="370" y="394" type="curve" smooth="yes"/>
      <point x="370" y="314"/>
      <point x="341" y="262"/>
      <point x="285" y="262" type="curve" smooth="yes"/>
      <point x="221" y="262"/>
      <point x="197" y="316"/>
      <point x="197" y="394" type="curve" smooth="yes"/>
      <point x="197" y="447"/>
      <point x="199" y="489"/>
      <point x="236" y="535" type="curve"/>
      <point x="161" y="651" type="line"/>
      <point x="86" y="607"/>
      <point x="35" y="521"/>
      <point x="35" y="394" type="curve" smooth="yes"/>
      <point x="35" y="241"/>
      <point x="127" y="140"/>
    </contour>
    <contour>
      <point x="137" y="-270" type="line"/>
      <point x="375" y="-270" type="line"/>
      <point x="375" y="164" type="line"/>
      <point x="211" y="161" type="line"/>
      <point x="211" y="-130" type="line"/>
      <point x="137" y="-130" type="line"/>
    </contour>
  </outline>
</glyph>
<glyph name="eu_wpk" format="2">
  <advance width="354"/>
  <unicode hex="1067"/>
  <note>
eu_wpk
</note>
  <outline>
    <contour>
      <point x="154" y="140" type="curve" smooth="yes"/>
      <point x="243" y="140"/>
      <point x="303" y="191"/>
      <point x="303" y="285" type="curve" smooth="yes"/>
      <point x="303" y="374"/>
      <point x="244" y="427"/>
      <point x="154" y="427" type="curve" smooth="yes"/>
      <point x="64" y="427"/>
      <point x="5" y="374"/>
      <point x="5" y="285" type="curve" smooth="yes"/>
      <point x="5" y="191"/>
      <point x="65" y="140"/>
    </contour>
    <contour>
      <point x="154" y="235" type="curve" smooth="yes"/>
      <point x="133" y="235"/>
      <point x="123" y="256"/>
      <point x="123" y="285" type="curve" smooth="yes"/>
      <point x="123" y="316"/>
      <point x="136" y="331"/>
      <point x="154" y="331" type="curve" smooth="yes"/>
      <point x="172" y="331"/>
      <point x="185" y="316"/>
      <point x="185" y="285" type="curve" smooth="yes"/>
      <point x="185" y="256"/>
      <point x="175" y="235"/>
    </contour>
    <contour>
      <point x="303" y="285" type="line"/>
      <point x="303" y="642" type="line"/>
      <point x="151" y="642" type="line"/>
      <point x="151" y="424" type="line"/>
    </contour>
  </outline>
</glyph>
<glyph name="ue_wpk" format="2">
  <advance width="359"/>
  <unicode hex="1068"/>
  <note>
ue_wpk
</note>
  <outline>
    <contour>
      <point x="17" y="149" type="line"/>
      <point x="257" y="149" type="line"/>
      <point x="257" y="647" type="line"/>
      <point x="93" y="647" type="line"/>
      <point x="93" y="271" type="line"/>
      <point x="17" y="271" type="line"/>
    </contour>
    <contour>
      <point x="174" y="722" type="curve" smooth="yes"/>
      <point x="241" y="722"/>
      <point x="288" y="762"/>
      <point x="288" y="832" type="curve" smooth="yes"/>
      <point x="288" y="894"/>
      <point x="244" y="939"/>
      <point x="174" y="939" type="curve" smooth="yes"/>
      <point x="103" y="939"/>
      <point x="62" y="898"/>
      <point x="62" y="831" type="curve" smooth="yes"/>
      <point x="62" y="762"/>
      <point x="107" y="722"/>
    </contour>
    <contour>
      <point x="176" y="794" type="curve" smooth="yes"/>
      <point x="158" y="794"/>
      <point x="152" y="809"/>
      <point x="152" y="831" type="curve" smooth="yes"/>
      <point x="152" y="855"/>
      <point x="162" y="866"/>
      <point x="176" y="866" type="curve" smooth="yes"/>
      <point x="189" y="866"/>
      <point x="199" y="855"/>
      <point x="199" y="831" type="curve" smooth="yes"/>
      <point x="199" y="809"/>
      <point x="189" y="794"/>
    </contour>
  </outline>
</glyph>
<glyph name="tone1_wpk" format="2">
  <advance width="382"/>
  <unicode hex="1069"/>
  <note>
tone1_wpk
</note>
  <outline>
    <contour>
      <point x="181" y="140" type="curve" smooth="yes"/>
      <point x="249" y="140"/>
      <point x="304" y="164"/>
      <point x="366" y="225" type="curve"/>
      <point x="281" y="303" type="line"/>
      <point x="262" y="286"/>
      <point x="235" y="262"/>
      <point x="211" y="262" type="curve" smooth="yes"/>
      <point x="195" y="262"/>
      <point x="186" y="271"/>
      <point x="186" y="286" type="curve" smooth="yes"/>
      <point x="186" y="305"/>
      <point x="201" y="325"/>
      <point x="219" y="343" type="curve" smooth="yes"/>
      <point x="303" y="424"/>
      <point x="330" y="466"/>
      <point x="330" y="525" type="curve" smooth="yes"/>
      <point x="330" y="598"/>
      <point x="275" y="651"/>
      <point x="185" y="651" type="curve" smooth="yes"/>
      <point x="109" y="651"/>
      <point x="61" y="623"/>
      <point x="27" y="593" type="curve"/>
      <point x="100" y="503" type="line"/>
      <point x="116" y="520"/>
      <point x="132" y="529"/>
      <point x="145" y="529" type="curve" smooth="yes"/>
      <point x="162" y="529"/>
      <point x="170" y="520"/>
      <point x="170" y="508" type="curve" smooth="yes"/>
      <point x="170" y="496"/>
      <point x="167" y="485"/>
      <point x="138" y="457" type="curve" smooth="yes"/>
      <point x="56" y="376"/>
      <point x="26" y="341"/>
      <point x="26" y="271" type="curve" smooth="yes"/>
      <point x="26" y="204"/>
      <point x="77" y="140"/>
    </contour>
  </outline>
</glyph>
<glyph name="tone2_wpk" format="2">
  <advance width="383"/>
  <unicode hex="106A"/>
  <note>
tone2_wpk
</note>
  <outline>
    <contour>
      <point x="167" y="140" type="curve" smooth="yes"/>
      <point x="284" y="140"/>
      <point x="332" y="202"/>
      <point x="332" y="304" type="curve" smooth="yes"/>
      <point x="332" y="647" type="line"/>
      <point x="189" y="647" type="line"/>
      <point x="189" y="308" type="line" smooth="yes"/>
      <point x="189" y="285"/>
      <point x="184" y="266"/>
      <point x="167" y="266" type="curve" smooth="yes"/>
      <point x="150" y="266"/>
      <point x="144" y="289"/>
      <point x="144" y="336" type="curve"/>
      <point x="-6" y="336" type="line"/>
      <point x="-6" y="211"/>
      <point x="44" y="140"/>
    </contour>
  </outline>
</glyph>
<glyph name="tone3_wpk" format="2">
  <advance width="383"/>
  <unicode hex="106B"/>
  <note>
tone3_wpk
</note>
  <outline>
    <contour>
      <point x="189" y="149" type="line"/>
      <point x="332" y="149" type="line"/>
      <point x="332" y="492" type="line" smooth="yes"/>
      <point x="332" y="594"/>
      <point x="284" y="656"/>
      <point x="167" y="656" type="curve" smooth="yes"/>
      <point x="44" y="656"/>
      <point x="-6" y="585"/>
      <point x="-6" y="460" type="curve"/>
      <point x="144" y="460" type="line"/>
      <point x="144" y="507"/>
      <point x="150" y="530"/>
      <point x="167" y="530" type="curve" smooth="yes"/>
      <point x="184" y="530"/>
      <point x="189" y="511"/>
      <point x="189" y="487" type="curve" smooth="yes"/>
    </contour>
  </outline>
</glyph>
<glyph name="tone4_wpk" format="2">
  <advance width="383"/>
  <unicode hex="106C"/>
  <note>
tone4_wpk
</note>
  <outline>
    <contour>
      <point x="216" y="140" type="curve" smooth="yes"/>
      <point x="339" y="140"/>
      <point x="389" y="211"/>
      <point x="389" y="336" type="curve"/>
      <point x="239" y="336" type="line"/>
      <point x="239" y="289"/>
      <point x="233" y="266"/>
      <point x="216" y="266" type="curve" smooth="yes"/>
      <point x="199" y="266"/>
      <point x="194" y="285"/>
      <point x="194" y="308" type="curve" smooth="yes"/>
      <point x="194" y="647" type="line"/>
      <point x="51" y="647" type="line"/>
      <point x="51" y="304" type="line" smooth="yes"/>
      <point x="51" y="202"/>
      <point x="99" y="140"/>
    </contour>
  </outline>
</glyph>
<glyph name="tone5_wpk" format="2">
  <advance width="382"/>
  <unicode hex="106D"/>
  <note>
tone5_wpk
</note>
  <outline>
    <contour>
      <point x="201" y="140" type="curve" smooth="yes"/>
      <point x="305" y="140"/>
      <point x="356" y="204"/>
      <point x="356" y="271" type="curve" smooth="yes"/>
      <point x="356" y="341"/>
      <point x="326" y="376"/>
      <point x="244" y="457" type="curve" smooth="yes"/>
      <point x="215" y="485"/>
      <point x="212" y="496"/>
      <point x="212" y="508" type="curve" smooth="yes"/>
      <point x="212" y="520"/>
      <point x="220" y="529"/>
      <point x="237" y="529" type="curve" smooth="yes"/>
      <point x="250" y="529"/>
      <point x="266" y="520"/>
      <point x="282" y="503" type="curve"/>
      <point x="355" y="593" type="line"/>
      <point x="321" y="623"/>
      <point x="273" y="651"/>
      <point x="197" y="651" type="curve" smooth="yes"/>
      <point x="107" y="651"/>
      <point x="52" y="598"/>
      <point x="52" y="525" type="curve" smooth="yes"/>
      <point x="52" y="466"/>
      <point x="79" y="424"/>
      <point x="163" y="343" type="curve" smooth="yes"/>
      <point x="181" y="325"/>
      <point x="196" y="305"/>
      <point x="196" y="286" type="curve" smooth="yes"/>
      <point x="196" y="271"/>
      <point x="187" y="262"/>
      <point x="171" y="262" type="curve" smooth="yes"/>
      <point x="147" y="262"/>
      <point x="120" y="286"/>
      <point x="101" y="303" type="curve"/>
      <point x="16" y="225" type="line"/>
      <point x="78" y="164"/>
      <point x="133" y="140"/>
    </contour>
  </outline>
</glyph>
<glyph name="nna_epk" format="2">
  <advance width="1139"/>
  <unicode hex="106E"/>
  <note>
nna_epk
</note>
  <outline>
    <contour>
      <point x="159" y="140" type="curve"/>
      <point x="235" y="262" type="line"/>
      <point x="201" y="307"/>
      <point x="199" y="347"/>
      <point x="199" y="397" type="curve" smooth="yes"/>
      <point x="199" y="476"/>
      <point x="230" y="530"/>
      <point x="282" y="530" type="curve" smooth="yes"/>
      <point x="338" y="530"/>
      <point x="362" y="469"/>
      <point x="362" y="397" type="curve" smooth="yes"/>
      <point x="362" y="349"/>
      <point x="355" y="301"/>
      <point x="306" y="262" type="curve"/>
      <point x="381" y="140" type="line"/>
      <point x="467" y="189"/>
      <point x="503" y="279"/>
      <point x="503" y="397" type="curve" smooth="yes"/>
      <point x="503" y="554"/>
      <point x="425" y="651"/>
      <point x="272" y="651" type="curve" smooth="yes"/>
      <point x="124" y="651"/>
      <point x="35" y="548"/>
      <point x="35" y="397" type="curve" smooth="yes"/>
      <point x="35" y="271"/>
      <point x="86" y="184"/>
    </contour>
    <contour>
      <point x="650" y="140" type="line"/>
      <point x="736" y="189"/>
      <point x="772" y="279"/>
      <point x="772" y="397" type="curve" smooth="yes"/>
      <point x="772" y="554"/>
      <point x="694" y="651"/>
      <point x="541" y="651" type="curve" smooth="yes"/>
      <point x="464" y="651"/>
      <point x="412" y="616"/>
      <point x="377" y="566" type="curve"/>
      <point x="468" y="397" type="line"/>
      <point x="468" y="476"/>
      <point x="499" y="530"/>
      <point x="551" y="530" type="curve" smooth="yes"/>
      <point x="607" y="530"/>
      <point x="631" y="469"/>
      <point x="631" y="397" type="curve" smooth="yes"/>
      <point x="631" y="349"/>
      <point x="624" y="301"/>
      <point x="575" y="262" type="curve"/>
    </contour>
    <contour>
      <point x="894" y="140" type="curve" smooth="yes"/>
      <point x="1008" y="140"/>
      <point x="1104" y="248"/>
      <point x="1104" y="396" type="curve" smooth="yes"/>
      <point x="1104" y="546"/>
      <point x="999" y="651"/>
      <point x="859" y="651" type="curve" smooth="yes"/>
      <point x="799" y="651"/>
      <point x="738" y="624"/>
      <point x="699" y="565" type="curve"/>
      <point x="768" y="445" type="line"/>
      <point x="768" y="487"/>
      <point x="794" y="530"/>
      <point x="847" y="530" type="curve" smooth="yes"/>
      <point x="897" y="530"/>
      <point x="940" y="479"/>
      <point x="940" y="396" type="curve" smooth="yes"/>
      <point x="940" y="319"/>
      <point x="919" y="269"/>
      <point x="882" y="269" type="curve" smooth="yes"/>
      <point x="863" y="269"/>
      <point x="854" y="273"/>
      <point x="834" y="282" type="curve"/>
      <point x="782" y="170" type="line"/>
      <point x="807" y="148"/>
      <point x="866" y="140"/>
    </contour>
  </outline>
</glyph>
<glyph name="i_gkn" format="2">
  <unicode hex="1071"/>
  <note>
i_gkn
</note>
  <outline>
    <contour>
      <point x="-137" y="778" type="curve" smooth="yes"/>
      <point x="-69" y="778"/>
      <point x="-22" y="817"/>
      <point x="-22" y="888" type="curve" smooth="yes"/>
      <point x="-22" y="950"/>
      <point x="-66" y="995"/>
      <point x="-137" y="995" type="curve" smooth="yes"/>
      <point x="-207" y="995"/>
      <point x="-249" y="954"/>
      <point x="-249" y="887" type="curve" smooth="yes"/>
      <point x="-249" y="818"/>
      <point x="-204" y="778"/>
    </contour>
    <contour>
      <point x="-135" y="850" type="curve" smooth="yes"/>
      <point x="-151" y="850"/>
      <point x="-159" y="865"/>
      <point x="-159" y="887" type="curve" smooth="yes"/>
      <point x="-159" y="910"/>
      <point x="-149" y="922"/>
      <point x="-135" y="922" type="curve" smooth="yes"/>
      <point x="-121" y="922"/>
      <point x="-112" y="910"/>
      <point x="-112" y="887" type="curve" smooth="yes"/>
      <point x="-112" y="865"/>
      <point x="-122" y="850"/>
    </contour>
    <contour>
      <point x="-456" y="778" type="curve" smooth="yes"/>
      <point x="-388" y="778"/>
      <point x="-341" y="817"/>
      <point x="-341" y="888" type="curve" smooth="yes"/>
      <point x="-341" y="950"/>
      <point x="-385" y="995"/>
      <point x="-456" y="995" type="curve" smooth="yes"/>
      <point x="-526" y="995"/>
      <point x="-568" y="954"/>
      <point x="-568" y="887" type="curve" smooth="yes"/>
      <point x="-568" y="818"/>
      <point x="-523" y="778"/>
    </contour>
    <contour>
      <point x="-454" y="850" type="curve" smooth="yes"/>
      <point x="-470" y="850"/>
      <point x="-478" y="865"/>
      <point x="-478" y="887" type="curve" smooth="yes"/>
      <point x="-478" y="910"/>
      <point x="-468" y="922"/>
      <point x="-454" y="922" type="curve" smooth="yes"/>
      <point x="-440" y="922"/>
      <point x="-431" y="910"/>
      <point x="-431" y="887" type="curve" smooth="yes"/>
      <point x="-431" y="865"/>
      <point x="-441" y="850"/>
    </contour>
  </outline>
</glyph>
<glyph name="oe_kyh" format="2">
  <unicode hex="1072"/>
  <note>
oe_kyh
</note>
  <outline>
    <contour>
      <point x="-240" y="712" type="curve" smooth="yes"/>
      <point x="-166" y="712"/>
      <point x="-121" y="747"/>
      <point x="-101" y="792" type="curve"/>
      <point x="-196" y="837" type="line"/>
      <point x="-204" y="827"/>
      <point x="-215" y="810"/>
      <point x="-238" y="810" type="curve" smooth="yes"/>
      <point x="-267" y="810"/>
      <point x="-281" y="843"/>
      <point x="-281" y="882" type="curve" smooth="yes"/>
      <point x="-281" y="922"/>
      <point x="-267" y="955"/>
      <point x="-238" y="955" type="curve" smooth="yes"/>
      <point x="-223" y="955"/>
      <point x="-213" y="948"/>
      <point x="-202" y="924" type="curve"/>
      <point x="-112" y="975" type="line"/>
      <point x="-129" y="1021"/>
      <point x="-181" y="1053"/>
      <point x="-242" y="1053" type="curve" smooth="yes"/>
      <point x="-334" y="1053"/>
      <point x="-401" y="985"/>
      <point x="-401" y="882" type="curve" smooth="yes"/>
      <point x="-401" y="780"/>
      <point x="-343" y="712"/>
    </contour>
  </outline>
</glyph>
<glyph name="u_kyh" format="2">
  <unicode hex="1073"/>
  <note>
u_kyh
</note>
  <outline>
    <contour>
      <point x="-376" y="711" type="line"/>
      <point x="-220" y="879" type="line"/>
      <point x="-65" y="711" type="line"/>
      <point x="10" y="789" type="line"/>
      <point x="-220" y="1041" type="line"/>
      <point x="-450" y="789" type="line"/>
    </contour>
  </outline>
</glyph>
<glyph name="ee_kyh" format="2">
  <unicode hex="1074"/>
  <note>
ee_kyh
</note>
  <outline>
    <contour>
      <point x="-220" y="711" type="line"/>
      <point x="10" y="963" type="line"/>
      <point x="-65" y="1041" type="line"/>
      <point x="-220" y="873" type="line"/>
      <point x="-376" y="1041" type="line"/>
      <point x="-450" y="963" type="line"/>
    </contour>
  </outline>
</glyph>
<glyph name="ka_shn" format="2">
  <advance width="571"/>
  <unicode hex="1075"/>
  <note>
ka_shn
</note>
  <outline>
    <contour>
      <point x="164" y="140" type="curve" smooth="yes"/>
      <point x="250" y="140"/>
      <point x="297" y="189"/>
      <point x="297" y="258" type="curve" smooth="yes"/>
      <point x="297" y="310"/>
      <point x="263" y="345"/>
      <point x="232" y="382" type="curve" smooth="yes"/>
      <point x="212" y="406"/>
      <point x="201" y="428"/>
      <point x="201" y="458" type="curve" smooth="yes"/>
      <point x="201" y="500"/>
      <point x="227" y="531"/>
      <point x="279" y="531" type="curve" smooth="yes"/>
      <point x="339" y="531"/>
      <point x="374" y="478"/>
      <point x="374" y="398" type="curve" smooth="yes"/>
      <point x="374" y="348"/>
      <point x="373" y="303"/>
      <point x="336" y="257" type="curve"/>
      <point x="412" y="141" type="line"/>
      <point x="483" y="185"/>
      <point x="536" y="271"/>
      <point x="536" y="398" type="curve" smooth="yes"/>
      <point x="536" y="550"/>
      <point x="448" y="652"/>
      <point x="276" y="652" type="curve" smooth="yes"/>
      <point x="115" y="652"/>
      <point x="39" y="574"/>
      <point x="39" y="468" type="curve" smooth="yes"/>
      <point x="39" y="413"/>
      <point x="59" y="372"/>
      <point x="96" y="338" type="curve" smooth="yes"/>
      <point x="130" y="307"/>
      <point x="154" y="296"/>
      <point x="154" y="279" type="curve" smooth="yes"/>
      <point x="154" y="267"/>
      <point x="145" y="262"/>
      <point x="133" y="262" type="curve" smooth="yes"/>
      <point x="116" y="262"/>
      <point x="99" y="275"/>
      <point x="89" y="289" type="curve"/>
      <point x="18" y="219" type="line"/>
      <point x="42" y="172"/>
      <point x="94" y="140"/>
    </contour>
  </outline>
</glyph>
<glyph name="kha_shn" format="2">
  <advance width="575"/>
  <unicode hex="1076"/>
  <note>
kha_shn
</note>
  <outline>
    <contour>
      <point x="272" y="140" type="curve" smooth="yes"/>
      <point x="422" y="140"/>
      <point x="540" y="220"/>
      <point x="540" y="396" type="curve" smooth="yes"/>
      <point x="540" y="537"/>
      <point x="473" y="651"/>
      <point x="325" y="651" type="curve" smooth="yes"/>
      <point x="255" y="651"/>
      <point x="222" y="624"/>
      <point x="190" y="578" type="curve" smooth="yes"/>
      <point x="172" y="552"/>
      <point x="163" y="539"/>
      <point x="147" y="539" type="curve" smooth="yes"/>
      <point x="137" y="539"/>
      <point x="132" y="547"/>
      <point x="132" y="559" type="curve" smooth="yes"/>
      <point x="132" y="569"/>
      <point x="134" y="582"/>
      <point x="142" y="593" type="curve"/>
      <point x="72" y="651" type="line"/>
      <point x="49" y="626"/>
      <point x="36" y="587"/>
      <point x="36" y="556" type="curve" smooth="yes"/>
      <point x="36" y="496"/>
      <point x="71" y="449"/>
      <point x="139" y="449" type="curve" smooth="yes"/>
      <point x="174" y="449"/>
      <point x="201" y="463"/>
      <point x="221" y="487" type="curve" smooth="yes"/>
      <point x="243" y="514"/>
      <point x="262" y="531"/>
      <point x="292" y="531" type="curve" smooth="yes"/>
      <point x="358" y="531"/>
      <point x="378" y="469"/>
      <point x="378" y="396" type="curve" smooth="yes"/>
      <point x="378" y="308"/>
      <point x="342" y="262"/>
      <point x="277" y="262" type="curve" smooth="yes"/>
      <point x="231" y="262"/>
      <point x="197" y="277"/>
      <point x="182" y="296" type="curve"/>
      <point x="209" y="316"/>
      <point x="227" y="325"/>
      <point x="260" y="325" type="curve" smooth="yes"/>
      <point x="295" y="325"/>
      <point x="339" y="313"/>
      <point x="384" y="293" type="curve"/>
      <point x="399" y="387" type="line"/>
      <point x="331" y="408"/>
      <point x="287" y="418"/>
      <point x="252" y="418" type="curve" smooth="yes"/>
      <point x="176" y="418"/>
      <point x="113" y="395"/>
      <point x="36" y="350" type="curve"/>
      <point x="42" y="232"/>
      <point x="128" y="140"/>
    </contour>
  </outline>
</glyph>
<glyph name="ga_shn" format="2">
  <advance width="582"/>
  <unicode hex="1077"/>
  <note>
ga_shn
</note>
  <outline>
    <contour>
      <point x="154" y="140" type="curve" smooth="yes"/>
      <point x="229" y="140"/>
      <point x="270" y="189"/>
      <point x="270" y="258" type="curve" smooth="yes"/>
      <point x="270" y="310"/>
      <point x="247" y="343"/>
      <point x="225" y="379" type="curve" smooth="yes"/>
      <point x="210" y="403"/>
      <point x="201" y="428"/>
      <point x="201" y="458" type="curve" smooth="yes"/>
      <point x="201" y="500"/>
      <point x="227" y="531"/>
      <point x="286" y="531" type="curve" smooth="yes"/>
      <point x="356" y="531"/>
      <point x="406" y="468"/>
      <point x="406" y="391" type="curve" smooth="yes"/>
      <point x="406" y="348"/>
      <point x="399" y="314"/>
      <point x="370" y="277" type="curve"/>
      <point x="359" y="307"/>
      <point x="356" y="336"/>
      <point x="356" y="391" type="curve" smooth="yes"/>
      <point x="356" y="431"/>
      <point x="364" y="472"/>
      <point x="373" y="511" type="curve"/>
      <point x="299" y="550" type="line"/>
      <point x="283" y="482"/>
      <point x="280" y="442"/>
      <point x="280" y="391" type="curve" smooth="yes"/>
      <point x="280" y="279"/>
      <point x="327" y="206"/>
      <point x="382" y="140" type="curve"/>
      <point x="480" y="181"/>
      <point x="547" y="276"/>
      <point x="547" y="397" type="curve" smooth="yes"/>
      <point x="547" y="550"/>
      <point x="453" y="652"/>
      <point x="276" y="652" type="curve" smooth="yes"/>
      <point x="115" y="652"/>
      <point x="39" y="574"/>
      <point x="39" y="468" type="curve" smooth="yes"/>
      <point x="39" y="413"/>
      <point x="61" y="369"/>
      <point x="96" y="333" type="curve" smooth="yes"/>
      <point x="123" y="305"/>
      <point x="134" y="296"/>
      <point x="134" y="277" type="curve" smooth="yes"/>
      <point x="134" y="267"/>
      <point x="129" y="262"/>
      <point x="120" y="262" type="curve" smooth="yes"/>
      <point x="107" y="262"/>
      <point x="97" y="275"/>
      <point x="89" y="289" type="curve"/>
      <point x="18" y="219" type="line"/>
      <point x="40" y="172"/>
      <point x="89" y="140"/>
    </contour>
  </outline>
</glyph>
<glyph name="za_shn" format="2">
  <advance width="868"/>
  <unicode hex="1079"/>
  <note>
za_shn
</note>
  <outline>
    <contour>
      <point x="280" y="140" type="curve" smooth="yes"/>
      <point x="316" y="140"/>
      <point x="337" y="147"/>
      <point x="359" y="154" type="curve"/>
      <point x="355" y="326"/>
      <point x="316" y="425"/>
      <point x="152" y="463" type="curve"/>
      <point x="143" y="379" type="line"/>
      <point x="209" y="370"/>
      <point x="252" y="310"/>
      <point x="256" y="216" type="curve"/>
      <point x="291" y="246" type="line"/>
      <point x="282" y="246"/>
      <point x="271" y="246"/>
      <point x="263" y="246" type="curve" smooth="yes"/>
      <point x="200" y="246"/>
      <point x="156" y="306"/>
      <point x="156" y="388" type="curve" smooth="yes"/>
      <point x="156" y="462"/>
      <point x="187" y="530"/>
      <point x="270" y="530" type="curve" smooth="yes"/>
      <point x="333" y="530"/>
      <point x="364" y="492"/>
      <point x="383" y="452" type="curve"/>
      <point x="449" y="574" type="line"/>
      <point x="411" y="612"/>
      <point x="362" y="651"/>
      <point x="267" y="651" type="curve" smooth="yes"/>
      <point x="120" y="651"/>
      <point x="35" y="556"/>
      <point x="35" y="397" type="curve" smooth="yes"/>
      <point x="35" y="250"/>
      <point x="110" y="140"/>
    </contour>
    <contour>
      <point x="596" y="140" type="curve" smooth="yes"/>
      <point x="734" y="140"/>
      <point x="833" y="243"/>
      <point x="833" y="396" type="curve" smooth="yes"/>
      <point x="833" y="549"/>
      <point x="735" y="651"/>
      <point x="591" y="651" type="curve" smooth="yes"/>
      <point x="436" y="651"/>
      <point x="370" y="541"/>
      <point x="370" y="397" type="curve" smooth="yes"/>
      <point x="370" y="244"/>
      <point x="436" y="140"/>
    </contour>
    <contour>
      <point x="589" y="262" type="curve" smooth="yes"/>
      <point x="529" y="262"/>
      <point x="509" y="327"/>
      <point x="509" y="396" type="curve" smooth="yes"/>
      <point x="509" y="479"/>
      <point x="531" y="530"/>
      <point x="590" y="530" type="curve" smooth="yes"/>
      <point x="645" y="530"/>
      <point x="671" y="476"/>
      <point x="671" y="396" type="curve" smooth="yes"/>
      <point x="671" y="311"/>
      <point x="643" y="262"/>
    </contour>
  </outline>
</glyph>
